{"glyphs":{"0":{"ha":1007,"x_min":68,"x_max":1031,"o":"m 354 -31 q 207 11 272 -31 q 105 123 142 53 q 68 276 68 193 q 70 310 68 294 q 75 340 72 326 q 456 854 160 703 q 665 917 579 917 q 801 886 736 917 q 919 803 867 856 q 1001 684 971 750 q 1031 547 1031 618 q 1028 503 1031 525 q 1019 457 1025 481 q 936 296 1000 383 q 828 177 889 232 q 693 78 767 122 q 386 -31 536 -17 l 386 -29 q 373 -31 381 -31 q 354 -31 365 -31 m 354 14 q 531 51 436 14 q 715 153 625 89 q 868 297 804 217 q 975 554 975 429 q 951 672 975 615 q 884 774 926 729 q 788 844 842 818 q 672 871 733 871 q 479 814 590 871 q 124 322 200 669 q 119 292 121 307 q 117 263 117 278 q 147 135 117 192 q 230 47 176 79 q 354 14 283 14 z "},"1":{"ha":381,"x_min":39,"x_max":604,"o":"m 72 -26 q 39 -8 39 -26 l 40 -3 q 51 25 42 4 q 75 81 60 46 q 146 235 103 146 q 281 511 218 388 q 396 728 343 635 q 353 691 378 714 q 293 638 328 668 q 285 635 290 635 q 264 642 276 635 q 251 656 251 649 q 335 740 251 669 l 435 822 l 472 864 q 522 919 500 893 q 561 968 544 946 q 569 971 569 971 q 592 960 579 971 q 604 939 604 949 l 603 936 q 578 898 593 918 q 539 854 563 878 q 515 831 531 847 q 485 783 513 828 q 434 698 458 740 q 386 611 410 656 q 253 351 311 472 q 151 125 194 229 q 118 38 139 96 q 114 19 117 28 q 108 3 111 11 q 89 -25 103 -18 q 72 -26 85 -26 z "},"2":{"ha":950,"x_min":-61,"x_max":929,"o":"m 571 -29 q 197 28 406 -29 l 197 26 q 49 -18 113 -18 q -21 0 11 -18 q -61 54 -61 21 q -32 101 -61 83 q 24 115 -10 115 q 189 74 50 115 l 197 78 l 204 82 q 824 615 682 376 q 888 790 888 722 q 753 892 888 892 q 568 844 664 892 q 411 733 479 801 q 381 699 399 721 q 339 647 363 678 q 321 638 333 638 q 297 661 297 638 q 303 674 297 668 q 501 857 378 783 q 757 936 633 936 q 878 903 832 936 q 929 793 929 865 q 861 590 929 704 q 253 57 714 343 q 565 15 432 15 q 801 106 806 15 l 800 114 q 824 140 800 140 q 844 108 844 140 q 571 -29 844 -29 m 46 28 q 126 46 82 28 q 35 71 56 71 q -3 50 -3 71 q 46 28 -3 28 z "},"3":{"ha":821,"x_min":-17,"x_max":933,"o":"m 207 -43 q 103 -35 147 -43 q 17 9 51 -25 q -17 94 -17 43 q -8 132 -17 111 q 14 167 0 153 q 42 182 28 182 q 56 168 56 182 q 42 139 56 161 q 28 93 28 117 q 200 0 28 0 q 297 7 249 0 q 393 28 346 14 q 608 132 517 64 q 733 326 722 219 l 733 336 q 656 449 733 429 q 474 386 542 386 q 415 408 415 386 q 417 414 415 413 q 485 472 428 456 q 646 496 581 500 q 881 790 881 651 q 744 890 881 890 q 476 771 596 890 q 466 756 472 767 q 450 726 460 744 q 397 681 438 701 q 381 676 392 676 q 350 700 350 676 q 354 714 350 708 q 742 928 510 928 q 933 796 933 928 q 701 476 933 647 q 788 335 788 435 l 788 322 q 568 47 774 154 q 207 -43 394 -43 z "},"4":{"ha":767,"x_min":42,"x_max":881,"o":"m 375 -26 q 342 -8 342 -26 q 460 268 342 22 q 313 282 388 271 q 163 311 239 293 q 101 290 124 290 q 65 297 86 290 q 42 321 42 308 q 64 353 42 340 q 107 367 86 367 q 115 366 110 367 q 126 364 119 365 q 374 553 226 439 q 719 824 522 668 q 769 872 739 843 q 838 935 799 900 q 846 936 839 936 q 868 926 856 936 q 881 907 881 917 q 854 867 881 893 q 838 848 846 857 q 819 829 829 839 q 731 682 801 807 q 630 497 678 589 q 538 313 582 404 q 606 315 574 311 q 667 326 638 319 q 751 401 751 349 l 751 411 q 775 438 751 438 q 797 401 797 438 q 518 265 797 265 q 475 171 496 219 q 435 71 454 122 q 424 35 431 56 q 408 -10 418 15 q 375 -26 403 -26 m 478 313 q 736 779 618 611 q 623 687 692 740 q 461 565 554 633 q 297 444 367 497 q 186 354 228 390 q 478 313 329 318 z "},"5":{"ha":844,"x_min":-14,"x_max":1021,"o":"m 763 794 q 663 806 724 794 q 519 839 601 817 q 471 817 476 817 q 442 825 458 817 q 426 844 426 833 q 453 878 426 864 q 497 889 478 889 q 542 879 511 889 q 747 839 683 839 q 978 929 982 839 l 976 938 q 1000 964 976 964 q 1019 944 1019 964 l 1019 946 q 1021 931 1021 942 q 925 818 1021 854 q 763 794 857 794 m 210 -43 q -14 94 -14 -43 q -6 132 -14 111 q 15 167 1 153 q 44 182 29 182 q 58 168 58 182 q 44 139 58 161 q 31 93 31 117 q 201 0 31 0 q 299 7 250 0 q 394 28 347 14 q 611 132 519 64 q 735 326 726 219 l 735 338 q 692 460 735 414 q 574 507 649 507 q 397 450 496 507 q 283 393 299 393 q 244 418 244 393 q 267 444 244 432 l 265 446 q 476 788 369 671 q 493 796 485 796 q 517 771 517 796 q 510 756 517 763 q 481 721 499 742 q 442 672 464 700 q 388 586 417 639 q 324 461 358 533 l 336 463 q 583 546 460 546 q 735 492 679 546 q 790 342 790 438 q 579 53 790 168 q 210 -43 403 -43 z "},"6":{"ha":739,"x_min":54,"x_max":953,"o":"m 276 -74 q 54 125 54 -74 q 213 476 54 288 q 368 633 281 558 q 561 778 456 708 q 919 946 760 906 l 922 947 l 925 947 q 953 914 953 947 q 939 890 953 899 q 868 869 917 876 q 796 853 817 861 q 358 563 576 761 q 101 132 101 326 q 147 8 101 53 q 274 -36 193 -36 q 313 -32 294 -36 q 286 63 286 3 q 310 161 286 118 q 417 286 351 233 q 568 344 494 344 q 649 319 617 344 q 681 246 681 293 q 581 65 681 165 q 276 -74 442 -74 m 369 -18 q 460 32 415 -1 q 542 106 506 65 q 601 184 579 146 q 624 250 624 222 q 568 299 624 299 q 486 275 529 299 q 407 213 443 251 q 348 131 371 175 q 325 46 325 88 q 340 -1 325 10 l 369 -18 z "},"7":{"ha":761,"x_min":214,"x_max":975,"o":"m 313 -31 q 278 -4 278 -31 q 382 254 278 82 q 438 344 397 279 q 542 495 479 408 q 682 677 604 582 q 847 857 760 772 q 731 824 800 824 q 666 830 704 824 q 576 847 628 836 q 486 865 525 858 q 419 871 447 871 q 401 870 413 871 q 372 868 389 869 q 303 821 329 860 q 271 753 292 806 q 242 718 257 718 q 214 749 214 718 q 317 903 214 821 q 382 921 339 921 q 515 904 426 921 q 648 883 590 890 q 746 876 706 876 q 938 931 861 876 q 947 933 940 933 q 965 924 956 933 q 975 907 975 915 q 972 901 974 901 q 854 794 940 860 l 854 796 l 710 638 q 638 551 671 593 q 576 469 604 508 q 351 63 389 199 q 346 37 349 49 q 340 14 343 25 q 313 -31 340 -31 z "},"8":{"ha":758,"x_min":35,"x_max":985,"o":"m 314 -44 q 94 22 153 -44 q 35 139 35 86 q 401 515 35 261 q 318 703 318 601 q 358 847 318 785 q 462 943 397 908 q 603 978 526 978 q 785 907 708 978 q 821 849 821 874 q 808 833 821 833 q 774 858 801 833 q 740 886 756 874 q 710 907 725 899 q 607 932 663 932 q 458 882 525 932 q 392 801 411 846 q 374 701 374 757 q 390 612 374 650 q 440 544 407 574 l 644 678 q 932 993 879 829 q 965 1029 943 1029 q 985 1000 985 1029 l 985 988 q 853 793 969 904 q 763 713 810 750 q 665 644 717 676 q 585 594 633 625 q 472 519 538 563 q 565 444 529 474 q 614 401 600 415 q 686 238 686 325 q 617 78 686 154 q 468 -19 558 15 q 314 -44 404 -44 m 307 -3 q 449 22 385 -3 q 578 104 525 51 q 640 239 640 167 q 569 372 640 310 l 446 472 l 429 489 q 90 129 90 256 q 111 69 90 94 l 110 71 q 307 -3 167 -3 z "},"9":{"ha":761,"x_min":43,"x_max":808,"o":"m 75 -82 q 53 -69 63 -82 q 43 -44 43 -57 q 53 -26 43 -31 q 124 -6 76 -11 q 189 11 171 3 q 381 124 288 56 q 560 285 474 192 q 761 682 761 496 q 706 841 761 781 q 553 901 651 901 q 441 874 496 901 q 342 800 386 846 q 271 698 297 754 q 244 585 244 642 q 282 475 244 521 q 382 429 319 429 q 553 532 463 429 q 586 553 572 553 q 607 535 607 553 q 596 510 607 525 q 378 381 499 381 q 281 408 324 381 q 215 482 239 436 q 192 583 192 528 q 222 713 192 650 q 305 828 253 776 q 420 911 357 881 q 550 942 483 942 q 739 872 669 942 q 808 683 808 801 q 683 357 808 531 q 397 78 574 204 q 81 -81 229 -43 q 75 -82 79 -82 z "},"\r":{"ha":394,"x_min":0,"x_max":0,"o":""},"\u0000":{"ha":0,"x_min":0,"x_max":0,"o":""}," ":{"ha":394,"x_min":0,"x_max":0,"o":""}," ":{"ha":394,"x_min":0,"x_max":0,"o":""},"A":{"ha":869,"x_min":-76,"x_max":933,"o":"m -53 -82 q -76 -60 -76 -82 q -75 -49 -76 -51 q 204 288 -24 64 q 192 285 197 286 q 183 285 186 285 q 160 311 160 285 q 183 331 160 326 q 213 335 197 333 q 254 343 229 338 q 578 644 422 518 q 878 850 735 769 q 900 862 890 857 q 917 867 910 867 q 933 844 933 867 q 850 558 933 803 l 789 379 q 825 357 825 379 q 778 332 825 332 q 728 173 751 260 q 690 -6 706 86 q 665 -35 685 -35 q 642 -10 642 -35 q 644 8 642 -6 q 653 44 647 22 q 683 178 669 125 q 706 267 696 231 q 725 335 717 304 q 275 297 469 329 q 182 201 219 240 q 126 142 144 161 q -7 -25 43 50 q -17 -43 -11 -32 q -33 -69 -24 -54 q -53 -82 -39 -82 m 332 354 q 514 372 413 365 q 742 381 615 378 q 783 505 763 444 q 824 621 804 565 q 886 804 847 682 q 587 599 725 711 q 332 354 449 486 z "},"Æ":{"ha":1365,"x_min":-65,"x_max":1590,"o":"m -42 -82 q -65 -60 -65 -82 q -64 -49 -65 -51 q 292 369 -10 68 l 271 365 q 247 392 247 365 q 267 411 247 411 l 267 410 q 310 417 292 414 q 342 424 329 421 q 958 850 564 656 q 1385 929 1121 929 q 1575 913 1532 929 q 1590 890 1590 906 q 1569 867 1590 867 l 1564 867 q 1473 878 1524 874 q 1361 882 1422 882 q 1258 876 1315 882 q 1133 860 1201 871 q 878 489 1069 813 q 1214 510 1093 510 q 1240 509 1228 510 q 1264 508 1253 508 q 1306 492 1306 507 q 1288 472 1306 482 q 1253 463 1271 463 q 1047 457 1147 461 q 851 443 946 453 q 726 215 783 325 q 621 4 668 106 q 1188 88 996 88 q 1321 24 1321 88 q 1297 1 1321 1 q 1278 15 1282 1 q 1269 29 1274 29 q 1183 40 1263 40 q 1046 33 1121 40 q 885 8 971 26 l 589 -51 l 588 -51 q 563 -21 563 -51 q 658 190 603 75 q 786 438 714 304 q 363 379 672 426 q 256 269 303 318 q 176 183 210 219 q 72 63 115 115 q 4 -25 29 11 q -6 -43 0 -32 q -22 -69 -12 -54 q -42 -82 -28 -82 m 419 436 q 811 482 572 460 q 947 706 885 613 q 1061 854 1010 799 q 419 436 575 613 z "},"Ǽ":{"ha":1365,"x_min":-65,"x_max":1590,"o":"m -42 -82 q -65 -60 -65 -82 q -64 -49 -65 -51 q 292 369 -10 68 l 271 365 q 247 392 247 365 q 267 411 247 411 l 267 410 q 310 417 292 414 q 342 424 329 421 q 958 850 564 656 q 1385 929 1121 929 q 1575 913 1532 929 q 1590 890 1590 906 q 1569 867 1590 867 l 1564 867 q 1473 878 1524 874 q 1361 882 1422 882 q 1258 876 1315 882 q 1133 860 1201 871 q 878 489 1069 813 q 1214 510 1093 510 q 1240 509 1228 510 q 1264 508 1253 508 q 1306 492 1306 507 q 1288 472 1306 482 q 1253 463 1271 463 q 1047 457 1147 461 q 851 443 946 453 q 726 215 783 325 q 621 4 668 106 q 1188 88 996 88 q 1321 24 1321 88 q 1297 1 1321 1 q 1278 15 1282 1 q 1269 29 1274 29 q 1183 40 1263 40 q 1046 33 1121 40 q 885 8 971 26 l 589 -51 l 588 -51 q 563 -21 563 -51 q 658 190 603 75 q 786 438 714 304 q 363 379 672 426 q 256 269 303 318 q 176 183 210 219 q 72 63 115 115 q 4 -25 29 11 q -6 -43 0 -32 q -22 -69 -12 -54 q -42 -82 -28 -82 m 419 436 q 811 482 572 460 q 947 706 885 613 q 1061 854 1010 799 q 419 436 575 613 m 1208 1000 q 1194 1019 1194 1006 q 1203 1033 1194 1029 q 1248 1062 1215 1042 q 1316 1105 1281 1082 q 1372 1142 1351 1128 q 1404 1150 1390 1154 q 1417 1129 1417 1143 q 1400 1106 1417 1115 q 1360 1083 1390 1100 q 1293 1044 1331 1065 q 1221 1003 1256 1022 q 1208 1000 1215 1000 z "},"Á":{"ha":869,"x_min":-76,"x_max":1081,"o":"m -53 -82 q -76 -60 -76 -82 q -75 -49 -76 -51 q 204 288 -24 64 q 192 285 197 286 q 183 285 186 285 q 160 311 160 285 q 183 331 160 326 q 213 335 197 333 q 254 343 229 338 q 578 644 422 518 q 878 850 735 769 q 900 862 890 857 q 917 867 910 867 q 933 844 933 867 q 850 558 933 803 l 789 379 q 825 357 825 379 q 778 332 825 332 q 728 173 751 260 q 690 -6 706 86 q 665 -35 685 -35 q 642 -10 642 -35 q 644 8 642 -6 q 653 44 647 22 q 683 178 669 125 q 706 267 696 231 q 725 335 717 304 q 275 297 469 329 q 182 201 219 240 q 126 142 144 161 q -7 -25 43 50 q -17 -43 -11 -32 q -33 -69 -24 -54 q -53 -82 -39 -82 m 332 354 q 514 372 413 365 q 742 381 615 378 q 783 505 763 444 q 824 621 804 565 q 886 804 847 682 q 587 599 725 711 q 332 354 449 486 m 872 950 q 858 969 858 956 q 867 983 858 979 q 912 1012 879 992 q 980 1055 944 1032 q 1036 1092 1015 1078 q 1068 1100 1054 1104 q 1081 1079 1081 1093 q 1064 1056 1081 1065 q 1024 1033 1054 1050 q 957 994 994 1015 q 885 953 919 972 q 872 950 879 950 z "},"Ă":{"ha":869,"x_min":-76,"x_max":1147,"o":"m -53 -82 q -76 -60 -76 -82 q -75 -49 -76 -51 q 204 288 -24 64 q 192 285 197 286 q 183 285 186 285 q 160 311 160 285 q 183 331 160 326 q 213 335 197 333 q 254 343 229 338 q 578 644 422 518 q 878 850 735 769 q 900 862 890 857 q 917 867 910 867 q 933 844 933 867 q 850 558 933 803 l 789 379 q 825 357 825 379 q 778 332 825 332 q 728 173 751 260 q 690 -6 706 86 q 665 -35 685 -35 q 642 -10 642 -35 q 644 8 642 -6 q 653 44 647 22 q 683 178 669 125 q 706 267 696 231 q 725 335 717 304 q 275 297 469 329 q 182 201 219 240 q 126 142 144 161 q -7 -25 43 50 q -17 -43 -11 -32 q -33 -69 -24 -54 q -53 -82 -39 -82 m 332 354 q 514 372 413 365 q 742 381 615 378 q 783 505 763 444 q 824 621 804 565 q 886 804 847 682 q 587 599 725 711 q 332 354 449 486 m 933 950 q 844 972 875 950 q 814 1031 814 994 q 820 1067 814 1051 q 843 1083 826 1083 q 856 1071 856 1083 q 854 1058 856 1064 q 853 1044 853 1051 q 873 1006 853 1018 q 947 993 893 993 q 1039 1013 996 993 q 1104 1071 1082 1033 q 1116 1081 1108 1078 q 1129 1083 1124 1083 q 1142 1079 1136 1083 q 1144 1069 1147 1075 q 1065 981 1125 1013 q 933 950 1006 950 z "},"Ắ":{"ha":869,"x_min":-76,"x_max":1147,"o":"m -53 -82 q -76 -60 -76 -82 q -75 -49 -76 -51 q 204 288 -24 64 q 192 285 197 286 q 183 285 186 285 q 160 311 160 285 q 183 331 160 326 q 213 335 197 333 q 254 343 229 338 q 578 644 422 518 q 878 850 735 769 q 900 862 890 857 q 917 867 910 867 q 933 844 933 867 q 850 558 933 803 l 789 379 q 825 357 825 379 q 778 332 825 332 q 728 173 751 260 q 690 -6 706 86 q 665 -35 685 -35 q 642 -10 642 -35 q 644 8 642 -6 q 653 44 647 22 q 683 178 669 125 q 706 267 696 231 q 725 335 717 304 q 275 297 469 329 q 182 201 219 240 q 126 142 144 161 q -7 -25 43 50 q -17 -43 -11 -32 q -33 -69 -24 -54 q -53 -82 -39 -82 m 332 354 q 514 372 413 365 q 742 381 615 378 q 783 505 763 444 q 824 621 804 565 q 886 804 847 682 q 587 599 725 711 q 332 354 449 486 m 933 950 q 844 972 875 950 q 814 1031 814 994 q 820 1067 814 1051 q 843 1083 826 1083 q 856 1071 856 1083 q 854 1058 856 1064 q 853 1044 853 1051 q 873 1006 853 1018 q 947 993 893 993 q 1039 1013 996 993 q 1104 1071 1082 1033 q 1116 1081 1108 1078 q 1129 1083 1124 1083 q 1142 1079 1136 1083 q 1144 1069 1147 1075 q 1065 981 1125 1013 q 933 950 1006 950 m 931 1118 q 917 1138 917 1124 q 925 1151 917 1147 q 970 1180 938 1160 q 1038 1223 1003 1200 q 1094 1260 1074 1246 q 1126 1268 1113 1272 q 1139 1247 1139 1261 q 1122 1224 1139 1233 q 1083 1201 1113 1218 q 1015 1162 1053 1183 q 943 1121 978 1140 q 931 1118 938 1118 z "},"Ặ":{"ha":869,"x_min":-76,"x_max":1147,"o":"m -53 -82 q -76 -60 -76 -82 q -75 -49 -76 -51 q 204 288 -24 64 q 192 285 197 286 q 183 285 186 285 q 160 311 160 285 q 183 331 160 326 q 213 335 197 333 q 254 343 229 338 q 578 644 422 518 q 878 850 735 769 q 900 862 890 857 q 917 867 910 867 q 933 844 933 867 q 850 558 933 803 l 789 379 q 825 357 825 379 q 778 332 825 332 q 728 173 751 260 q 690 -6 706 86 q 665 -35 685 -35 q 642 -10 642 -35 q 644 8 642 -6 q 653 44 647 22 q 683 178 669 125 q 706 267 696 231 q 725 335 717 304 q 275 297 469 329 q 182 201 219 240 q 126 142 144 161 q -7 -25 43 50 q -17 -43 -11 -32 q -33 -69 -24 -54 q -53 -82 -39 -82 m 332 354 q 514 372 413 365 q 742 381 615 378 q 783 505 763 444 q 824 621 804 565 q 886 804 847 682 q 587 599 725 711 q 332 354 449 486 m 286 -176 q 265 -165 276 -181 q 253 -135 253 -150 q 264 -111 253 -121 q 278 -100 275 -101 q 291 -98 285 -99 q 303 -97 297 -97 q 326 -117 326 -97 q 324 -132 326 -121 q 313 -156 321 -144 q 286 -176 306 -168 m 933 950 q 844 972 875 950 q 814 1031 814 994 q 820 1067 814 1051 q 843 1083 826 1083 q 856 1071 856 1083 q 854 1058 856 1064 q 853 1044 853 1051 q 873 1006 853 1018 q 947 993 893 993 q 1039 1013 996 993 q 1104 1071 1082 1033 q 1116 1081 1108 1078 q 1129 1083 1124 1083 q 1142 1079 1136 1083 q 1144 1069 1147 1075 q 1065 981 1125 1013 q 933 950 1006 950 z "},"Ằ":{"ha":869,"x_min":-76,"x_max":1147,"o":"m -53 -82 q -76 -60 -76 -82 q -75 -49 -76 -51 q 204 288 -24 64 q 192 285 197 286 q 183 285 186 285 q 160 311 160 285 q 183 331 160 326 q 213 335 197 333 q 254 343 229 338 q 578 644 422 518 q 878 850 735 769 q 900 862 890 857 q 917 867 910 867 q 933 844 933 867 q 850 558 933 803 l 789 379 q 825 357 825 379 q 778 332 825 332 q 728 173 751 260 q 690 -6 706 86 q 665 -35 685 -35 q 642 -10 642 -35 q 644 8 642 -6 q 653 44 647 22 q 683 178 669 125 q 706 267 696 231 q 725 335 717 304 q 275 297 469 329 q 182 201 219 240 q 126 142 144 161 q -7 -25 43 50 q -17 -43 -11 -32 q -33 -69 -24 -54 q -53 -82 -39 -82 m 332 354 q 514 372 413 365 q 742 381 615 378 q 783 505 763 444 q 824 621 804 565 q 886 804 847 682 q 587 599 725 711 q 332 354 449 486 m 933 950 q 844 972 875 950 q 814 1031 814 994 q 820 1067 814 1051 q 843 1083 826 1083 q 856 1071 856 1083 q 854 1058 856 1064 q 853 1044 853 1051 q 873 1006 853 1018 q 947 993 893 993 q 1039 1013 996 993 q 1104 1071 1082 1033 q 1116 1081 1108 1078 q 1129 1083 1124 1083 q 1142 1079 1136 1083 q 1144 1069 1147 1075 q 1065 981 1125 1013 q 933 950 1006 950 m 1036 1118 q 1024 1121 1029 1118 q 952 1162 990 1140 q 884 1201 914 1183 q 844 1224 854 1218 q 833 1233 839 1228 q 828 1244 828 1239 l 828 1247 q 840 1268 828 1261 q 844 1269 842 1268 q 847 1269 846 1269 q 872 1260 858 1269 q 929 1223 894 1246 q 997 1180 964 1200 q 1042 1151 1029 1160 q 1050 1140 1047 1147 l 1050 1138 q 1036 1118 1050 1124 z "},"Ẳ":{"ha":869,"x_min":-76,"x_max":1147,"o":"m -53 -82 q -76 -60 -76 -82 q -75 -49 -76 -51 q 204 288 -24 64 q 192 285 197 286 q 183 285 186 285 q 160 311 160 285 q 183 331 160 326 q 213 335 197 333 q 254 343 229 338 q 578 644 422 518 q 878 850 735 769 q 900 862 890 857 q 917 867 910 867 q 933 844 933 867 q 850 558 933 803 l 789 379 q 825 357 825 379 q 778 332 825 332 q 728 173 751 260 q 690 -6 706 86 q 665 -35 685 -35 q 642 -10 642 -35 q 644 8 642 -6 q 653 44 647 22 q 683 178 669 125 q 706 267 696 231 q 725 335 717 304 q 275 297 469 329 q 182 201 219 240 q 126 142 144 161 q -7 -25 43 50 q -17 -43 -11 -32 q -33 -69 -24 -54 q -53 -82 -39 -82 m 332 354 q 514 372 413 365 q 742 381 615 378 q 783 505 763 444 q 824 621 804 565 q 886 804 847 682 q 587 599 725 711 q 332 354 449 486 m 933 950 q 844 972 875 950 q 814 1031 814 994 q 820 1067 814 1051 q 843 1083 826 1083 q 856 1071 856 1083 q 854 1058 856 1064 q 853 1044 853 1051 q 873 1006 853 1018 q 947 993 893 993 q 1039 1013 996 993 q 1104 1071 1082 1033 q 1116 1081 1108 1078 q 1129 1083 1124 1083 q 1142 1079 1136 1083 q 1144 1069 1147 1075 q 1065 981 1125 1013 q 933 950 1006 950 m 1014 1115 q 997 1129 997 1115 q 1004 1143 997 1138 q 1053 1183 1029 1161 q 1076 1226 1076 1204 q 1043 1260 1076 1260 q 1002 1247 1025 1260 q 971 1233 979 1233 q 957 1247 957 1233 q 975 1271 957 1258 q 1012 1290 988 1279 q 1061 1300 1036 1300 q 1106 1281 1090 1300 q 1122 1236 1122 1261 q 1094 1172 1122 1199 q 1033 1122 1067 1146 q 1014 1115 1025 1115 z "},"Ẵ":{"ha":869,"x_min":-76,"x_max":1175,"o":"m -53 -82 q -76 -60 -76 -82 q -75 -49 -76 -51 q 204 288 -24 64 q 192 285 197 286 q 183 285 186 285 q 160 311 160 285 q 183 331 160 326 q 213 335 197 333 q 254 343 229 338 q 578 644 422 518 q 878 850 735 769 q 900 862 890 857 q 917 867 910 867 q 933 844 933 867 q 850 558 933 803 l 789 379 q 825 357 825 379 q 778 332 825 332 q 728 173 751 260 q 690 -6 706 86 q 665 -35 685 -35 q 642 -10 642 -35 q 644 8 642 -6 q 653 44 647 22 q 683 178 669 125 q 706 267 696 231 q 725 335 717 304 q 275 297 469 329 q 182 201 219 240 q 126 142 144 161 q -7 -25 43 50 q -17 -43 -11 -32 q -33 -69 -24 -54 q -53 -82 -39 -82 m 332 354 q 514 372 413 365 q 742 381 615 378 q 783 505 763 444 q 824 621 804 565 q 886 804 847 682 q 587 599 725 711 q 332 354 449 486 m 933 950 q 844 972 875 950 q 814 1031 814 994 q 820 1067 814 1051 q 843 1083 826 1083 q 856 1071 856 1083 q 854 1058 856 1064 q 853 1044 853 1051 q 873 1006 853 1018 q 947 993 893 993 q 1039 1013 996 993 q 1104 1071 1082 1033 q 1116 1081 1108 1078 q 1129 1083 1124 1083 q 1142 1079 1136 1083 q 1144 1069 1147 1075 q 1065 981 1125 1013 q 933 950 1006 950 m 853 1113 q 842 1116 847 1113 q 839 1129 836 1119 q 853 1160 843 1142 q 883 1192 863 1178 q 938 1206 904 1206 q 991 1196 963 1206 q 1045 1176 1019 1186 q 1089 1165 1071 1165 q 1124 1181 1113 1165 q 1142 1206 1135 1196 q 1156 1213 1149 1213 q 1169 1190 1175 1213 q 1142 1145 1163 1168 q 1082 1122 1121 1122 q 1033 1133 1063 1122 q 974 1153 1004 1143 q 922 1164 944 1164 q 892 1151 903 1164 q 872 1122 882 1138 q 853 1113 867 1113 z "},"Ǎ":{"ha":869,"x_min":-76,"x_max":1156,"o":"m 1138 1097 q 1150 1092 1144 1097 q 1156 1081 1156 1088 q 1150 1069 1156 1074 q 1127 1054 1147 1067 q 1077 1024 1107 1042 q 1017 990 1047 1007 q 963 961 986 972 q 931 950 939 950 q 903 965 922 950 q 864 1002 885 981 q 826 1043 843 1024 q 801 1072 808 1063 q 800 1081 800 1075 q 807 1092 800 1088 q 821 1097 814 1097 q 838 1089 832 1097 q 890 1040 861 1064 q 939 1000 918 1015 q 990 1025 960 1010 q 1050 1056 1019 1040 q 1103 1083 1081 1071 q 1131 1096 1126 1094 q 1138 1097 1133 1097 m -53 -82 q -76 -60 -76 -82 q -75 -49 -76 -51 q 204 288 -24 64 q 192 285 197 286 q 183 285 186 285 q 160 311 160 285 q 183 331 160 326 q 213 335 197 333 q 254 343 229 338 q 578 644 422 518 q 878 850 735 769 q 900 862 890 857 q 917 867 910 867 q 933 844 933 867 q 850 558 933 803 l 789 379 q 825 357 825 379 q 778 332 825 332 q 728 173 751 260 q 690 -6 706 86 q 665 -35 685 -35 q 642 -10 642 -35 q 644 8 642 -6 q 653 44 647 22 q 683 178 669 125 q 706 267 696 231 q 725 335 717 304 q 275 297 469 329 q 182 201 219 240 q 126 142 144 161 q -7 -25 43 50 q -17 -43 -11 -32 q -33 -69 -24 -54 q -53 -82 -39 -82 m 332 354 q 514 372 413 365 q 742 381 615 378 q 783 505 763 444 q 824 621 804 565 q 886 804 847 682 q 587 599 725 711 q 332 354 449 486 z "},"Â":{"ha":869,"x_min":-76,"x_max":1107,"o":"m -53 -82 q -76 -60 -76 -82 q -75 -49 -76 -51 q 204 288 -24 64 q 192 285 197 286 q 183 285 186 285 q 160 311 160 285 q 183 331 160 326 q 213 335 197 333 q 254 343 229 338 q 578 644 422 518 q 878 850 735 769 q 900 862 890 857 q 917 867 910 867 q 933 844 933 867 q 850 558 933 803 l 789 379 q 825 357 825 379 q 778 332 825 332 q 728 173 751 260 q 690 -6 706 86 q 665 -35 685 -35 q 642 -10 642 -35 q 644 8 642 -6 q 653 44 647 22 q 683 178 669 125 q 706 267 696 231 q 725 335 717 304 q 275 297 469 329 q 182 201 219 240 q 126 142 144 161 q -7 -25 43 50 q -17 -43 -11 -32 q -33 -69 -24 -54 q -53 -82 -39 -82 m 332 354 q 514 372 413 365 q 742 381 615 378 q 783 505 763 444 q 824 621 804 565 q 886 804 847 682 q 587 599 725 711 q 332 354 449 486 m 769 942 q 758 947 764 942 q 751 958 751 953 q 757 969 751 965 q 780 985 760 972 q 830 1015 800 997 q 890 1049 860 1032 q 944 1078 921 1067 q 976 1089 968 1089 q 1003 1074 985 1089 q 1043 1037 1022 1058 q 1081 996 1064 1015 q 1106 967 1099 976 q 1107 958 1107 964 q 1100 947 1107 951 q 1086 942 1093 942 q 1069 950 1076 942 q 1017 1000 1046 975 q 968 1039 989 1025 q 917 1015 947 1029 q 857 984 888 1000 q 803 957 826 968 q 776 943 781 946 q 769 942 774 942 z "},"Ấ":{"ha":869,"x_min":-76,"x_max":1332,"o":"m -53 -82 q -76 -60 -76 -82 q -75 -49 -76 -51 q 204 288 -24 64 q 192 285 197 286 q 183 285 186 285 q 160 311 160 285 q 183 331 160 326 q 213 335 197 333 q 254 343 229 338 q 578 644 422 518 q 878 850 735 769 q 900 862 890 857 q 917 867 910 867 q 933 844 933 867 q 850 558 933 803 l 789 379 q 825 357 825 379 q 778 332 825 332 q 728 173 751 260 q 690 -6 706 86 q 665 -35 685 -35 q 642 -10 642 -35 q 644 8 642 -6 q 653 44 647 22 q 683 178 669 125 q 706 267 696 231 q 725 335 717 304 q 275 297 469 329 q 182 201 219 240 q 126 142 144 161 q -7 -25 43 50 q -17 -43 -11 -32 q -33 -69 -24 -54 q -53 -82 -39 -82 m 332 354 q 514 372 413 365 q 742 381 615 378 q 783 505 763 444 q 824 621 804 565 q 886 804 847 682 q 587 599 725 711 q 332 354 449 486 m 769 942 q 758 947 764 942 q 751 958 751 953 q 757 969 751 965 q 780 985 760 972 q 830 1015 800 997 q 890 1049 860 1032 q 944 1078 921 1067 q 976 1089 968 1089 q 1003 1074 985 1089 q 1043 1037 1022 1058 q 1081 996 1064 1015 q 1106 967 1099 976 q 1107 958 1107 964 q 1100 947 1107 951 q 1086 942 1093 942 q 1069 950 1076 942 q 1017 1000 1046 975 q 968 1039 989 1025 q 917 1015 947 1029 q 857 984 888 1000 q 803 957 826 968 q 776 943 781 946 q 769 942 774 942 m 1124 1063 q 1110 1082 1110 1068 q 1118 1096 1110 1092 q 1163 1124 1131 1104 q 1231 1167 1196 1144 q 1288 1204 1267 1190 q 1319 1213 1306 1217 q 1332 1192 1332 1206 q 1315 1168 1332 1178 q 1276 1145 1306 1163 q 1208 1106 1246 1128 q 1136 1065 1171 1085 q 1124 1063 1131 1063 z "},"Ậ":{"ha":869,"x_min":-76,"x_max":1107,"o":"m -53 -82 q -76 -60 -76 -82 q -75 -49 -76 -51 q 204 288 -24 64 q 192 285 197 286 q 183 285 186 285 q 160 311 160 285 q 183 331 160 326 q 213 335 197 333 q 254 343 229 338 q 578 644 422 518 q 878 850 735 769 q 900 862 890 857 q 917 867 910 867 q 933 844 933 867 q 850 558 933 803 l 789 379 q 825 357 825 379 q 778 332 825 332 q 728 173 751 260 q 690 -6 706 86 q 665 -35 685 -35 q 642 -10 642 -35 q 644 8 642 -6 q 653 44 647 22 q 683 178 669 125 q 706 267 696 231 q 725 335 717 304 q 275 297 469 329 q 182 201 219 240 q 126 142 144 161 q -7 -25 43 50 q -17 -43 -11 -32 q -33 -69 -24 -54 q -53 -82 -39 -82 m 332 354 q 514 372 413 365 q 742 381 615 378 q 783 505 763 444 q 824 621 804 565 q 886 804 847 682 q 587 599 725 711 q 332 354 449 486 m 286 -176 q 265 -165 276 -181 q 253 -135 253 -150 q 264 -111 253 -121 q 278 -100 275 -101 q 291 -98 285 -99 q 303 -97 297 -97 q 326 -117 326 -97 q 324 -132 326 -121 q 313 -156 321 -144 q 286 -176 306 -168 m 769 942 q 758 947 764 942 q 751 958 751 953 q 757 969 751 965 q 780 985 760 972 q 830 1015 800 997 q 890 1049 860 1032 q 944 1078 921 1067 q 976 1089 968 1089 q 1003 1074 985 1089 q 1043 1037 1022 1058 q 1081 996 1064 1015 q 1106 967 1099 976 q 1107 958 1107 964 q 1100 947 1107 951 q 1086 942 1093 942 q 1069 950 1076 942 q 1017 1000 1046 975 q 968 1039 989 1025 q 917 1015 947 1029 q 857 984 888 1000 q 803 957 826 968 q 776 943 781 946 q 769 942 774 942 z "},"Ầ":{"ha":869,"x_min":-76,"x_max":1144,"o":"m -53 -82 q -76 -60 -76 -82 q -75 -49 -76 -51 q 204 288 -24 64 q 192 285 197 286 q 183 285 186 285 q 160 311 160 285 q 183 331 160 326 q 213 335 197 333 q 254 343 229 338 q 578 644 422 518 q 878 850 735 769 q 900 862 890 857 q 917 867 910 867 q 933 844 933 867 q 850 558 933 803 l 789 379 q 825 357 825 379 q 778 332 825 332 q 728 173 751 260 q 690 -6 706 86 q 665 -35 685 -35 q 642 -10 642 -35 q 644 8 642 -6 q 653 44 647 22 q 683 178 669 125 q 706 267 696 231 q 725 335 717 304 q 275 297 469 329 q 182 201 219 240 q 126 142 144 161 q -7 -25 43 50 q -17 -43 -11 -32 q -33 -69 -24 -54 q -53 -82 -39 -82 m 332 354 q 514 372 413 365 q 742 381 615 378 q 783 505 763 444 q 824 621 804 565 q 886 804 847 682 q 587 599 725 711 q 332 354 449 486 m 769 942 q 758 947 764 942 q 751 958 751 953 q 757 969 751 965 q 780 985 760 972 q 830 1015 800 997 q 890 1049 860 1032 q 944 1078 921 1067 q 976 1089 968 1089 q 1003 1074 985 1089 q 1043 1037 1022 1058 q 1081 996 1064 1015 q 1106 967 1099 976 q 1107 958 1107 964 q 1100 947 1107 951 q 1086 942 1093 942 q 1069 950 1076 942 q 1017 1000 1046 975 q 968 1039 989 1025 q 917 1015 947 1029 q 857 984 888 1000 q 803 957 826 968 q 776 943 781 946 q 769 942 774 942 m 1131 1076 q 1118 1079 1124 1076 q 1047 1120 1085 1099 q 978 1159 1008 1142 q 939 1182 949 1176 q 928 1192 933 1186 q 922 1203 922 1197 l 922 1206 q 935 1226 922 1219 q 938 1227 936 1226 q 942 1228 940 1228 q 967 1218 953 1228 q 1024 1181 989 1204 q 1091 1138 1058 1158 q 1136 1110 1124 1118 q 1144 1099 1142 1106 l 1144 1096 q 1131 1076 1144 1082 z "},"Ẩ":{"ha":869,"x_min":-76,"x_max":1218,"o":"m -53 -82 q -76 -60 -76 -82 q -75 -49 -76 -51 q 204 288 -24 64 q 192 285 197 286 q 183 285 186 285 q 160 311 160 285 q 183 331 160 326 q 213 335 197 333 q 254 343 229 338 q 578 644 422 518 q 878 850 735 769 q 900 862 890 857 q 917 867 910 867 q 933 844 933 867 q 850 558 933 803 l 789 379 q 825 357 825 379 q 778 332 825 332 q 728 173 751 260 q 690 -6 706 86 q 665 -35 685 -35 q 642 -10 642 -35 q 644 8 642 -6 q 653 44 647 22 q 683 178 669 125 q 706 267 696 231 q 725 335 717 304 q 275 297 469 329 q 182 201 219 240 q 126 142 144 161 q -7 -25 43 50 q -17 -43 -11 -32 q -33 -69 -24 -54 q -53 -82 -39 -82 m 332 354 q 514 372 413 365 q 742 381 615 378 q 783 505 763 444 q 824 621 804 565 q 886 804 847 682 q 587 599 725 711 q 332 354 449 486 m 769 942 q 758 947 764 942 q 751 958 751 953 q 757 969 751 965 q 780 985 760 972 q 830 1015 800 997 q 890 1049 860 1032 q 944 1078 921 1067 q 976 1089 968 1089 q 1003 1074 985 1089 q 1043 1037 1022 1058 q 1081 996 1064 1015 q 1106 967 1099 976 q 1107 958 1107 964 q 1100 947 1107 951 q 1086 942 1093 942 q 1069 950 1076 942 q 1017 1000 1046 975 q 968 1039 989 1025 q 917 1015 947 1029 q 857 984 888 1000 q 803 957 826 968 q 776 943 781 946 q 769 942 774 942 m 1110 1065 q 1093 1079 1093 1065 q 1100 1093 1093 1088 q 1149 1133 1125 1111 q 1172 1176 1172 1154 q 1139 1210 1172 1210 q 1098 1197 1121 1210 q 1067 1183 1075 1183 q 1053 1197 1053 1183 q 1071 1221 1053 1208 q 1108 1240 1083 1229 q 1157 1250 1132 1250 q 1202 1231 1186 1250 q 1218 1186 1218 1211 q 1190 1122 1218 1149 q 1129 1072 1163 1096 q 1110 1065 1121 1065 z "},"Ẫ":{"ha":869,"x_min":-76,"x_max":1201,"o":"m -53 -82 q -76 -60 -76 -82 q -75 -49 -76 -51 q 204 288 -24 64 q 192 285 197 286 q 183 285 186 285 q 160 311 160 285 q 183 331 160 326 q 213 335 197 333 q 254 343 229 338 q 578 644 422 518 q 878 850 735 769 q 900 862 890 857 q 917 867 910 867 q 933 844 933 867 q 850 558 933 803 l 789 379 q 825 357 825 379 q 778 332 825 332 q 728 173 751 260 q 690 -6 706 86 q 665 -35 685 -35 q 642 -10 642 -35 q 644 8 642 -6 q 653 44 647 22 q 683 178 669 125 q 706 267 696 231 q 725 335 717 304 q 275 297 469 329 q 182 201 219 240 q 126 142 144 161 q -7 -25 43 50 q -17 -43 -11 -32 q -33 -69 -24 -54 q -53 -82 -39 -82 m 332 354 q 514 372 413 365 q 742 381 615 378 q 783 505 763 444 q 824 621 804 565 q 886 804 847 682 q 587 599 725 711 q 332 354 449 486 m 769 942 q 758 947 764 942 q 751 958 751 953 q 757 969 751 965 q 780 985 760 972 q 830 1015 800 997 q 890 1049 860 1032 q 944 1078 921 1067 q 976 1089 968 1089 q 1003 1074 985 1089 q 1043 1037 1022 1058 q 1081 996 1064 1015 q 1106 967 1099 976 q 1107 958 1107 964 q 1100 947 1107 951 q 1086 942 1093 942 q 1069 950 1076 942 q 1017 1000 1046 975 q 968 1039 989 1025 q 917 1015 947 1029 q 857 984 888 1000 q 803 957 826 968 q 776 943 781 946 q 769 942 774 942 m 879 1118 q 868 1122 874 1118 q 865 1135 863 1125 q 879 1165 869 1147 q 910 1197 889 1183 q 964 1211 931 1211 q 1017 1201 989 1211 q 1072 1181 1046 1192 q 1115 1171 1097 1171 q 1150 1186 1139 1171 q 1168 1211 1161 1201 q 1182 1218 1175 1218 q 1196 1196 1201 1218 q 1168 1151 1189 1174 q 1108 1128 1147 1128 q 1060 1138 1089 1128 q 1001 1159 1031 1149 q 949 1169 971 1169 q 919 1156 929 1169 q 899 1128 908 1143 q 879 1118 893 1118 z "},"Ȁ":{"ha":869,"x_min":-76,"x_max":974,"o":"m -53 -82 q -76 -60 -76 -82 q -75 -49 -76 -51 q 204 288 -24 64 q 192 285 197 286 q 183 285 186 285 q 160 311 160 285 q 183 331 160 326 q 213 335 197 333 q 254 343 229 338 q 578 644 422 518 q 878 850 735 769 q 900 862 890 857 q 917 867 910 867 q 933 844 933 867 q 850 558 933 803 l 789 379 q 825 357 825 379 q 778 332 825 332 q 728 173 751 260 q 690 -6 706 86 q 665 -35 685 -35 q 642 -10 642 -35 q 644 8 642 -6 q 653 44 647 22 q 683 178 669 125 q 706 267 696 231 q 725 335 717 304 q 275 297 469 329 q 182 201 219 240 q 126 142 144 161 q -7 -25 43 50 q -17 -43 -11 -32 q -33 -69 -24 -54 q -53 -82 -39 -82 m 332 354 q 514 372 413 365 q 742 381 615 378 q 783 505 763 444 q 824 621 804 565 q 886 804 847 682 q 587 599 725 711 q 332 354 449 486 m 954 947 q 943 953 949 947 q 869 1035 904 996 q 822 1089 833 1075 q 815 1100 818 1094 q 811 1111 811 1106 q 818 1124 811 1118 q 832 1132 825 1131 q 847 1127 839 1132 q 860 1115 854 1122 q 898 1067 876 1094 q 940 1014 919 1039 q 969 976 960 989 q 974 963 974 968 q 954 947 971 947 m 865 944 q 854 949 861 944 q 772 1024 811 988 q 719 1072 732 1060 q 707 1093 707 1085 q 713 1107 707 1100 q 725 1115 718 1114 l 728 1115 q 742 1111 735 1115 q 754 1101 749 1107 q 797 1058 772 1083 q 845 1009 822 1032 q 878 975 868 986 q 883 963 883 969 q 878 951 883 957 q 865 944 872 944 z "},"Ä":{"ha":869,"x_min":-76,"x_max":1057,"o":"m -53 -82 q -76 -60 -76 -82 q -75 -49 -76 -51 q 204 288 -24 64 q 192 285 197 286 q 183 285 186 285 q 160 311 160 285 q 183 331 160 326 q 213 335 197 333 q 254 343 229 338 q 578 644 422 518 q 878 850 735 769 q 900 862 890 857 q 917 867 910 867 q 933 844 933 867 q 850 558 933 803 l 789 379 q 825 357 825 379 q 778 332 825 332 q 728 173 751 260 q 690 -6 706 86 q 665 -35 685 -35 q 642 -10 642 -35 q 644 8 642 -6 q 653 44 647 22 q 683 178 669 125 q 706 267 696 231 q 725 335 717 304 q 275 297 469 329 q 182 201 219 240 q 126 142 144 161 q -7 -25 43 50 q -17 -43 -11 -32 q -33 -69 -24 -54 q -53 -82 -39 -82 m 332 354 q 514 372 413 365 q 742 381 615 378 q 783 505 763 444 q 824 621 804 565 q 886 804 847 682 q 587 599 725 711 q 332 354 449 486 m 1017 950 q 995 961 1007 946 q 983 992 983 976 q 994 1015 983 1006 q 1008 1026 1006 1025 q 1022 1028 1015 1028 q 1033 1029 1028 1029 q 1057 1010 1057 1029 q 1054 994 1057 1006 q 1044 970 1051 982 q 1017 950 1036 958 m 856 950 q 834 961 846 946 q 822 992 822 976 q 833 1015 822 1006 q 847 1026 844 1025 q 860 1028 854 1028 q 872 1029 867 1029 q 896 1010 896 1029 q 893 994 896 1006 q 883 970 890 982 q 856 950 875 958 z "},"Ạ":{"ha":869,"x_min":-76,"x_max":933,"o":"m -53 -82 q -76 -60 -76 -82 q -75 -49 -76 -51 q 204 288 -24 64 q 192 285 197 286 q 183 285 186 285 q 160 311 160 285 q 183 331 160 326 q 213 335 197 333 q 254 343 229 338 q 578 644 422 518 q 878 850 735 769 q 900 862 890 857 q 917 867 910 867 q 933 844 933 867 q 850 558 933 803 l 789 379 q 825 357 825 379 q 778 332 825 332 q 728 173 751 260 q 690 -6 706 86 q 665 -35 685 -35 q 642 -10 642 -35 q 644 8 642 -6 q 653 44 647 22 q 683 178 669 125 q 706 267 696 231 q 725 335 717 304 q 275 297 469 329 q 182 201 219 240 q 126 142 144 161 q -7 -25 43 50 q -17 -43 -11 -32 q -33 -69 -24 -54 q -53 -82 -39 -82 m 332 354 q 514 372 413 365 q 742 381 615 378 q 783 505 763 444 q 824 621 804 565 q 886 804 847 682 q 587 599 725 711 q 332 354 449 486 m 286 -176 q 265 -165 276 -181 q 253 -135 253 -150 q 264 -111 253 -121 q 278 -100 275 -101 q 291 -98 285 -99 q 303 -97 297 -97 q 326 -117 326 -97 q 324 -132 326 -121 q 313 -156 321 -144 q 286 -176 306 -168 z "},"À":{"ha":869,"x_min":-76,"x_max":992,"o":"m -53 -82 q -76 -60 -76 -82 q -75 -49 -76 -51 q 204 288 -24 64 q 192 285 197 286 q 183 285 186 285 q 160 311 160 285 q 183 331 160 326 q 213 335 197 333 q 254 343 229 338 q 578 644 422 518 q 878 850 735 769 q 900 862 890 857 q 917 867 910 867 q 933 844 933 867 q 850 558 933 803 l 789 379 q 825 357 825 379 q 778 332 825 332 q 728 173 751 260 q 690 -6 706 86 q 665 -35 685 -35 q 642 -10 642 -35 q 644 8 642 -6 q 653 44 647 22 q 683 178 669 125 q 706 267 696 231 q 725 335 717 304 q 275 297 469 329 q 182 201 219 240 q 126 142 144 161 q -7 -25 43 50 q -17 -43 -11 -32 q -33 -69 -24 -54 q -53 -82 -39 -82 m 332 354 q 514 372 413 365 q 742 381 615 378 q 783 505 763 444 q 824 621 804 565 q 886 804 847 682 q 587 599 725 711 q 332 354 449 486 m 978 950 q 965 953 971 950 q 894 994 932 972 q 826 1033 856 1015 q 786 1056 796 1050 q 775 1065 781 1060 q 769 1076 769 1071 l 769 1079 q 782 1100 769 1093 q 785 1101 783 1100 q 789 1101 788 1101 q 814 1092 800 1101 q 871 1055 836 1078 q 938 1012 906 1032 q 983 983 971 992 q 992 972 989 979 l 992 969 q 978 950 992 956 z "},"Ả":{"ha":869,"x_min":-76,"x_max":1064,"o":"m -53 -82 q -76 -60 -76 -82 q -75 -49 -76 -51 q 204 288 -24 64 q 192 285 197 286 q 183 285 186 285 q 160 311 160 285 q 183 331 160 326 q 213 335 197 333 q 254 343 229 338 q 578 644 422 518 q 878 850 735 769 q 900 862 890 857 q 917 867 910 867 q 933 844 933 867 q 850 558 933 803 l 789 379 q 825 357 825 379 q 778 332 825 332 q 728 173 751 260 q 690 -6 706 86 q 665 -35 685 -35 q 642 -10 642 -35 q 644 8 642 -6 q 653 44 647 22 q 683 178 669 125 q 706 267 696 231 q 725 335 717 304 q 275 297 469 329 q 182 201 219 240 q 126 142 144 161 q -7 -25 43 50 q -17 -43 -11 -32 q -33 -69 -24 -54 q -53 -82 -39 -82 m 332 354 q 514 372 413 365 q 742 381 615 378 q 783 505 763 444 q 824 621 804 565 q 886 804 847 682 q 587 599 725 711 q 332 354 449 486 m 956 947 q 939 961 939 947 q 946 975 939 969 q 994 1015 971 993 q 1018 1058 1018 1036 q 985 1092 1018 1092 q 944 1078 967 1092 q 913 1065 921 1065 q 899 1079 899 1065 q 917 1103 899 1090 q 953 1122 929 1111 q 1003 1132 978 1132 q 1048 1113 1032 1132 q 1064 1068 1064 1093 q 1036 1004 1064 1031 q 975 954 1008 978 q 956 947 967 947 z "},"Ȃ":{"ha":869,"x_min":-76,"x_max":1086,"o":"m 967 1074 q 1056 1051 1025 1074 q 1086 993 1086 1029 q 1080 956 1086 972 q 1057 940 1074 940 q 1044 953 1044 940 q 1046 967 1044 960 q 1047 979 1047 974 q 1027 1019 1047 1007 q 953 1031 1007 1031 q 861 1010 904 1031 q 796 953 818 990 q 785 943 792 946 q 771 940 778 940 q 760 944 765 940 q 756 954 754 949 q 835 1042 775 1011 q 967 1074 894 1074 m -53 -82 q -76 -60 -76 -82 q -75 -49 -76 -51 q 204 288 -24 64 q 192 285 197 286 q 183 285 186 285 q 160 311 160 285 q 183 331 160 326 q 213 335 197 333 q 254 343 229 338 q 578 644 422 518 q 878 850 735 769 q 900 862 890 857 q 917 867 910 867 q 933 844 933 867 q 850 558 933 803 l 789 379 q 825 357 825 379 q 778 332 825 332 q 728 173 751 260 q 690 -6 706 86 q 665 -35 685 -35 q 642 -10 642 -35 q 644 8 642 -6 q 653 44 647 22 q 683 178 669 125 q 706 267 696 231 q 725 335 717 304 q 275 297 469 329 q 182 201 219 240 q 126 142 144 161 q -7 -25 43 50 q -17 -43 -11 -32 q -33 -69 -24 -54 q -53 -82 -39 -82 m 332 354 q 514 372 413 365 q 742 381 615 378 q 783 505 763 444 q 824 621 804 565 q 886 804 847 682 q 587 599 725 711 q 332 354 449 486 z "},"Ā":{"ha":869,"x_min":-76,"x_max":1086,"o":"m -53 -82 q -76 -60 -76 -82 q -75 -49 -76 -51 q 204 288 -24 64 q 192 285 197 286 q 183 285 186 285 q 160 311 160 285 q 183 331 160 326 q 213 335 197 333 q 254 343 229 338 q 578 644 422 518 q 878 850 735 769 q 900 862 890 857 q 917 867 910 867 q 933 844 933 867 q 850 558 933 803 l 789 379 q 825 357 825 379 q 778 332 825 332 q 728 173 751 260 q 690 -6 706 86 q 665 -35 685 -35 q 642 -10 642 -35 q 644 8 642 -6 q 653 44 647 22 q 683 178 669 125 q 706 267 696 231 q 725 335 717 304 q 275 297 469 329 q 182 201 219 240 q 126 142 144 161 q -7 -25 43 50 q -17 -43 -11 -32 q -33 -69 -24 -54 q -53 -82 -39 -82 m 332 354 q 514 372 413 365 q 742 381 615 378 q 783 505 763 444 q 824 621 804 565 q 886 804 847 682 q 587 599 725 711 q 332 354 449 486 m 781 950 q 765 954 772 950 q 758 967 758 958 q 765 981 758 974 q 781 989 771 988 q 814 991 790 990 q 866 992 838 992 q 917 992 894 992 q 969 992 940 992 q 1026 991 999 992 q 1067 989 1053 990 q 1086 968 1086 986 q 1067 950 1086 950 q 998 952 1040 951 q 926 953 956 953 q 853 952 896 953 q 781 950 810 951 z "},"Ą":{"ha":869,"x_min":-76,"x_max":933,"o":"m -53 -82 q -76 -60 -76 -82 q -75 -49 -76 -51 q 204 288 -24 64 q 192 285 197 286 q 183 285 186 285 q 160 311 160 285 q 183 331 160 326 q 213 335 197 333 q 254 343 229 338 q 578 644 422 518 q 878 850 735 769 q 900 862 890 857 q 917 867 910 867 q 933 844 933 867 q 850 558 933 803 l 789 379 q 825 357 825 379 q 778 332 825 332 q 728 173 751 260 q 690 -6 706 86 q 665 -35 685 -35 q 642 -10 642 -35 q 644 8 642 -6 q 653 44 647 22 q 683 178 669 125 q 706 267 696 231 q 725 335 717 304 q 275 297 469 329 q 182 201 219 240 q 126 142 144 161 q -7 -25 43 50 q -17 -43 -11 -32 q -33 -69 -24 -54 q -53 -82 -39 -82 m 332 354 q 514 372 413 365 q 742 381 615 378 q 783 505 763 444 q 824 621 804 565 q 886 804 847 682 q 587 599 725 711 q 332 354 449 486 m 668 -225 q 603 -201 629 -225 q 578 -147 578 -178 q 592 -86 578 -115 q 623 -35 606 -57 q 650 -7 640 -14 q 669 0 658 0 q 686 -12 686 0 q 681 -24 686 -18 q 643 -72 664 -42 q 622 -132 622 -103 q 640 -171 622 -157 q 683 -185 657 -185 q 716 -181 700 -185 q 743 -171 732 -176 q 754 -168 751 -168 q 768 -182 768 -168 q 760 -199 768 -192 q 725 -216 750 -207 q 668 -225 700 -225 z "},"Å":{"ha":869,"x_min":-76,"x_max":1049,"o":"m -53 -82 q -76 -60 -76 -82 q -75 -49 -76 -51 q 204 288 -24 64 q 192 285 197 286 q 183 285 186 285 q 160 311 160 285 q 183 331 160 326 q 213 335 197 333 q 254 343 229 338 q 578 644 422 518 q 878 850 735 769 q 900 862 890 857 q 917 867 910 867 q 933 844 933 867 q 850 558 933 803 l 789 379 q 825 357 825 379 q 778 332 825 332 q 728 173 751 260 q 690 -6 706 86 q 665 -35 685 -35 q 642 -10 642 -35 q 644 8 642 -6 q 653 44 647 22 q 683 178 669 125 q 706 267 696 231 q 725 335 717 304 q 275 297 469 329 q 182 201 219 240 q 126 142 144 161 q -7 -25 43 50 q -17 -43 -11 -32 q -33 -69 -24 -54 q -53 -82 -39 -82 m 332 354 q 514 372 413 365 q 742 381 615 378 q 783 505 763 444 q 824 621 804 565 q 886 804 847 682 q 587 599 725 711 q 332 354 449 486 m 925 950 q 874 971 890 950 q 857 1019 857 992 q 886 1092 857 1057 q 971 1128 915 1128 q 1029 1106 1010 1128 q 1049 1056 1049 1085 q 1017 984 1049 1018 q 925 950 986 950 m 943 985 q 990 1004 975 985 q 1006 1047 1006 1024 q 965 1090 1006 1090 q 917 1070 935 1090 q 899 1025 899 1050 q 913 996 899 1007 q 943 985 926 985 z "},"Ǻ":{"ha":869,"x_min":-76,"x_max":1117,"o":"m -53 -82 q -76 -60 -76 -82 q -75 -49 -76 -51 q 204 288 -24 64 q 192 285 197 286 q 183 285 186 285 q 160 311 160 285 q 183 331 160 326 q 213 335 197 333 q 254 343 229 338 q 578 644 422 518 q 878 850 735 769 q 900 862 890 857 q 917 867 910 867 q 933 844 933 867 q 850 558 933 803 l 789 379 q 825 357 825 379 q 778 332 825 332 q 728 173 751 260 q 690 -6 706 86 q 665 -35 685 -35 q 642 -10 642 -35 q 644 8 642 -6 q 653 44 647 22 q 683 178 669 125 q 706 267 696 231 q 725 335 717 304 q 275 297 469 329 q 182 201 219 240 q 126 142 144 161 q -7 -25 43 50 q -17 -43 -11 -32 q -33 -69 -24 -54 q -53 -82 -39 -82 m 332 354 q 514 372 413 365 q 742 381 615 378 q 783 505 763 444 q 824 621 804 565 q 886 804 847 682 q 587 599 725 711 q 332 354 449 486 m 925 950 q 874 971 890 950 q 857 1019 857 992 q 886 1092 857 1057 q 971 1128 915 1128 q 1029 1106 1010 1128 q 1049 1056 1049 1085 q 1017 984 1049 1018 q 925 950 986 950 m 943 985 q 990 1004 975 985 q 1006 1047 1006 1024 q 965 1090 1006 1090 q 917 1070 935 1090 q 899 1025 899 1050 q 913 996 899 1007 q 943 985 926 985 m 908 1167 q 894 1186 894 1172 q 903 1200 894 1196 q 948 1228 915 1208 q 1016 1272 981 1249 q 1072 1308 1051 1294 q 1104 1317 1090 1321 q 1117 1296 1117 1310 q 1100 1272 1117 1282 q 1060 1249 1090 1267 q 993 1210 1031 1232 q 921 1169 956 1189 q 908 1167 915 1167 z "},"Ã":{"ha":869,"x_min":-76,"x_max":1117,"o":"m -53 -82 q -76 -60 -76 -82 q -75 -49 -76 -51 q 204 288 -24 64 q 192 285 197 286 q 183 285 186 285 q 160 311 160 285 q 183 331 160 326 q 213 335 197 333 q 254 343 229 338 q 578 644 422 518 q 878 850 735 769 q 900 862 890 857 q 917 867 910 867 q 933 844 933 867 q 850 558 933 803 l 789 379 q 825 357 825 379 q 778 332 825 332 q 728 173 751 260 q 690 -6 706 86 q 665 -35 685 -35 q 642 -10 642 -35 q 644 8 642 -6 q 653 44 647 22 q 683 178 669 125 q 706 267 696 231 q 725 335 717 304 q 275 297 469 329 q 182 201 219 240 q 126 142 144 161 q -7 -25 43 50 q -17 -43 -11 -32 q -33 -69 -24 -54 q -53 -82 -39 -82 m 332 354 q 514 372 413 365 q 742 381 615 378 q 783 505 763 444 q 824 621 804 565 q 886 804 847 682 q 587 599 725 711 q 332 354 449 486 m 794 944 q 783 948 789 944 q 781 961 778 951 q 794 992 785 974 q 825 1024 804 1010 q 879 1038 846 1038 q 933 1028 904 1038 q 987 1008 961 1018 q 1031 997 1013 997 q 1065 1013 1054 997 q 1083 1038 1076 1028 q 1097 1044 1090 1044 q 1111 1022 1117 1044 q 1083 977 1104 1000 q 1024 954 1063 954 q 975 965 1004 954 q 916 985 946 975 q 864 996 886 996 q 834 983 844 996 q 814 954 824 969 q 794 944 808 944 z "},"B":{"ha":968,"x_min":11,"x_max":1113,"o":"m 47 -103 q 25 -81 25 -103 q 35 -36 25 -65 q 11 -15 11 -36 q 51 7 11 10 q 306 476 103 132 q 415 660 358 567 q 532 846 472 753 q 357 796 344 796 q 335 819 335 796 q 350 839 335 832 q 428 866 374 850 q 567 903 482 882 q 590 939 579 922 q 610 968 600 956 q 651 1007 639 1007 q 674 988 674 1007 q 658 957 674 979 q 629 911 643 935 q 713 926 663 917 q 836 935 763 935 q 1113 808 1113 935 q 1079 713 1113 757 q 990 633 1046 669 q 865 569 933 597 q 728 519 797 540 q 933 326 933 472 q 888 189 933 250 q 769 83 843 128 q 607 11 696 39 q 186 -44 426 -44 q 83 -40 136 -44 q 69 -81 69 -69 q 47 -103 69 -103 m 196 0 q 583 50 413 0 q 733 114 663 74 q 847 209 803 154 q 890 328 890 264 q 772 461 890 415 q 578 494 683 494 q 508 490 542 494 q 467 481 471 481 q 446 504 446 481 q 468 524 446 524 q 792 588 610 524 q 922 644 858 611 q 1026 717 985 676 q 1067 804 1067 758 q 836 888 1067 888 q 723 881 782 888 q 599 860 664 874 q 308 390 433 604 q 101 3 183 176 q 129 1 113 1 q 196 0 146 0 z "},"C":{"ha":1100,"x_min":117,"x_max":1196,"o":"m 533 -62 q 313 -19 407 -62 q 168 109 219 25 q 117 311 117 193 q 159 515 117 422 q 282 688 201 608 q 567 869 404 806 q 904 933 731 933 q 1056 903 990 933 q 1158 824 1121 874 q 1196 714 1196 774 q 1178 642 1196 675 q 1138 590 1160 610 q 1101 571 1115 571 q 1079 581 1090 571 q 1068 599 1068 592 q 1088 622 1068 607 q 1126 663 1107 638 q 1144 726 1144 689 q 1110 815 1144 776 q 1016 874 1076 853 q 878 896 956 896 q 578 831 724 896 q 322 658 432 767 q 207 497 246 582 q 168 301 168 413 q 219 123 168 194 q 356 16 269 51 q 549 -19 442 -19 q 808 19 671 -19 q 944 70 889 42 q 1028 124 1000 99 q 1067 158 1054 147 q 1088 169 1079 169 q 1097 157 1097 169 q 1081 122 1097 143 q 1046 86 1065 101 q 923 19 997 49 q 775 -31 849 -11 q 650 -55 710 -47 q 533 -62 590 -62 z "},"Ć":{"ha":1100,"x_min":117,"x_max":1196,"o":"m 533 -62 q 313 -19 407 -62 q 168 109 219 25 q 117 311 117 193 q 159 515 117 422 q 282 688 201 608 q 567 869 404 806 q 904 933 731 933 q 1056 903 990 933 q 1158 824 1121 874 q 1196 714 1196 774 q 1178 642 1196 675 q 1138 590 1160 610 q 1101 571 1115 571 q 1079 581 1090 571 q 1068 599 1068 592 q 1088 622 1068 607 q 1126 663 1107 638 q 1144 726 1144 689 q 1110 815 1144 776 q 1016 874 1076 853 q 878 896 956 896 q 578 831 724 896 q 322 658 432 767 q 207 497 246 582 q 168 301 168 413 q 219 123 168 194 q 356 16 269 51 q 549 -19 442 -19 q 808 19 671 -19 q 944 70 889 42 q 1028 124 1000 99 q 1067 158 1054 147 q 1088 169 1079 169 q 1097 157 1097 169 q 1081 122 1097 143 q 1046 86 1065 101 q 923 19 997 49 q 775 -31 849 -11 q 650 -55 710 -47 q 533 -62 590 -62 m 860 1017 q 846 1036 846 1022 q 854 1050 846 1046 q 899 1078 867 1058 q 967 1122 932 1099 q 1024 1158 1003 1144 q 1056 1167 1042 1171 q 1068 1146 1068 1160 q 1051 1122 1068 1132 q 1012 1099 1042 1117 q 944 1060 982 1082 q 872 1019 907 1039 q 860 1017 867 1017 z "},"Č":{"ha":1100,"x_min":117,"x_max":1196,"o":"m 1125 1164 q 1138 1159 1132 1164 q 1143 1147 1143 1154 q 1138 1136 1143 1140 q 1115 1121 1135 1133 q 1065 1091 1094 1108 q 1004 1056 1035 1074 q 950 1028 974 1039 q 918 1017 926 1017 q 891 1032 910 1017 q 851 1069 872 1047 q 813 1110 831 1090 q 789 1139 796 1129 q 788 1147 788 1142 q 794 1159 788 1154 q 808 1164 801 1164 q 825 1156 819 1164 q 877 1106 849 1131 q 926 1067 906 1082 q 977 1092 947 1076 q 1038 1122 1007 1107 q 1091 1149 1068 1138 q 1118 1163 1114 1161 q 1125 1164 1121 1164 m 533 -62 q 313 -19 407 -62 q 168 109 219 25 q 117 311 117 193 q 159 515 117 422 q 282 688 201 608 q 567 869 404 806 q 904 933 731 933 q 1056 903 990 933 q 1158 824 1121 874 q 1196 714 1196 774 q 1178 642 1196 675 q 1138 590 1160 610 q 1101 571 1115 571 q 1079 581 1090 571 q 1068 599 1068 592 q 1088 622 1068 607 q 1126 663 1107 638 q 1144 726 1144 689 q 1110 815 1144 776 q 1016 874 1076 853 q 878 896 956 896 q 578 831 724 896 q 322 658 432 767 q 207 497 246 582 q 168 301 168 413 q 219 123 168 194 q 356 16 269 51 q 549 -19 442 -19 q 808 19 671 -19 q 944 70 889 42 q 1028 124 1000 99 q 1067 158 1054 147 q 1088 169 1079 169 q 1097 157 1097 169 q 1081 122 1097 143 q 1046 86 1065 101 q 923 19 997 49 q 775 -31 849 -11 q 650 -55 710 -47 q 533 -62 590 -62 z "},"Ç":{"ha":1100,"x_min":117,"x_max":1196,"o":"m 533 -62 q 313 -19 407 -62 q 168 109 219 25 q 117 311 117 193 q 159 515 117 422 q 282 688 201 608 q 567 869 404 806 q 904 933 731 933 q 1056 903 990 933 q 1158 824 1121 874 q 1196 714 1196 774 q 1178 642 1196 675 q 1138 590 1160 610 q 1101 571 1115 571 q 1079 581 1090 571 q 1068 599 1068 592 q 1088 622 1068 607 q 1126 663 1107 638 q 1144 726 1144 689 q 1110 815 1144 776 q 1016 874 1076 853 q 878 896 956 896 q 578 831 724 896 q 322 658 432 767 q 207 497 246 582 q 168 301 168 413 q 219 123 168 194 q 356 16 269 51 q 549 -19 442 -19 q 808 19 671 -19 q 944 70 889 42 q 1028 124 1000 99 q 1067 158 1054 147 q 1088 169 1079 169 q 1097 157 1097 169 q 1081 122 1097 143 q 1046 86 1065 101 q 923 19 997 49 q 775 -31 849 -11 q 650 -55 710 -47 q 533 -62 590 -62 m 460 -292 q 431 -288 449 -292 q 400 -278 414 -285 q 381 -262 385 -269 q 376 -247 376 -254 q 385 -235 376 -237 q 400 -236 393 -232 q 428 -247 410 -242 q 460 -253 446 -253 q 505 -244 485 -253 q 525 -207 525 -236 q 513 -172 525 -186 q 488 -142 500 -158 q 475 -103 475 -126 q 498 -54 475 -75 q 550 -33 521 -33 q 561 -38 557 -33 q 565 -49 565 -43 q 560 -58 565 -57 q 532 -73 543 -67 q 521 -99 521 -79 q 533 -133 521 -118 q 558 -165 546 -147 q 571 -214 571 -182 q 540 -269 571 -246 q 460 -292 508 -292 z "},"Ĉ":{"ha":1100,"x_min":117,"x_max":1196,"o":"m 533 -62 q 313 -19 407 -62 q 168 109 219 25 q 117 311 117 193 q 159 515 117 422 q 282 688 201 608 q 567 869 404 806 q 904 933 731 933 q 1056 903 990 933 q 1158 824 1121 874 q 1196 714 1196 774 q 1178 642 1196 675 q 1138 590 1160 610 q 1101 571 1115 571 q 1079 581 1090 571 q 1068 599 1068 592 q 1088 622 1068 607 q 1126 663 1107 638 q 1144 726 1144 689 q 1110 815 1144 776 q 1016 874 1076 853 q 878 896 956 896 q 578 831 724 896 q 322 658 432 767 q 207 497 246 582 q 168 301 168 413 q 219 123 168 194 q 356 16 269 51 q 549 -19 442 -19 q 808 19 671 -19 q 944 70 889 42 q 1028 124 1000 99 q 1067 158 1054 147 q 1088 169 1079 169 q 1097 157 1097 169 q 1081 122 1097 143 q 1046 86 1065 101 q 923 19 997 49 q 775 -31 849 -11 q 650 -55 710 -47 q 533 -62 590 -62 m 757 1008 q 745 1014 751 1008 q 739 1025 739 1019 q 744 1036 739 1032 q 767 1051 747 1039 q 817 1081 788 1064 q 878 1116 847 1099 q 932 1144 908 1133 q 964 1156 956 1156 q 991 1140 972 1156 q 1031 1103 1010 1125 q 1069 1063 1051 1082 q 1093 1033 1086 1043 q 1094 1025 1094 1031 q 1088 1013 1094 1018 q 1074 1008 1081 1008 q 1057 1017 1064 1008 q 1005 1067 1033 1042 q 956 1106 976 1092 q 905 1081 935 1096 q 844 1051 875 1067 q 791 1024 814 1035 q 764 1010 768 1013 q 757 1008 761 1008 z "},"Ċ":{"ha":1100,"x_min":117,"x_max":1196,"o":"m 533 -62 q 313 -19 407 -62 q 168 109 219 25 q 117 311 117 193 q 159 515 117 422 q 282 688 201 608 q 567 869 404 806 q 904 933 731 933 q 1056 903 990 933 q 1158 824 1121 874 q 1196 714 1196 774 q 1178 642 1196 675 q 1138 590 1160 610 q 1101 571 1115 571 q 1079 581 1090 571 q 1068 599 1068 592 q 1088 622 1068 607 q 1126 663 1107 638 q 1144 726 1144 689 q 1110 815 1144 776 q 1016 874 1076 853 q 878 896 956 896 q 578 831 724 896 q 322 658 432 767 q 207 497 246 582 q 168 301 168 413 q 219 123 168 194 q 356 16 269 51 q 549 -19 442 -19 q 808 19 671 -19 q 944 70 889 42 q 1028 124 1000 99 q 1067 158 1054 147 q 1088 169 1079 169 q 1097 157 1097 169 q 1081 122 1097 143 q 1046 86 1065 101 q 923 19 997 49 q 775 -31 849 -11 q 650 -55 710 -47 q 533 -62 590 -62 m 917 1017 q 895 1028 907 1013 q 883 1058 883 1043 q 894 1082 883 1072 q 908 1093 906 1092 q 922 1095 915 1094 q 933 1096 928 1096 q 957 1076 957 1096 q 954 1061 957 1072 q 944 1037 951 1049 q 917 1017 936 1025 z "},"D":{"ha":1167,"x_min":46,"x_max":1188,"o":"m 69 -43 q 46 -8 46 -43 q 99 173 46 44 q 258 503 151 301 q 358 692 319 617 q 419 812 397 767 q 451 880 442 857 q 463 914 461 903 q 465 922 463 919 l 411 925 q 384 935 393 926 q 375 953 375 943 q 397 972 375 972 q 922 847 700 972 q 1113 684 1038 782 q 1188 463 1188 586 q 1132 290 1188 363 q 981 165 1076 218 q 767 71 886 113 q 588 17 686 43 q 394 -24 489 -8 q 228 -39 300 -39 q 150 -25 178 -39 q 121 8 121 -10 q 138 24 121 24 q 158 19 149 24 q 186 11 168 15 q 239 7 204 7 q 352 16 289 7 q 484 40 415 25 q 618 74 553 56 q 738 111 683 93 q 945 200 854 151 q 1088 315 1036 249 q 1139 476 1139 382 q 907 807 1139 675 q 506 919 753 893 q 511 904 511 913 q 491 847 511 892 q 438 740 471 803 q 369 608 406 678 q 300 478 333 539 q 90 -6 90 76 q 91 -14 90 -11 q 92 -22 92 -17 q 86 -36 92 -29 q 69 -43 81 -43 z "},"Ǆ":{"ha":1919,"x_min":46,"x_max":2049,"o":"m 2017 1074 q 2029 1069 2024 1074 q 2035 1057 2035 1064 q 2029 1046 2035 1050 q 2006 1031 2026 1043 q 1956 1001 1986 1018 q 1896 966 1926 983 q 1842 938 1865 949 q 1810 926 1818 926 q 1783 942 1801 926 q 1743 978 1764 957 q 1705 1019 1722 1000 q 1681 1049 1688 1039 q 1679 1057 1679 1051 q 1686 1069 1679 1064 q 1700 1074 1693 1074 q 1717 1065 1711 1074 q 1769 1016 1740 1040 q 1818 976 1797 992 q 1869 1001 1839 986 q 1929 1032 1899 1017 q 1983 1059 1960 1047 q 2010 1072 2006 1071 q 2017 1074 2013 1074 m 69 -43 q 46 -8 46 -43 q 99 173 46 44 q 258 503 151 301 q 358 692 319 617 q 419 812 397 767 q 451 880 442 857 q 463 914 461 903 q 465 922 463 919 l 411 925 q 384 935 393 926 q 375 953 375 943 q 397 972 375 972 q 922 847 700 972 q 1113 684 1038 782 q 1188 463 1188 586 q 1132 290 1188 363 q 981 165 1076 218 q 767 71 886 113 q 588 17 686 43 q 394 -24 489 -8 q 228 -39 300 -39 q 150 -25 178 -39 q 121 8 121 -10 q 138 24 121 24 q 158 19 149 24 q 186 11 168 15 q 239 7 204 7 q 352 16 289 7 q 484 40 415 25 q 618 74 553 56 q 738 111 683 93 q 945 200 854 151 q 1088 315 1036 249 q 1139 476 1139 382 q 907 807 1139 675 q 506 919 753 893 q 511 904 511 913 q 491 847 511 892 q 438 740 471 803 q 369 608 406 678 q 300 478 333 539 q 90 -6 90 76 q 91 -14 90 -11 q 92 -22 92 -17 q 86 -36 92 -29 q 69 -43 81 -43 m 1542 -10 q 1431 -4 1496 -10 q 1303 10 1367 1 q 1199 26 1240 18 q 1169 54 1169 33 q 1194 94 1169 65 q 1252 159 1218 124 q 1317 221 1286 194 q 1433 316 1363 261 q 1583 431 1503 371 q 1710 528 1657 486 q 1799 599 1764 571 q 1911 704 1864 656 q 1985 796 1958 753 l 1749 796 q 1684 792 1725 796 q 1583 778 1643 788 q 1544 771 1557 774 q 1522 768 1531 768 q 1493 796 1493 768 q 1507 813 1493 808 q 1546 819 1518 815 q 1609 828 1574 824 q 1678 835 1644 832 q 1735 840 1713 839 q 1850 844 1826 844 q 1893 846 1869 844 q 1940 847 1917 847 q 2022 838 1997 847 q 2049 810 2047 829 q 2035 778 2049 799 q 1999 729 2021 757 q 1859 590 1956 676 q 1618 396 1763 504 q 1486 297 1538 336 q 1415 243 1435 258 q 1233 68 1290 142 q 1392 44 1318 53 q 1531 36 1467 36 q 1595 42 1557 36 q 1685 58 1633 47 q 1828 79 1788 79 q 1849 70 1839 79 q 1860 50 1860 61 q 1856 42 1860 46 q 1842 32 1853 39 q 1542 -10 1769 -10 z "},"Ď":{"ha":1167,"x_min":46,"x_max":1188,"o":"m 1078 1190 q 1090 1185 1085 1190 q 1096 1174 1096 1181 q 1090 1163 1096 1167 q 1061 1142 1088 1160 q 1001 1101 1035 1124 q 938 1060 967 1078 q 899 1043 908 1043 q 874 1060 890 1043 q 842 1099 858 1076 q 813 1141 825 1122 q 797 1165 800 1160 q 796 1174 796 1168 q 803 1185 796 1181 q 817 1190 810 1190 q 833 1182 828 1190 q 907 1093 872 1129 q 971 1127 935 1106 q 1036 1167 1007 1149 q 1071 1189 1065 1186 q 1078 1190 1074 1190 m 69 -43 q 46 -8 46 -43 q 99 173 46 44 q 258 503 151 301 q 358 692 319 617 q 419 812 397 767 q 451 880 442 857 q 463 914 461 903 q 465 922 463 919 l 411 925 q 384 935 393 926 q 375 953 375 943 q 397 972 375 972 q 922 847 700 972 q 1113 684 1038 782 q 1188 463 1188 586 q 1132 290 1188 363 q 981 165 1076 218 q 767 71 886 113 q 588 17 686 43 q 394 -24 489 -8 q 228 -39 300 -39 q 150 -25 178 -39 q 121 8 121 -10 q 138 24 121 24 q 158 19 149 24 q 186 11 168 15 q 239 7 204 7 q 352 16 289 7 q 484 40 415 25 q 618 74 553 56 q 738 111 683 93 q 945 200 854 151 q 1088 315 1036 249 q 1139 476 1139 382 q 907 807 1139 675 q 506 919 753 893 q 511 904 511 913 q 491 847 511 892 q 438 740 471 803 q 369 608 406 678 q 300 478 333 539 q 90 -6 90 76 q 91 -14 90 -11 q 92 -22 92 -17 q 86 -36 92 -29 q 69 -43 81 -43 z "},"Đ":{"ha":1167,"x_min":46,"x_max":1188,"o":"m 69 -43 q 46 -8 46 -43 q 99 173 46 44 q 258 503 151 301 q 358 692 319 617 q 419 812 397 767 q 451 880 442 857 q 463 914 461 903 q 465 922 463 919 l 411 925 q 384 935 393 926 q 375 953 375 943 q 397 972 375 972 q 922 847 700 972 q 1113 684 1038 782 q 1188 463 1188 586 q 1132 290 1188 363 q 981 165 1076 218 q 767 71 886 113 q 588 17 686 43 q 394 -24 489 -8 q 228 -39 300 -39 q 150 -25 178 -39 q 121 8 121 -10 q 138 24 121 24 q 158 19 149 24 q 186 11 168 15 q 239 7 204 7 q 352 16 289 7 q 484 40 415 25 q 618 74 553 56 q 738 111 683 93 q 945 200 854 151 q 1088 315 1036 249 q 1139 476 1139 382 q 907 807 1139 675 q 506 919 753 893 q 511 904 511 913 q 491 847 511 892 q 438 740 471 803 q 369 608 406 678 q 300 478 333 539 q 90 -6 90 76 q 91 -14 90 -11 q 92 -22 92 -17 q 86 -36 92 -29 q 69 -43 81 -43 m 169 433 q 154 438 161 433 q 147 450 147 442 q 153 464 147 457 q 169 472 160 471 q 214 475 185 475 q 278 475 243 475 q 358 475 322 475 q 414 472 393 475 q 433 451 433 469 q 414 433 433 433 q 358 435 388 435 q 288 436 328 436 q 228 435 257 436 q 169 433 199 435 z "},"Δ":{"ha":906,"x_min":49,"x_max":857,"o":"m 49 21 l 49 71 l 421 874 l 488 874 l 857 71 l 857 21 l 49 21 m 93 63 l 807 63 l 564 596 q 528 676 550 629 q 485 769 506 724 q 454 843 465 815 l 449 843 q 424 783 442 824 q 385 699 406 743 q 351 624 365 656 l 93 63 z "},"ǅ":{"ha":1957,"x_min":46,"x_max":2115,"o":"m 69 -43 q 46 -8 46 -43 q 99 173 46 44 q 258 503 151 301 q 358 692 319 617 q 419 812 397 767 q 451 880 442 857 q 463 914 461 903 q 465 922 463 919 l 411 925 q 384 935 393 926 q 375 953 375 943 q 397 972 375 972 q 922 847 700 972 q 1113 684 1038 782 q 1188 463 1188 586 q 1132 290 1188 363 q 981 165 1076 218 q 767 71 886 113 q 588 17 686 43 q 394 -24 489 -8 q 228 -39 300 -39 q 150 -25 178 -39 q 121 8 121 -10 q 138 24 121 24 q 158 19 149 24 q 186 11 168 15 q 239 7 204 7 q 352 16 289 7 q 484 40 415 25 q 618 74 553 56 q 738 111 683 93 q 945 200 854 151 q 1088 315 1036 249 q 1139 476 1139 382 q 907 807 1139 675 q 506 919 753 893 q 511 904 511 913 q 491 847 511 892 q 438 740 471 803 q 369 608 406 678 q 300 478 333 539 q 90 -6 90 76 q 91 -14 90 -11 q 92 -22 92 -17 q 86 -36 92 -29 q 69 -43 81 -43 m 1986 847 q 1999 842 1993 847 q 2004 831 2004 838 q 1999 819 2004 824 q 1969 799 1996 817 q 1909 758 1943 781 q 1846 717 1875 735 q 1807 700 1817 700 q 1783 717 1799 700 q 1750 756 1767 733 q 1721 798 1733 779 q 1706 822 1708 817 q 1704 831 1704 825 q 1711 842 1704 838 q 1725 847 1718 847 q 1742 839 1736 847 q 1815 750 1781 786 q 1879 784 1843 763 q 1944 824 1915 806 q 1979 846 1974 843 q 1986 847 1982 847 m 1394 -446 q 1340 -428 1360 -446 q 1321 -379 1321 -410 q 1352 -303 1321 -336 q 1439 -236 1383 -271 q 1554 -165 1482 -210 q 1703 -68 1626 -119 q 1771 -20 1744 -40 q 1824 22 1797 0 q 1826 39 1825 32 q 1826 49 1826 46 q 1800 141 1826 99 q 1728 189 1774 183 q 1572 67 1622 67 q 1538 106 1538 67 q 1565 168 1538 139 q 1632 217 1592 197 q 1708 238 1672 236 q 1842 518 1842 407 q 1783 578 1842 578 q 1528 418 1696 578 q 1481 371 1515 406 q 1406 292 1447 336 q 1325 208 1364 249 q 1305 189 1315 199 q 1283 179 1294 179 q 1265 199 1265 179 q 1275 222 1265 211 q 1306 255 1279 228 q 1369 318 1333 282 q 1440 389 1406 354 q 1497 446 1475 424 q 1657 577 1583 532 q 1796 622 1731 622 q 1889 522 1889 622 q 1758 229 1889 389 q 1838 163 1808 210 q 1871 67 1868 117 q 1940 122 1918 104 q 1973 149 1963 140 q 1992 165 1983 157 q 2020 190 2001 174 q 2079 243 2039 207 q 2094 249 2088 249 q 2108 244 2101 249 q 2115 232 2115 240 q 2088 189 2115 217 q 2016 125 2057 161 q 1935 56 1975 89 q 1865 3 1894 24 q 1740 -228 1844 -108 q 1673 -295 1710 -262 q 1596 -358 1636 -328 q 1494 -419 1549 -392 q 1394 -446 1439 -446 m 1578 106 q 1635 147 1606 121 q 1678 193 1665 174 q 1604 152 1632 176 q 1578 106 1576 128 m 1410 -401 q 1574 -322 1472 -401 q 1707 -197 1647 -264 q 1806 -46 1779 -114 q 1782 -63 1796 -53 q 1742 -93 1768 -74 q 1667 -146 1699 -124 q 1605 -187 1635 -168 q 1541 -226 1575 -206 q 1461 -275 1507 -247 q 1389 -330 1408 -306 q 1369 -371 1369 -354 q 1410 -401 1369 -401 z "},"E":{"ha":846,"x_min":-3,"x_max":1074,"o":"m 22 -51 q -3 -28 -3 -51 q 6 2 -3 -17 q 22 36 15 21 q 133 243 64 124 q 297 513 201 363 q 260 535 260 513 q 286 558 260 558 l 328 557 q 401 667 371 622 q 450 736 432 711 q 516 817 481 776 q 594 897 551 858 q 728 917 660 911 q 868 924 797 924 q 1043 911 993 924 q 1067 901 1061 907 q 1074 886 1074 896 q 1053 863 1074 863 q 989 870 1036 863 q 844 878 942 878 q 740 872 797 878 q 615 856 683 867 q 381 557 557 811 l 721 557 q 743 535 743 557 q 721 513 743 513 l 351 513 q 56 4 150 204 q 622 88 431 88 q 756 24 756 88 q 733 1 756 1 q 714 15 715 1 q 690 35 713 31 q 618 40 667 40 q 481 31 557 40 q 319 8 406 22 q 121 -31 197 -10 q 22 -51 44 -51 z "},"É":{"ha":846,"x_min":-3,"x_max":1074,"o":"m 22 -51 q -3 -28 -3 -51 q 6 2 -3 -17 q 22 36 15 21 q 133 243 64 124 q 297 513 201 363 q 260 535 260 513 q 286 558 260 558 l 328 557 q 401 667 371 622 q 450 736 432 711 q 516 817 481 776 q 594 897 551 858 q 728 917 660 911 q 868 924 797 924 q 1043 911 993 924 q 1067 901 1061 907 q 1074 886 1074 896 q 1053 863 1074 863 q 989 870 1036 863 q 844 878 942 878 q 740 872 797 878 q 615 856 683 867 q 381 557 557 811 l 721 557 q 743 535 743 557 q 721 513 743 513 l 351 513 q 56 4 150 204 q 622 88 431 88 q 756 24 756 88 q 733 1 756 1 q 714 15 715 1 q 690 35 713 31 q 618 40 667 40 q 481 31 557 40 q 319 8 406 22 q 121 -31 197 -10 q 22 -51 44 -51 m 788 1007 q 774 1026 774 1013 q 782 1040 774 1036 q 827 1069 794 1049 q 895 1112 860 1089 q 951 1149 931 1135 q 983 1157 969 1161 q 996 1136 996 1150 q 979 1113 996 1122 q 940 1090 969 1107 q 872 1051 910 1072 q 800 1010 835 1029 q 788 1007 794 1007 z "},"Ĕ":{"ha":846,"x_min":-3,"x_max":1074,"o":"m 22 -51 q -3 -28 -3 -51 q 6 2 -3 -17 q 22 36 15 21 q 133 243 64 124 q 297 513 201 363 q 260 535 260 513 q 286 558 260 558 l 328 557 q 401 667 371 622 q 450 736 432 711 q 516 817 481 776 q 594 897 551 858 q 728 917 660 911 q 868 924 797 924 q 1043 911 993 924 q 1067 901 1061 907 q 1074 886 1074 896 q 1053 863 1074 863 q 989 870 1036 863 q 844 878 942 878 q 740 872 797 878 q 615 856 683 867 q 381 557 557 811 l 721 557 q 743 535 743 557 q 721 513 743 513 l 351 513 q 56 4 150 204 q 622 88 431 88 q 756 24 756 88 q 733 1 756 1 q 714 15 715 1 q 690 35 713 31 q 618 40 667 40 q 481 31 557 40 q 319 8 406 22 q 121 -31 197 -10 q 22 -51 44 -51 m 849 1007 q 760 1029 790 1007 q 729 1088 729 1051 q 735 1124 729 1108 q 758 1140 742 1140 q 771 1128 771 1140 q 769 1115 771 1121 q 768 1101 768 1108 q 788 1063 768 1075 q 863 1050 808 1050 q 954 1070 911 1050 q 1019 1128 997 1090 q 1031 1138 1024 1135 q 1044 1140 1039 1140 q 1057 1136 1051 1140 q 1060 1126 1063 1132 q 981 1038 1040 1069 q 849 1007 921 1007 z "},"Ě":{"ha":846,"x_min":-3,"x_max":1074,"o":"m 1053 1154 q 1065 1149 1060 1154 q 1071 1138 1071 1144 q 1065 1126 1071 1131 q 1042 1111 1063 1124 q 992 1081 1022 1099 q 932 1047 963 1064 q 878 1018 901 1029 q 846 1007 854 1007 q 819 1022 838 1007 q 779 1059 800 1038 q 741 1100 758 1081 q 717 1129 724 1119 q 715 1138 715 1132 q 722 1149 715 1144 q 736 1154 729 1154 q 753 1146 747 1154 q 805 1097 776 1121 q 854 1057 833 1072 q 905 1082 875 1067 q 965 1113 935 1097 q 1019 1140 996 1128 q 1046 1153 1042 1151 q 1053 1154 1049 1154 m 22 -51 q -3 -28 -3 -51 q 6 2 -3 -17 q 22 36 15 21 q 133 243 64 124 q 297 513 201 363 q 260 535 260 513 q 286 558 260 558 l 328 557 q 401 667 371 622 q 450 736 432 711 q 516 817 481 776 q 594 897 551 858 q 728 917 660 911 q 868 924 797 924 q 1043 911 993 924 q 1067 901 1061 907 q 1074 886 1074 896 q 1053 863 1074 863 q 989 870 1036 863 q 844 878 942 878 q 740 872 797 878 q 615 856 683 867 q 381 557 557 811 l 721 557 q 743 535 743 557 q 721 513 743 513 l 351 513 q 56 4 150 204 q 622 88 431 88 q 756 24 756 88 q 733 1 756 1 q 714 15 715 1 q 690 35 713 31 q 618 40 667 40 q 481 31 557 40 q 319 8 406 22 q 121 -31 197 -10 q 22 -51 44 -51 z "},"Ê":{"ha":846,"x_min":-3,"x_max":1074,"o":"m 22 -51 q -3 -28 -3 -51 q 6 2 -3 -17 q 22 36 15 21 q 133 243 64 124 q 297 513 201 363 q 260 535 260 513 q 286 558 260 558 l 328 557 q 401 667 371 622 q 450 736 432 711 q 516 817 481 776 q 594 897 551 858 q 728 917 660 911 q 868 924 797 924 q 1043 911 993 924 q 1067 901 1061 907 q 1074 886 1074 896 q 1053 863 1074 863 q 989 870 1036 863 q 844 878 942 878 q 740 872 797 878 q 615 856 683 867 q 381 557 557 811 l 721 557 q 743 535 743 557 q 721 513 743 513 l 351 513 q 56 4 150 204 q 622 88 431 88 q 756 24 756 88 q 733 1 756 1 q 714 15 715 1 q 690 35 713 31 q 618 40 667 40 q 481 31 557 40 q 319 8 406 22 q 121 -31 197 -10 q 22 -51 44 -51 m 685 999 q 673 1004 679 999 q 667 1015 667 1010 q 672 1026 667 1022 q 695 1042 675 1029 q 745 1072 715 1054 q 806 1106 775 1089 q 860 1135 836 1124 q 892 1146 883 1146 q 919 1131 900 1146 q 958 1094 938 1115 q 997 1053 979 1072 q 1021 1024 1014 1033 q 1022 1015 1022 1021 q 1015 1003 1022 1008 q 1001 999 1008 999 q 985 1007 992 999 q 933 1057 961 1032 q 883 1096 904 1082 q 833 1072 863 1086 q 772 1041 803 1057 q 719 1014 742 1025 q 692 1000 696 1003 q 685 999 689 999 z "},"Ế":{"ha":846,"x_min":-3,"x_max":1247,"o":"m 22 -51 q -3 -28 -3 -51 q 6 2 -3 -17 q 22 36 15 21 q 133 243 64 124 q 297 513 201 363 q 260 535 260 513 q 286 558 260 558 l 328 557 q 401 667 371 622 q 450 736 432 711 q 516 817 481 776 q 594 897 551 858 q 728 917 660 911 q 868 924 797 924 q 1043 911 993 924 q 1067 901 1061 907 q 1074 886 1074 896 q 1053 863 1074 863 q 989 870 1036 863 q 844 878 942 878 q 740 872 797 878 q 615 856 683 867 q 381 557 557 811 l 721 557 q 743 535 743 557 q 721 513 743 513 l 351 513 q 56 4 150 204 q 622 88 431 88 q 756 24 756 88 q 733 1 756 1 q 714 15 715 1 q 690 35 713 31 q 618 40 667 40 q 481 31 557 40 q 319 8 406 22 q 121 -31 197 -10 q 22 -51 44 -51 m 685 999 q 673 1004 679 999 q 667 1015 667 1010 q 672 1026 667 1022 q 695 1042 675 1029 q 745 1072 715 1054 q 806 1106 775 1089 q 860 1135 836 1124 q 892 1146 883 1146 q 919 1131 900 1146 q 958 1094 938 1115 q 997 1053 979 1072 q 1021 1024 1014 1033 q 1022 1015 1022 1021 q 1015 1003 1022 1008 q 1001 999 1008 999 q 985 1007 992 999 q 933 1057 961 1032 q 883 1096 904 1082 q 833 1072 863 1086 q 772 1041 803 1057 q 719 1014 742 1025 q 692 1000 696 1003 q 685 999 689 999 m 1039 1119 q 1025 1139 1025 1125 q 1033 1153 1025 1149 q 1078 1181 1046 1161 q 1147 1224 1111 1201 q 1203 1261 1182 1247 q 1235 1269 1221 1274 q 1247 1249 1247 1263 q 1231 1225 1247 1235 q 1191 1202 1221 1219 q 1124 1163 1161 1185 q 1051 1122 1086 1142 q 1039 1119 1046 1119 z "},"Ệ":{"ha":846,"x_min":-3,"x_max":1074,"o":"m 22 -51 q -3 -28 -3 -51 q 6 2 -3 -17 q 22 36 15 21 q 133 243 64 124 q 297 513 201 363 q 260 535 260 513 q 286 558 260 558 l 328 557 q 401 667 371 622 q 450 736 432 711 q 516 817 481 776 q 594 897 551 858 q 728 917 660 911 q 868 924 797 924 q 1043 911 993 924 q 1067 901 1061 907 q 1074 886 1074 896 q 1053 863 1074 863 q 989 870 1036 863 q 844 878 942 878 q 740 872 797 878 q 615 856 683 867 q 381 557 557 811 l 721 557 q 743 535 743 557 q 721 513 743 513 l 351 513 q 56 4 150 204 q 622 88 431 88 q 756 24 756 88 q 733 1 756 1 q 714 15 715 1 q 690 35 713 31 q 618 40 667 40 q 481 31 557 40 q 319 8 406 22 q 121 -31 197 -10 q 22 -51 44 -51 m 297 -158 q 276 -147 288 -162 q 264 -117 264 -132 q 275 -93 264 -103 q 289 -82 286 -83 q 302 -80 296 -81 q 314 -79 308 -79 q 338 -99 338 -79 q 335 -114 338 -103 q 324 -138 332 -126 q 297 -158 317 -150 m 685 999 q 673 1004 679 999 q 667 1015 667 1010 q 672 1026 667 1022 q 695 1042 675 1029 q 745 1072 715 1054 q 806 1106 775 1089 q 860 1135 836 1124 q 892 1146 883 1146 q 919 1131 900 1146 q 958 1094 938 1115 q 997 1053 979 1072 q 1021 1024 1014 1033 q 1022 1015 1022 1021 q 1015 1003 1022 1008 q 1001 999 1008 999 q 985 1007 992 999 q 933 1057 961 1032 q 883 1096 904 1082 q 833 1072 863 1086 q 772 1041 803 1057 q 719 1014 742 1025 q 692 1000 696 1003 q 685 999 689 999 z "},"Ề":{"ha":846,"x_min":-3,"x_max":1074,"o":"m 22 -51 q -3 -28 -3 -51 q 6 2 -3 -17 q 22 36 15 21 q 133 243 64 124 q 297 513 201 363 q 260 535 260 513 q 286 558 260 558 l 328 557 q 401 667 371 622 q 450 736 432 711 q 516 817 481 776 q 594 897 551 858 q 728 917 660 911 q 868 924 797 924 q 1043 911 993 924 q 1067 901 1061 907 q 1074 886 1074 896 q 1053 863 1074 863 q 989 870 1036 863 q 844 878 942 878 q 740 872 797 878 q 615 856 683 867 q 381 557 557 811 l 721 557 q 743 535 743 557 q 721 513 743 513 l 351 513 q 56 4 150 204 q 622 88 431 88 q 756 24 756 88 q 733 1 756 1 q 714 15 715 1 q 690 35 713 31 q 618 40 667 40 q 481 31 557 40 q 319 8 406 22 q 121 -31 197 -10 q 22 -51 44 -51 m 685 999 q 673 1004 679 999 q 667 1015 667 1010 q 672 1026 667 1022 q 695 1042 675 1029 q 745 1072 715 1054 q 806 1106 775 1089 q 860 1135 836 1124 q 892 1146 883 1146 q 919 1131 900 1146 q 958 1094 938 1115 q 997 1053 979 1072 q 1021 1024 1014 1033 q 1022 1015 1022 1021 q 1015 1003 1022 1008 q 1001 999 1008 999 q 985 1007 992 999 q 933 1057 961 1032 q 883 1096 904 1082 q 833 1072 863 1086 q 772 1041 803 1057 q 719 1014 742 1025 q 692 1000 696 1003 q 685 999 689 999 m 1046 1133 q 1033 1136 1039 1133 q 962 1177 1000 1156 q 894 1216 924 1199 q 854 1239 864 1233 q 843 1249 849 1243 q 838 1260 838 1254 l 838 1263 q 850 1283 838 1276 q 853 1284 851 1283 q 857 1285 856 1285 q 882 1275 868 1285 q 939 1238 904 1261 q 1006 1195 974 1215 q 1051 1167 1039 1175 q 1060 1156 1057 1163 l 1060 1153 q 1046 1133 1060 1139 z "},"Ể":{"ha":846,"x_min":-3,"x_max":1133,"o":"m 22 -51 q -3 -28 -3 -51 q 6 2 -3 -17 q 22 36 15 21 q 133 243 64 124 q 297 513 201 363 q 260 535 260 513 q 286 558 260 558 l 328 557 q 401 667 371 622 q 450 736 432 711 q 516 817 481 776 q 594 897 551 858 q 728 917 660 911 q 868 924 797 924 q 1043 911 993 924 q 1067 901 1061 907 q 1074 886 1074 896 q 1053 863 1074 863 q 989 870 1036 863 q 844 878 942 878 q 740 872 797 878 q 615 856 683 867 q 381 557 557 811 l 721 557 q 743 535 743 557 q 721 513 743 513 l 351 513 q 56 4 150 204 q 622 88 431 88 q 756 24 756 88 q 733 1 756 1 q 714 15 715 1 q 690 35 713 31 q 618 40 667 40 q 481 31 557 40 q 319 8 406 22 q 121 -31 197 -10 q 22 -51 44 -51 m 685 999 q 673 1004 679 999 q 667 1015 667 1010 q 672 1026 667 1022 q 695 1042 675 1029 q 745 1072 715 1054 q 806 1106 775 1089 q 860 1135 836 1124 q 892 1146 883 1146 q 919 1131 900 1146 q 958 1094 938 1115 q 997 1053 979 1072 q 1021 1024 1014 1033 q 1022 1015 1022 1021 q 1015 1003 1022 1008 q 1001 999 1008 999 q 985 1007 992 999 q 933 1057 961 1032 q 883 1096 904 1082 q 833 1072 863 1086 q 772 1041 803 1057 q 719 1014 742 1025 q 692 1000 696 1003 q 685 999 689 999 m 1025 1122 q 1008 1136 1008 1122 q 1015 1150 1008 1144 q 1064 1190 1040 1168 q 1088 1233 1088 1211 q 1054 1267 1088 1267 q 1013 1253 1036 1267 q 982 1240 990 1240 q 968 1254 968 1240 q 986 1278 968 1265 q 1023 1297 999 1286 q 1072 1307 1047 1307 q 1117 1288 1101 1307 q 1133 1243 1133 1268 q 1106 1179 1133 1206 q 1044 1129 1078 1153 q 1025 1122 1036 1122 z "},"Ễ":{"ha":846,"x_min":-3,"x_max":1117,"o":"m 22 -51 q -3 -28 -3 -51 q 6 2 -3 -17 q 22 36 15 21 q 133 243 64 124 q 297 513 201 363 q 260 535 260 513 q 286 558 260 558 l 328 557 q 401 667 371 622 q 450 736 432 711 q 516 817 481 776 q 594 897 551 858 q 728 917 660 911 q 868 924 797 924 q 1043 911 993 924 q 1067 901 1061 907 q 1074 886 1074 896 q 1053 863 1074 863 q 989 870 1036 863 q 844 878 942 878 q 740 872 797 878 q 615 856 683 867 q 381 557 557 811 l 721 557 q 743 535 743 557 q 721 513 743 513 l 351 513 q 56 4 150 204 q 622 88 431 88 q 756 24 756 88 q 733 1 756 1 q 714 15 715 1 q 690 35 713 31 q 618 40 667 40 q 481 31 557 40 q 319 8 406 22 q 121 -31 197 -10 q 22 -51 44 -51 m 685 999 q 673 1004 679 999 q 667 1015 667 1010 q 672 1026 667 1022 q 695 1042 675 1029 q 745 1072 715 1054 q 806 1106 775 1089 q 860 1135 836 1124 q 892 1146 883 1146 q 919 1131 900 1146 q 958 1094 938 1115 q 997 1053 979 1072 q 1021 1024 1014 1033 q 1022 1015 1022 1021 q 1015 1003 1022 1008 q 1001 999 1008 999 q 985 1007 992 999 q 933 1057 961 1032 q 883 1096 904 1082 q 833 1072 863 1086 q 772 1041 803 1057 q 719 1014 742 1025 q 692 1000 696 1003 q 685 999 689 999 m 794 1175 q 783 1178 789 1175 q 781 1192 778 1182 q 794 1222 785 1204 q 825 1254 804 1240 q 879 1268 846 1268 q 933 1258 904 1268 q 987 1238 961 1249 q 1031 1228 1013 1228 q 1065 1243 1054 1228 q 1083 1268 1076 1258 q 1097 1275 1090 1275 q 1111 1253 1117 1275 q 1083 1208 1104 1231 q 1024 1185 1063 1185 q 975 1195 1004 1185 q 916 1216 946 1206 q 864 1226 886 1226 q 834 1213 844 1226 q 814 1185 824 1200 q 794 1175 808 1175 z "},"Ȅ":{"ha":846,"x_min":-3,"x_max":1074,"o":"m 22 -51 q -3 -28 -3 -51 q 6 2 -3 -17 q 22 36 15 21 q 133 243 64 124 q 297 513 201 363 q 260 535 260 513 q 286 558 260 558 l 328 557 q 401 667 371 622 q 450 736 432 711 q 516 817 481 776 q 594 897 551 858 q 728 917 660 911 q 868 924 797 924 q 1043 911 993 924 q 1067 901 1061 907 q 1074 886 1074 896 q 1053 863 1074 863 q 989 870 1036 863 q 844 878 942 878 q 740 872 797 878 q 615 856 683 867 q 381 557 557 811 l 721 557 q 743 535 743 557 q 721 513 743 513 l 351 513 q 56 4 150 204 q 622 88 431 88 q 756 24 756 88 q 733 1 756 1 q 714 15 715 1 q 690 35 713 31 q 618 40 667 40 q 481 31 557 40 q 319 8 406 22 q 121 -31 197 -10 q 22 -51 44 -51 m 869 1004 q 858 1010 864 1004 q 784 1092 819 1053 q 738 1146 749 1132 q 730 1157 733 1151 q 726 1168 726 1163 q 733 1181 726 1175 q 747 1189 740 1188 q 762 1184 754 1189 q 775 1172 769 1179 q 813 1124 792 1151 q 855 1071 835 1096 q 885 1033 875 1046 q 889 1019 889 1025 q 869 1004 886 1004 m 781 1001 q 769 1006 776 1001 q 687 1081 726 1044 q 635 1129 647 1117 q 622 1150 622 1142 q 628 1164 622 1157 q 640 1172 633 1171 l 643 1172 q 657 1168 650 1172 q 669 1158 664 1164 q 713 1115 688 1140 q 760 1066 738 1089 q 793 1032 783 1043 q 799 1019 799 1026 q 793 1008 799 1014 q 781 1001 788 1001 z "},"Ë":{"ha":846,"x_min":-3,"x_max":1074,"o":"m 22 -51 q -3 -28 -3 -51 q 6 2 -3 -17 q 22 36 15 21 q 133 243 64 124 q 297 513 201 363 q 260 535 260 513 q 286 558 260 558 l 328 557 q 401 667 371 622 q 450 736 432 711 q 516 817 481 776 q 594 897 551 858 q 728 917 660 911 q 868 924 797 924 q 1043 911 993 924 q 1067 901 1061 907 q 1074 886 1074 896 q 1053 863 1074 863 q 989 870 1036 863 q 844 878 942 878 q 740 872 797 878 q 615 856 683 867 q 381 557 557 811 l 721 557 q 743 535 743 557 q 721 513 743 513 l 351 513 q 56 4 150 204 q 622 88 431 88 q 756 24 756 88 q 733 1 756 1 q 714 15 715 1 q 690 35 713 31 q 618 40 667 40 q 481 31 557 40 q 319 8 406 22 q 121 -31 197 -10 q 22 -51 44 -51 m 932 1007 q 910 1018 922 1003 q 899 1049 899 1033 q 910 1072 899 1063 q 924 1083 921 1082 q 937 1085 931 1085 q 949 1086 943 1086 q 972 1067 972 1086 q 969 1051 972 1063 q 959 1027 967 1039 q 932 1007 951 1015 m 771 1007 q 749 1018 761 1003 q 738 1049 738 1033 q 749 1072 738 1063 q 763 1083 760 1082 q 776 1085 769 1085 q 788 1086 782 1086 q 811 1067 811 1086 q 808 1051 811 1063 q 798 1027 806 1039 q 771 1007 790 1015 z "},"Ė":{"ha":846,"x_min":-3,"x_max":1074,"o":"m 22 -51 q -3 -28 -3 -51 q 6 2 -3 -17 q 22 36 15 21 q 133 243 64 124 q 297 513 201 363 q 260 535 260 513 q 286 558 260 558 l 328 557 q 401 667 371 622 q 450 736 432 711 q 516 817 481 776 q 594 897 551 858 q 728 917 660 911 q 868 924 797 924 q 1043 911 993 924 q 1067 901 1061 907 q 1074 886 1074 896 q 1053 863 1074 863 q 989 870 1036 863 q 844 878 942 878 q 740 872 797 878 q 615 856 683 867 q 381 557 557 811 l 721 557 q 743 535 743 557 q 721 513 743 513 l 351 513 q 56 4 150 204 q 622 88 431 88 q 756 24 756 88 q 733 1 756 1 q 714 15 715 1 q 690 35 713 31 q 618 40 667 40 q 481 31 557 40 q 319 8 406 22 q 121 -31 197 -10 q 22 -51 44 -51 m 844 1007 q 823 1018 835 1003 q 811 1049 811 1033 q 822 1072 811 1063 q 836 1083 833 1082 q 849 1085 843 1085 q 861 1086 856 1086 q 885 1067 885 1086 q 882 1051 885 1063 q 872 1027 879 1039 q 844 1007 864 1015 z "},"Ẹ":{"ha":846,"x_min":-3,"x_max":1074,"o":"m 22 -51 q -3 -28 -3 -51 q 6 2 -3 -17 q 22 36 15 21 q 133 243 64 124 q 297 513 201 363 q 260 535 260 513 q 286 558 260 558 l 328 557 q 401 667 371 622 q 450 736 432 711 q 516 817 481 776 q 594 897 551 858 q 728 917 660 911 q 868 924 797 924 q 1043 911 993 924 q 1067 901 1061 907 q 1074 886 1074 896 q 1053 863 1074 863 q 989 870 1036 863 q 844 878 942 878 q 740 872 797 878 q 615 856 683 867 q 381 557 557 811 l 721 557 q 743 535 743 557 q 721 513 743 513 l 351 513 q 56 4 150 204 q 622 88 431 88 q 756 24 756 88 q 733 1 756 1 q 714 15 715 1 q 690 35 713 31 q 618 40 667 40 q 481 31 557 40 q 319 8 406 22 q 121 -31 197 -10 q 22 -51 44 -51 m 297 -158 q 276 -147 288 -162 q 264 -117 264 -132 q 275 -93 264 -103 q 289 -82 286 -83 q 302 -80 296 -81 q 314 -79 308 -79 q 338 -99 338 -79 q 335 -114 338 -103 q 324 -138 332 -126 q 297 -158 317 -150 z "},"È":{"ha":846,"x_min":-3,"x_max":1074,"o":"m 22 -51 q -3 -28 -3 -51 q 6 2 -3 -17 q 22 36 15 21 q 133 243 64 124 q 297 513 201 363 q 260 535 260 513 q 286 558 260 558 l 328 557 q 401 667 371 622 q 450 736 432 711 q 516 817 481 776 q 594 897 551 858 q 728 917 660 911 q 868 924 797 924 q 1043 911 993 924 q 1067 901 1061 907 q 1074 886 1074 896 q 1053 863 1074 863 q 989 870 1036 863 q 844 878 942 878 q 740 872 797 878 q 615 856 683 867 q 381 557 557 811 l 721 557 q 743 535 743 557 q 721 513 743 513 l 351 513 q 56 4 150 204 q 622 88 431 88 q 756 24 756 88 q 733 1 756 1 q 714 15 715 1 q 690 35 713 31 q 618 40 667 40 q 481 31 557 40 q 319 8 406 22 q 121 -31 197 -10 q 22 -51 44 -51 m 893 1007 q 881 1010 886 1007 q 809 1051 847 1029 q 741 1090 771 1072 q 701 1113 711 1107 q 690 1122 696 1117 q 685 1133 685 1128 l 685 1136 q 697 1157 685 1150 q 701 1158 699 1157 q 704 1158 703 1158 q 729 1149 715 1158 q 786 1112 751 1135 q 853 1069 821 1089 q 899 1040 886 1049 q 907 1029 904 1036 l 907 1026 q 893 1007 907 1013 z "},"Ẻ":{"ha":846,"x_min":-3,"x_max":1074,"o":"m 22 -51 q -3 -28 -3 -51 q 6 2 -3 -17 q 22 36 15 21 q 133 243 64 124 q 297 513 201 363 q 260 535 260 513 q 286 558 260 558 l 328 557 q 401 667 371 622 q 450 736 432 711 q 516 817 481 776 q 594 897 551 858 q 728 917 660 911 q 868 924 797 924 q 1043 911 993 924 q 1067 901 1061 907 q 1074 886 1074 896 q 1053 863 1074 863 q 989 870 1036 863 q 844 878 942 878 q 740 872 797 878 q 615 856 683 867 q 381 557 557 811 l 721 557 q 743 535 743 557 q 721 513 743 513 l 351 513 q 56 4 150 204 q 622 88 431 88 q 756 24 756 88 q 733 1 756 1 q 714 15 715 1 q 690 35 713 31 q 618 40 667 40 q 481 31 557 40 q 319 8 406 22 q 121 -31 197 -10 q 22 -51 44 -51 m 871 1004 q 854 1018 854 1004 q 861 1032 854 1026 q 910 1072 886 1050 q 933 1115 933 1093 q 900 1149 933 1149 q 859 1135 882 1149 q 828 1122 836 1122 q 814 1136 814 1122 q 832 1160 814 1147 q 869 1178 844 1168 q 918 1189 893 1189 q 963 1169 947 1189 q 979 1125 979 1150 q 951 1061 979 1088 q 890 1011 924 1035 q 871 1004 882 1004 z "},"Ȇ":{"ha":846,"x_min":-3,"x_max":1074,"o":"m 882 1131 q 971 1108 940 1131 q 1001 1050 1001 1086 q 995 1013 1001 1029 q 972 997 989 997 q 960 1010 960 997 q 961 1024 960 1017 q 963 1036 963 1031 q 942 1076 963 1064 q 868 1088 922 1088 q 776 1067 819 1088 q 711 1010 733 1047 q 700 1000 707 1003 q 686 997 693 997 q 675 1001 681 997 q 671 1011 669 1006 q 750 1099 690 1068 q 882 1131 810 1131 m 22 -51 q -3 -28 -3 -51 q 6 2 -3 -17 q 22 36 15 21 q 133 243 64 124 q 297 513 201 363 q 260 535 260 513 q 286 558 260 558 l 328 557 q 401 667 371 622 q 450 736 432 711 q 516 817 481 776 q 594 897 551 858 q 728 917 660 911 q 868 924 797 924 q 1043 911 993 924 q 1067 901 1061 907 q 1074 886 1074 896 q 1053 863 1074 863 q 989 870 1036 863 q 844 878 942 878 q 740 872 797 878 q 615 856 683 867 q 381 557 557 811 l 721 557 q 743 535 743 557 q 721 513 743 513 l 351 513 q 56 4 150 204 q 622 88 431 88 q 756 24 756 88 q 733 1 756 1 q 714 15 715 1 q 690 35 713 31 q 618 40 667 40 q 481 31 557 40 q 319 8 406 22 q 121 -31 197 -10 q 22 -51 44 -51 z "},"Ē":{"ha":846,"x_min":-3,"x_max":1074,"o":"m 22 -51 q -3 -28 -3 -51 q 6 2 -3 -17 q 22 36 15 21 q 133 243 64 124 q 297 513 201 363 q 260 535 260 513 q 286 558 260 558 l 328 557 q 401 667 371 622 q 450 736 432 711 q 516 817 481 776 q 594 897 551 858 q 728 917 660 911 q 868 924 797 924 q 1043 911 993 924 q 1067 901 1061 907 q 1074 886 1074 896 q 1053 863 1074 863 q 989 870 1036 863 q 844 878 942 878 q 740 872 797 878 q 615 856 683 867 q 381 557 557 811 l 721 557 q 743 535 743 557 q 721 513 743 513 l 351 513 q 56 4 150 204 q 622 88 431 88 q 756 24 756 88 q 733 1 756 1 q 714 15 715 1 q 690 35 713 31 q 618 40 667 40 q 481 31 557 40 q 319 8 406 22 q 121 -31 197 -10 q 22 -51 44 -51 m 696 1007 q 681 1011 688 1007 q 674 1024 674 1015 q 680 1038 674 1031 q 696 1046 686 1044 q 729 1048 706 1047 q 781 1049 753 1049 q 832 1049 810 1049 q 885 1049 856 1049 q 941 1048 914 1049 q 982 1046 968 1047 q 1001 1025 1001 1043 q 982 1007 1001 1007 q 913 1009 956 1008 q 842 1010 871 1010 q 768 1009 811 1010 q 696 1007 725 1008 z "},"Ŋ":{"ha":1003,"x_min":-42,"x_max":1174,"o":"m 265 -462 q 200 -426 219 -462 q 181 -342 181 -389 q 185 -296 181 -318 q 197 -247 189 -274 q 219 -201 206 -221 q 246 -182 232 -182 q 267 -194 267 -182 q 251 -235 267 -208 q 229 -292 235 -262 q 227 -310 228 -301 q 226 -329 226 -319 q 238 -388 226 -362 q 278 -414 250 -414 q 342 -391 307 -414 q 413 -331 376 -368 q 482 -251 449 -294 q 542 -167 515 -208 q 567 -124 550 -154 q 602 -64 585 -94 q 625 -21 619 -33 q 572 173 597 67 q 528 391 547 279 q 499 610 510 503 q 492 810 489 718 q 235 460 379 701 q 6 -60 79 201 l 6 -54 q 1 -63 4 -54 q -8 -72 -1 -72 q -30 -62 -19 -72 q -40 -40 -40 -53 l -42 -43 q 194 485 43 238 q 503 881 389 801 l 503 882 q 515 885 508 885 q 549 856 549 885 q 549 836 549 849 q 547 807 549 824 q 545 778 546 790 q 544 757 544 765 q 578 411 544 596 q 660 36 611 226 q 698 94 674 54 q 753 185 722 133 q 814 290 783 236 q 872 390 844 343 q 917 468 899 438 q 983 580 947 517 q 1052 708 1019 643 q 1106 827 1085 774 q 1128 908 1128 881 q 1146 928 1128 928 q 1174 901 1174 928 q 1151 804 1174 861 q 1080 661 1128 747 q 957 444 1032 575 q 835 232 901 343 q 706 17 769 121 q 590 -169 643 -86 q 507 -296 538 -251 q 380 -422 447 -382 q 265 -462 313 -462 z "},"Ę":{"ha":846,"x_min":-3,"x_max":1074,"o":"m 22 -51 q -3 -28 -3 -51 q 6 2 -3 -17 q 22 36 15 21 q 133 243 64 124 q 297 513 201 363 q 260 535 260 513 q 286 558 260 558 l 328 557 q 401 667 371 622 q 450 736 432 711 q 516 817 481 776 q 594 897 551 858 q 728 917 660 911 q 868 924 797 924 q 1043 911 993 924 q 1067 901 1061 907 q 1074 886 1074 896 q 1053 863 1074 863 q 989 870 1036 863 q 844 878 942 878 q 740 872 797 878 q 615 856 683 867 q 381 557 557 811 l 721 557 q 743 535 743 557 q 721 513 743 513 l 351 513 q 56 4 150 204 q 622 88 431 88 q 756 24 756 88 q 733 1 756 1 q 714 15 715 1 q 690 35 713 31 q 618 40 667 40 q 481 31 557 40 q 319 8 406 22 q 121 -31 197 -10 q 22 -51 44 -51 m 646 -162 q 581 -139 607 -162 q 556 -85 556 -115 q 569 -24 556 -53 q 601 27 583 6 q 628 56 618 49 q 647 63 636 63 q 664 50 664 63 q 658 39 664 44 q 621 -10 642 21 q 600 -69 600 -40 q 617 -108 600 -94 q 661 -122 635 -122 q 694 -118 678 -122 q 721 -108 710 -114 q 732 -106 729 -106 q 746 -119 746 -106 q 738 -136 746 -129 q 703 -153 728 -144 q 646 -162 678 -162 z "},"Ð":{"ha":1167,"x_min":46,"x_max":1188,"o":"m 69 -43 q 46 -8 46 -43 q 99 173 46 44 q 258 503 151 301 q 358 692 319 617 q 419 812 397 767 q 451 880 442 857 q 463 914 461 903 q 465 922 463 919 l 411 925 q 384 935 393 926 q 375 953 375 943 q 397 972 375 972 q 922 847 700 972 q 1113 684 1038 782 q 1188 463 1188 586 q 1132 290 1188 363 q 981 165 1076 218 q 767 71 886 113 q 588 17 686 43 q 394 -24 489 -8 q 228 -39 300 -39 q 150 -25 178 -39 q 121 8 121 -10 q 138 24 121 24 q 158 19 149 24 q 186 11 168 15 q 239 7 204 7 q 352 16 289 7 q 484 40 415 25 q 618 74 553 56 q 738 111 683 93 q 945 200 854 151 q 1088 315 1036 249 q 1139 476 1139 382 q 907 807 1139 675 q 506 919 753 893 q 511 904 511 913 q 491 847 511 892 q 438 740 471 803 q 369 608 406 678 q 300 478 333 539 q 90 -6 90 76 q 91 -14 90 -11 q 92 -22 92 -17 q 86 -36 92 -29 q 69 -43 81 -43 m 169 433 q 154 438 161 433 q 147 450 147 442 q 153 464 147 457 q 169 472 160 471 q 214 475 185 475 q 278 475 243 475 q 358 475 322 475 q 414 472 393 475 q 433 451 433 469 q 414 433 433 433 q 358 435 388 435 q 288 436 328 436 q 228 435 257 436 q 169 433 199 435 z "},"Ẽ":{"ha":846,"x_min":-3,"x_max":1074,"o":"m 22 -51 q -3 -28 -3 -51 q 6 2 -3 -17 q 22 36 15 21 q 133 243 64 124 q 297 513 201 363 q 260 535 260 513 q 286 558 260 558 l 328 557 q 401 667 371 622 q 450 736 432 711 q 516 817 481 776 q 594 897 551 858 q 728 917 660 911 q 868 924 797 924 q 1043 911 993 924 q 1067 901 1061 907 q 1074 886 1074 896 q 1053 863 1074 863 q 989 870 1036 863 q 844 878 942 878 q 740 872 797 878 q 615 856 683 867 q 381 557 557 811 l 721 557 q 743 535 743 557 q 721 513 743 513 l 351 513 q 56 4 150 204 q 622 88 431 88 q 756 24 756 88 q 733 1 756 1 q 714 15 715 1 q 690 35 713 31 q 618 40 667 40 q 481 31 557 40 q 319 8 406 22 q 121 -31 197 -10 q 22 -51 44 -51 m 710 1001 q 699 1005 704 1001 q 696 1018 693 1008 q 710 1049 700 1031 q 740 1081 719 1067 q 794 1094 761 1094 q 848 1085 819 1094 q 902 1065 876 1075 q 946 1054 928 1054 q 981 1069 969 1054 q 999 1094 992 1085 q 1013 1101 1006 1101 q 1026 1079 1032 1101 q 999 1034 1019 1057 q 939 1011 978 1011 q 890 1022 919 1011 q 831 1042 861 1032 q 779 1053 801 1053 q 749 1040 760 1053 q 729 1011 739 1026 q 710 1001 724 1001 z "},"F":{"ha":717,"x_min":22,"x_max":1022,"o":"m 46 -49 q 22 -25 22 -49 q 32 13 22 -17 q 127 224 60 99 q 301 513 194 349 q 267 535 267 513 q 292 557 267 556 l 331 557 q 400 657 371 615 q 451 728 429 699 q 508 802 479 765 q 565 871 538 839 q 554 870 560 871 q 544 869 549 869 q 490 896 490 869 q 533 921 490 921 l 999 921 q 1022 899 1021 921 q 1000 874 1022 874 l 626 874 q 556 785 592 831 q 480 685 521 740 q 386 557 439 631 l 728 557 q 750 535 750 557 q 728 511 750 513 l 356 511 q 158 185 228 317 q 68 -32 88 53 q 46 -49 64 -49 z "},"G":{"ha":1272,"x_min":117,"x_max":1317,"o":"m 506 -60 q 304 -14 392 -60 q 167 116 217 32 q 117 311 117 200 q 164 526 117 429 q 300 704 211 624 q 901 933 553 933 q 1042 908 975 933 q 1153 833 1110 882 q 1196 714 1196 783 q 1161 617 1196 657 q 1134 588 1153 606 q 1101 571 1115 571 q 1079 580 1090 571 q 1068 599 1068 589 q 1078 615 1068 606 q 1107 642 1088 624 q 1144 726 1144 679 q 1105 821 1144 783 q 1004 877 1065 858 q 875 896 943 896 q 577 831 722 896 q 321 656 432 767 q 208 495 247 582 q 168 301 168 408 q 201 153 168 213 q 285 56 233 93 q 400 1 338 18 q 519 -17 463 -17 q 662 1 586 -17 q 810 51 738 19 q 942 119 883 82 q 983 149 967 136 q 1006 168 999 161 l 1047 239 q 1088 308 1064 267 q 1142 406 1111 350 q 1033 393 1099 406 q 897 361 968 381 q 812 335 854 350 q 758 321 769 321 q 735 346 735 321 q 739 358 735 353 q 757 369 743 363 q 839 403 789 388 q 950 431 889 419 q 1060 446 1006 442 q 1165 449 1114 450 l 1169 457 q 1189 471 1175 471 q 1215 449 1210 471 q 1294 439 1250 447 q 1317 414 1317 435 q 1296 393 1317 393 q 1258 399 1286 393 q 1196 404 1229 404 q 1075 192 1165 344 q 1044 139 1057 161 q 1025 101 1032 117 q 988 7 1000 53 q 971 -8 983 -8 q 943 17 943 -8 q 963 85 943 33 q 820 12 900 44 q 658 -40 740 -21 q 506 -60 576 -60 z "},"Ğ":{"ha":1272,"x_min":117,"x_max":1317,"o":"m 506 -60 q 304 -14 392 -60 q 167 116 217 32 q 117 311 117 200 q 164 526 117 429 q 300 704 211 624 q 901 933 553 933 q 1042 908 975 933 q 1153 833 1110 882 q 1196 714 1196 783 q 1161 617 1196 657 q 1134 588 1153 606 q 1101 571 1115 571 q 1079 580 1090 571 q 1068 599 1068 589 q 1078 615 1068 606 q 1107 642 1088 624 q 1144 726 1144 679 q 1105 821 1144 783 q 1004 877 1065 858 q 875 896 943 896 q 577 831 722 896 q 321 656 432 767 q 208 495 247 582 q 168 301 168 408 q 201 153 168 213 q 285 56 233 93 q 400 1 338 18 q 519 -17 463 -17 q 662 1 586 -17 q 810 51 738 19 q 942 119 883 82 q 983 149 967 136 q 1006 168 999 161 l 1047 239 q 1088 308 1064 267 q 1142 406 1111 350 q 1033 393 1099 406 q 897 361 968 381 q 812 335 854 350 q 758 321 769 321 q 735 346 735 321 q 739 358 735 353 q 757 369 743 363 q 839 403 789 388 q 950 431 889 419 q 1060 446 1006 442 q 1165 449 1114 450 l 1169 457 q 1189 471 1175 471 q 1215 449 1210 471 q 1294 439 1250 447 q 1317 414 1317 435 q 1296 393 1317 393 q 1258 399 1286 393 q 1196 404 1229 404 q 1075 192 1165 344 q 1044 139 1057 161 q 1025 101 1032 117 q 988 7 1000 53 q 971 -8 983 -8 q 943 17 943 -8 q 963 85 943 33 q 820 12 900 44 q 658 -40 740 -21 q 506 -60 576 -60 m 918 1017 q 829 1039 860 1017 q 799 1097 799 1061 q 805 1134 799 1118 q 828 1150 811 1150 q 840 1138 840 1150 q 839 1124 840 1131 q 838 1111 838 1118 q 858 1072 838 1085 q 932 1060 878 1060 q 1024 1080 981 1060 q 1089 1138 1067 1100 q 1101 1147 1093 1144 q 1114 1150 1108 1150 q 1126 1146 1121 1150 q 1129 1136 1132 1142 q 1050 1048 1110 1079 q 918 1017 990 1017 z "},"Ǧ":{"ha":1272,"x_min":117,"x_max":1317,"o":"m 1122 1164 q 1135 1159 1129 1164 q 1140 1147 1140 1154 q 1135 1136 1140 1140 q 1112 1121 1132 1133 q 1062 1091 1092 1108 q 1001 1056 1032 1074 q 947 1028 971 1039 q 915 1017 924 1017 q 888 1032 907 1017 q 849 1069 869 1047 q 810 1110 828 1090 q 786 1139 793 1129 q 785 1147 785 1142 q 792 1159 785 1154 q 806 1164 799 1164 q 822 1156 817 1164 q 874 1106 846 1131 q 924 1067 903 1082 q 974 1092 944 1076 q 1035 1122 1004 1107 q 1088 1149 1065 1138 q 1115 1163 1111 1161 q 1122 1164 1118 1164 m 506 -60 q 304 -14 392 -60 q 167 116 217 32 q 117 311 117 200 q 164 526 117 429 q 300 704 211 624 q 901 933 553 933 q 1042 908 975 933 q 1153 833 1110 882 q 1196 714 1196 783 q 1161 617 1196 657 q 1134 588 1153 606 q 1101 571 1115 571 q 1079 580 1090 571 q 1068 599 1068 589 q 1078 615 1068 606 q 1107 642 1088 624 q 1144 726 1144 679 q 1105 821 1144 783 q 1004 877 1065 858 q 875 896 943 896 q 577 831 722 896 q 321 656 432 767 q 208 495 247 582 q 168 301 168 408 q 201 153 168 213 q 285 56 233 93 q 400 1 338 18 q 519 -17 463 -17 q 662 1 586 -17 q 810 51 738 19 q 942 119 883 82 q 983 149 967 136 q 1006 168 999 161 l 1047 239 q 1088 308 1064 267 q 1142 406 1111 350 q 1033 393 1099 406 q 897 361 968 381 q 812 335 854 350 q 758 321 769 321 q 735 346 735 321 q 739 358 735 353 q 757 369 743 363 q 839 403 789 388 q 950 431 889 419 q 1060 446 1006 442 q 1165 449 1114 450 l 1169 457 q 1189 471 1175 471 q 1215 449 1210 471 q 1294 439 1250 447 q 1317 414 1317 435 q 1296 393 1317 393 q 1258 399 1286 393 q 1196 404 1229 404 q 1075 192 1165 344 q 1044 139 1057 161 q 1025 101 1032 117 q 988 7 1000 53 q 971 -8 983 -8 q 943 17 943 -8 q 963 85 943 33 q 820 12 900 44 q 658 -40 740 -21 q 506 -60 576 -60 z "},"Ĝ":{"ha":1272,"x_min":117,"x_max":1317,"o":"m 506 -60 q 304 -14 392 -60 q 167 116 217 32 q 117 311 117 200 q 164 526 117 429 q 300 704 211 624 q 901 933 553 933 q 1042 908 975 933 q 1153 833 1110 882 q 1196 714 1196 783 q 1161 617 1196 657 q 1134 588 1153 606 q 1101 571 1115 571 q 1079 580 1090 571 q 1068 599 1068 589 q 1078 615 1068 606 q 1107 642 1088 624 q 1144 726 1144 679 q 1105 821 1144 783 q 1004 877 1065 858 q 875 896 943 896 q 577 831 722 896 q 321 656 432 767 q 208 495 247 582 q 168 301 168 408 q 201 153 168 213 q 285 56 233 93 q 400 1 338 18 q 519 -17 463 -17 q 662 1 586 -17 q 810 51 738 19 q 942 119 883 82 q 983 149 967 136 q 1006 168 999 161 l 1047 239 q 1088 308 1064 267 q 1142 406 1111 350 q 1033 393 1099 406 q 897 361 968 381 q 812 335 854 350 q 758 321 769 321 q 735 346 735 321 q 739 358 735 353 q 757 369 743 363 q 839 403 789 388 q 950 431 889 419 q 1060 446 1006 442 q 1165 449 1114 450 l 1169 457 q 1189 471 1175 471 q 1215 449 1210 471 q 1294 439 1250 447 q 1317 414 1317 435 q 1296 393 1317 393 q 1258 399 1286 393 q 1196 404 1229 404 q 1075 192 1165 344 q 1044 139 1057 161 q 1025 101 1032 117 q 988 7 1000 53 q 971 -8 983 -8 q 943 17 943 -8 q 963 85 943 33 q 820 12 900 44 q 658 -40 740 -21 q 506 -60 576 -60 m 754 1008 q 742 1014 749 1008 q 736 1025 736 1019 q 742 1036 736 1032 q 765 1051 744 1039 q 815 1081 785 1064 q 875 1116 844 1099 q 929 1144 906 1133 q 961 1156 953 1156 q 988 1140 969 1156 q 1028 1103 1007 1125 q 1066 1063 1049 1082 q 1090 1033 1083 1043 q 1092 1025 1092 1031 q 1085 1013 1092 1018 q 1071 1008 1078 1008 q 1054 1017 1061 1008 q 1002 1067 1031 1042 q 953 1106 974 1092 q 902 1081 932 1096 q 842 1051 872 1067 q 788 1024 811 1035 q 761 1010 765 1013 q 754 1008 758 1008 z "},"Ģ":{"ha":1272,"x_min":117,"x_max":1317,"o":"m 506 -60 q 304 -14 392 -60 q 167 116 217 32 q 117 311 117 200 q 164 526 117 429 q 300 704 211 624 q 901 933 553 933 q 1042 908 975 933 q 1153 833 1110 882 q 1196 714 1196 783 q 1161 617 1196 657 q 1134 588 1153 606 q 1101 571 1115 571 q 1079 580 1090 571 q 1068 599 1068 589 q 1078 615 1068 606 q 1107 642 1088 624 q 1144 726 1144 679 q 1105 821 1144 783 q 1004 877 1065 858 q 875 896 943 896 q 577 831 722 896 q 321 656 432 767 q 208 495 247 582 q 168 301 168 408 q 201 153 168 213 q 285 56 233 93 q 400 1 338 18 q 519 -17 463 -17 q 662 1 586 -17 q 810 51 738 19 q 942 119 883 82 q 983 149 967 136 q 1006 168 999 161 l 1047 239 q 1088 308 1064 267 q 1142 406 1111 350 q 1033 393 1099 406 q 897 361 968 381 q 812 335 854 350 q 758 321 769 321 q 735 346 735 321 q 739 358 735 353 q 757 369 743 363 q 839 403 789 388 q 950 431 889 419 q 1060 446 1006 442 q 1165 449 1114 450 l 1169 457 q 1189 471 1175 471 q 1215 449 1210 471 q 1294 439 1250 447 q 1317 414 1317 435 q 1296 393 1317 393 q 1258 399 1286 393 q 1196 404 1229 404 q 1075 192 1165 344 q 1044 139 1057 161 q 1025 101 1032 117 q 988 7 1000 53 q 971 -8 983 -8 q 943 17 943 -8 q 963 85 943 33 q 820 12 900 44 q 658 -40 740 -21 q 506 -60 576 -60 m 522 -160 q 546 -172 539 -160 q 553 -199 553 -183 q 517 -289 553 -242 q 431 -375 481 -336 q 415 -381 424 -381 q 403 -369 403 -381 q 408 -358 403 -364 q 446 -314 426 -339 q 479 -265 465 -289 q 493 -225 493 -240 q 488 -208 493 -214 q 483 -193 483 -201 q 494 -169 483 -179 q 522 -160 504 -160 z "},"Ġ":{"ha":1272,"x_min":117,"x_max":1317,"o":"m 506 -60 q 304 -14 392 -60 q 167 116 217 32 q 117 311 117 200 q 164 526 117 429 q 300 704 211 624 q 901 933 553 933 q 1042 908 975 933 q 1153 833 1110 882 q 1196 714 1196 783 q 1161 617 1196 657 q 1134 588 1153 606 q 1101 571 1115 571 q 1079 580 1090 571 q 1068 599 1068 589 q 1078 615 1068 606 q 1107 642 1088 624 q 1144 726 1144 679 q 1105 821 1144 783 q 1004 877 1065 858 q 875 896 943 896 q 577 831 722 896 q 321 656 432 767 q 208 495 247 582 q 168 301 168 408 q 201 153 168 213 q 285 56 233 93 q 400 1 338 18 q 519 -17 463 -17 q 662 1 586 -17 q 810 51 738 19 q 942 119 883 82 q 983 149 967 136 q 1006 168 999 161 l 1047 239 q 1088 308 1064 267 q 1142 406 1111 350 q 1033 393 1099 406 q 897 361 968 381 q 812 335 854 350 q 758 321 769 321 q 735 346 735 321 q 739 358 735 353 q 757 369 743 363 q 839 403 789 388 q 950 431 889 419 q 1060 446 1006 442 q 1165 449 1114 450 l 1169 457 q 1189 471 1175 471 q 1215 449 1210 471 q 1294 439 1250 447 q 1317 414 1317 435 q 1296 393 1317 393 q 1258 399 1286 393 q 1196 404 1229 404 q 1075 192 1165 344 q 1044 139 1057 161 q 1025 101 1032 117 q 988 7 1000 53 q 971 -8 983 -8 q 943 17 943 -8 q 963 85 943 33 q 820 12 900 44 q 658 -40 740 -21 q 506 -60 576 -60 m 914 1017 q 892 1028 904 1013 q 881 1058 881 1043 q 892 1082 881 1072 q 906 1093 903 1092 q 919 1095 913 1094 q 931 1096 925 1096 q 954 1076 954 1096 q 951 1061 954 1072 q 941 1037 949 1049 q 914 1017 933 1025 z "},"ẞ":{"ha":1036,"x_min":-146,"x_max":933,"o":"m 282 -44 q 268 -31 268 -44 q 276 -9 268 -19 q 292 1 283 1 q 419 14 339 1 q 583 51 499 26 q 881 269 821 119 q 893 328 893 301 q 772 461 893 415 q 578 494 683 494 q 508 490 542 494 q 467 481 471 481 q 446 507 446 481 q 468 524 446 522 q 474 525 471 524 q 578 581 522 544 q 686 660 635 617 q 771 744 738 703 q 804 815 804 785 q 801 831 804 822 q 751 873 792 860 q 660 886 711 886 q 563 876 613 886 q 473 849 514 867 q 411 808 432 832 q 348 689 375 768 q 298 506 321 610 q 253 288 275 403 q 208 58 232 172 q 153 -155 183 -56 q 82 -328 122 -254 q -12 -433 42 -401 q -61 -446 -33 -446 q -119 -428 -92 -446 q -146 -375 -146 -411 q -131 -320 -146 -351 q -82 -249 -117 -289 q -75 -244 -78 -244 q -69 -253 -69 -244 q -78 -274 -69 -262 q -102 -315 -94 -294 q -110 -351 -110 -335 q -97 -392 -110 -376 q -62 -408 -83 -408 q -12 -386 -39 -408 q 42 -296 17 -358 q 92 -148 68 -233 q 135 32 115 -62 q 222 427 183 257 q 300 708 260 597 q 394 864 340 819 q 502 910 429 892 q 651 929 575 929 q 785 908 725 929 q 863 836 844 886 q 865 818 865 825 q 823 729 865 779 q 711 627 781 679 q 560 531 642 575 q 581 531 569 531 q 703 521 642 531 q 817 489 765 511 q 901 427 869 467 q 933 326 933 388 q 919 253 933 290 q 607 11 861 89 q 427 -31 515 -17 q 282 -44 339 -44 z "},"H":{"ha":1172,"x_min":51,"x_max":1367,"o":"m 78 -136 q 51 -112 51 -136 q 243 399 51 51 q 286 472 257 424 q 208 452 239 467 q 167 438 176 438 q 142 461 142 438 q 314 524 142 497 q 374 624 338 564 q 463 764 411 683 q 526 869 500 824 q 569 951 553 914 q 588 965 575 965 q 614 938 614 965 q 581 873 614 928 q 479 706 549 818 l 369 529 q 481 538 422 535 q 600 540 539 540 q 1049 519 722 540 q 1108 637 1076 579 q 1174 751 1139 694 q 1261 884 1224 836 q 1317 946 1299 932 q 1346 960 1335 960 q 1367 938 1367 960 q 1354 918 1367 926 q 1293 853 1329 900 q 1213 729 1257 806 q 1099 515 1146 617 q 1147 492 1147 515 q 1140 475 1147 482 q 1119 469 1133 468 l 1078 472 q 938 44 938 160 l 938 14 q 914 -3 938 -3 q 892 46 892 -3 q 1028 476 892 168 q 749 490 858 486 q 592 494 640 494 q 343 482 456 494 l 283 378 q 176 162 215 257 q 124 19 138 67 q 106 -64 110 -35 q 99 -118 101 -93 q 78 -136 97 -136 z "},"Ħ":{"ha":1142,"x_min":51,"x_max":1367,"o":"m 78 -136 q 51 -112 51 -136 q 243 399 51 51 q 286 472 257 424 q 208 452 239 467 q 167 438 176 438 q 142 461 142 438 q 314 524 142 497 q 361 602 333 557 q 426 706 389 647 q 314 686 363 697 l 307 686 q 285 713 285 688 q 335 740 285 729 q 460 760 386 751 l 463 764 q 526 869 500 824 q 569 951 553 914 q 588 965 575 965 q 614 938 614 965 q 515 764 614 924 q 639 770 576 768 q 753 772 701 772 q 790 772 772 772 q 822 771 808 772 q 985 764 889 769 q 1172 750 1081 758 l 1174 751 q 1261 884 1224 836 q 1317 946 1299 932 q 1346 960 1335 960 q 1367 938 1367 960 q 1354 918 1367 926 q 1297 857 1331 900 q 1222 746 1264 814 q 1261 721 1261 740 q 1228 700 1261 703 l 1197 703 q 1099 515 1140 606 q 1147 492 1147 515 q 1140 475 1147 482 q 1119 469 1133 468 l 1078 472 q 938 44 938 160 l 938 14 q 914 -3 938 -3 q 892 46 892 -3 q 1028 476 892 168 q 749 490 858 486 q 592 494 640 494 q 343 482 456 494 l 283 378 q 177 161 217 256 q 124 19 138 67 q 106 -64 110 -35 q 99 -118 101 -93 q 78 -136 97 -136 m 600 540 q 1049 519 722 540 q 1096 614 1071 567 q 1147 707 1121 661 q 956 720 1049 715 q 811 726 864 725 q 778 728 794 728 q 744 728 761 728 q 613 724 679 728 q 485 714 546 721 l 479 706 l 369 529 q 481 538 422 535 q 600 540 539 540 z "},"Ĥ":{"ha":1172,"x_min":51,"x_max":1367,"o":"m 78 -136 q 51 -112 51 -136 q 243 399 51 51 q 286 472 257 424 q 208 452 239 467 q 167 438 176 438 q 142 461 142 438 q 314 524 142 497 q 374 624 338 564 q 463 764 411 683 q 526 869 500 824 q 569 951 553 914 q 588 965 575 965 q 614 938 614 965 q 581 873 614 928 q 479 706 549 818 l 369 529 q 481 538 422 535 q 600 540 539 540 q 1049 519 722 540 q 1108 637 1076 579 q 1174 751 1139 694 q 1261 884 1224 836 q 1317 946 1299 932 q 1346 960 1335 960 q 1367 938 1367 960 q 1354 918 1367 926 q 1293 853 1329 900 q 1213 729 1257 806 q 1099 515 1146 617 q 1147 492 1147 515 q 1140 475 1147 482 q 1119 469 1133 468 l 1078 472 q 938 44 938 160 l 938 14 q 914 -3 938 -3 q 892 46 892 -3 q 1028 476 892 168 q 749 490 858 486 q 592 494 640 494 q 343 482 456 494 l 283 378 q 176 162 215 257 q 124 19 138 67 q 106 -64 110 -35 q 99 -118 101 -93 q 78 -136 97 -136 m 825 1040 q 813 1046 819 1040 q 807 1057 807 1051 q 813 1068 807 1064 q 835 1083 815 1071 q 885 1113 856 1096 q 946 1148 915 1131 q 1000 1176 976 1165 q 1032 1188 1024 1188 q 1059 1172 1040 1188 q 1099 1135 1078 1157 q 1137 1094 1119 1114 q 1161 1065 1154 1075 q 1163 1057 1163 1063 q 1156 1045 1163 1050 q 1142 1040 1149 1040 q 1125 1049 1132 1040 q 1073 1099 1101 1074 q 1024 1138 1044 1124 q 973 1113 1003 1128 q 913 1083 943 1099 q 859 1056 882 1067 q 832 1042 836 1044 q 825 1040 829 1040 z "},"I":{"ha":586,"x_min":-67,"x_max":860,"o":"m -43 -35 q -67 -11 -67 -35 q -40 11 -67 11 q 18 15 -17 11 q 79 19 53 18 q 107 97 83 46 q 169 214 131 149 q 257 349 208 279 l 489 679 q 531 745 504 703 q 596 849 558 788 q 520 842 554 846 q 460 833 486 838 q 408 825 421 828 q 389 822 396 822 q 365 849 365 822 q 385 868 365 864 q 545 892 467 883 q 700 900 624 900 q 822 888 775 900 q 852 874 844 881 q 860 856 860 867 q 839 833 860 833 q 819 839 832 833 q 781 849 807 844 q 704 854 756 854 q 670 854 685 854 q 646 853 656 854 q 593 750 644 824 l 524 651 l 346 392 q 254 253 296 319 q 176 128 213 186 q 131 26 156 93 q 218 34 183 32 q 268 36 253 36 q 323 34 299 36 q 365 29 347 32 q 386 8 386 25 q 361 -14 386 -14 q 319 -12 344 -14 q 274 -10 293 -10 q 121 -22 211 -10 q 101 -33 114 -33 q 85 -24 90 -33 q 11 -32 43 -29 q -43 -35 -21 -35 z "},"Í":{"ha":586,"x_min":-67,"x_max":860,"o":"m -43 -35 q -67 -11 -67 -35 q -40 11 -67 11 q 18 15 -17 11 q 79 19 53 18 q 107 97 83 46 q 169 214 131 149 q 257 349 208 279 l 489 679 q 531 745 504 703 q 596 849 558 788 q 520 842 554 846 q 460 833 486 838 q 408 825 421 828 q 389 822 396 822 q 365 849 365 822 q 385 868 365 864 q 545 892 467 883 q 700 900 624 900 q 822 888 775 900 q 852 874 844 881 q 860 856 860 867 q 839 833 860 833 q 819 839 832 833 q 781 849 807 844 q 704 854 756 854 q 670 854 685 854 q 646 853 656 854 q 593 750 644 824 l 524 651 l 346 392 q 254 253 296 319 q 176 128 213 186 q 131 26 156 93 q 218 34 183 32 q 268 36 253 36 q 323 34 299 36 q 365 29 347 32 q 386 8 386 25 q 361 -14 386 -14 q 319 -12 344 -14 q 274 -10 293 -10 q 121 -22 211 -10 q 101 -33 114 -33 q 85 -24 90 -33 q 11 -32 43 -29 q -43 -35 -21 -35 m 596 982 q 582 1001 582 988 q 590 1015 582 1011 q 635 1044 603 1024 q 703 1087 668 1064 q 760 1124 739 1110 q 792 1132 778 1136 q 804 1111 804 1125 q 788 1088 804 1097 q 748 1065 778 1082 q 681 1026 718 1047 q 608 985 643 1004 q 596 982 603 982 z "},"Ĭ":{"ha":586,"x_min":-67,"x_max":871,"o":"m -43 -35 q -67 -11 -67 -35 q -40 11 -67 11 q 18 15 -17 11 q 79 19 53 18 q 107 97 83 46 q 169 214 131 149 q 257 349 208 279 l 489 679 q 531 745 504 703 q 596 849 558 788 q 520 842 554 846 q 460 833 486 838 q 408 825 421 828 q 389 822 396 822 q 365 849 365 822 q 385 868 365 864 q 545 892 467 883 q 700 900 624 900 q 822 888 775 900 q 852 874 844 881 q 860 856 860 867 q 839 833 860 833 q 819 839 832 833 q 781 849 807 844 q 704 854 756 854 q 670 854 685 854 q 646 853 656 854 q 593 750 644 824 l 524 651 l 346 392 q 254 253 296 319 q 176 128 213 186 q 131 26 156 93 q 218 34 183 32 q 268 36 253 36 q 323 34 299 36 q 365 29 347 32 q 386 8 386 25 q 361 -14 386 -14 q 319 -12 344 -14 q 274 -10 293 -10 q 121 -22 211 -10 q 101 -33 114 -33 q 85 -24 90 -33 q 11 -32 43 -29 q -43 -35 -21 -35 m 657 982 q 568 1004 599 982 q 538 1063 538 1026 q 544 1099 538 1083 q 567 1115 550 1115 q 579 1103 579 1115 q 578 1090 579 1096 q 576 1076 576 1083 q 597 1038 576 1050 q 671 1025 617 1025 q 763 1045 719 1025 q 828 1103 806 1065 q 840 1113 832 1110 q 853 1115 847 1115 q 865 1111 860 1115 q 868 1101 871 1107 q 789 1013 849 1044 q 657 982 729 982 z "},"Ǐ":{"ha":586,"x_min":-67,"x_max":879,"o":"m 861 1129 q 874 1124 868 1129 q 879 1113 879 1119 q 874 1101 879 1106 q 851 1086 871 1099 q 801 1056 831 1074 q 740 1022 771 1039 q 686 993 710 1004 q 654 982 663 982 q 627 997 646 982 q 588 1034 608 1013 q 549 1075 567 1056 q 525 1104 532 1094 q 524 1113 524 1107 q 531 1124 524 1119 q 544 1129 538 1129 q 561 1121 556 1129 q 613 1072 585 1096 q 663 1032 642 1047 q 713 1057 683 1042 q 774 1088 743 1072 q 827 1115 804 1103 q 854 1128 850 1126 q 861 1129 857 1129 m -43 -35 q -67 -11 -67 -35 q -40 11 -67 11 q 18 15 -17 11 q 79 19 53 18 q 107 97 83 46 q 169 214 131 149 q 257 349 208 279 l 489 679 q 531 745 504 703 q 596 849 558 788 q 520 842 554 846 q 460 833 486 838 q 408 825 421 828 q 389 822 396 822 q 365 849 365 822 q 385 868 365 864 q 545 892 467 883 q 700 900 624 900 q 822 888 775 900 q 852 874 844 881 q 860 856 860 867 q 839 833 860 833 q 819 839 832 833 q 781 849 807 844 q 704 854 756 854 q 670 854 685 854 q 646 853 656 854 q 593 750 644 824 l 524 651 l 346 392 q 254 253 296 319 q 176 128 213 186 q 131 26 156 93 q 218 34 183 32 q 268 36 253 36 q 323 34 299 36 q 365 29 347 32 q 386 8 386 25 q 361 -14 386 -14 q 319 -12 344 -14 q 274 -10 293 -10 q 121 -22 211 -10 q 101 -33 114 -33 q 85 -24 90 -33 q 11 -32 43 -29 q -43 -35 -21 -35 z "},"Î":{"ha":586,"x_min":-67,"x_max":860,"o":"m -43 -35 q -67 -11 -67 -35 q -40 11 -67 11 q 18 15 -17 11 q 79 19 53 18 q 107 97 83 46 q 169 214 131 149 q 257 349 208 279 l 489 679 q 531 745 504 703 q 596 849 558 788 q 520 842 554 846 q 460 833 486 838 q 408 825 421 828 q 389 822 396 822 q 365 849 365 822 q 385 868 365 864 q 545 892 467 883 q 700 900 624 900 q 822 888 775 900 q 852 874 844 881 q 860 856 860 867 q 839 833 860 833 q 819 839 832 833 q 781 849 807 844 q 704 854 756 854 q 670 854 685 854 q 646 853 656 854 q 593 750 644 824 l 524 651 l 346 392 q 254 253 296 319 q 176 128 213 186 q 131 26 156 93 q 218 34 183 32 q 268 36 253 36 q 323 34 299 36 q 365 29 347 32 q 386 8 386 25 q 361 -14 386 -14 q 319 -12 344 -14 q 274 -10 293 -10 q 121 -22 211 -10 q 101 -33 114 -33 q 85 -24 90 -33 q 11 -32 43 -29 q -43 -35 -21 -35 m 493 974 q 481 979 488 974 q 475 990 475 985 q 481 1001 475 997 q 503 1017 483 1004 q 553 1047 524 1029 q 614 1081 583 1064 q 668 1110 644 1099 q 700 1121 692 1121 q 727 1106 708 1121 q 767 1069 746 1090 q 805 1028 788 1047 q 829 999 822 1008 q 831 990 831 996 q 824 978 831 983 q 810 974 817 974 q 793 982 800 974 q 741 1032 769 1007 q 692 1071 713 1057 q 641 1047 671 1061 q 581 1016 611 1032 q 527 989 550 1000 q 500 975 504 978 q 493 974 497 974 z "},"Ȉ":{"ha":586,"x_min":-67,"x_max":860,"o":"m -43 -35 q -67 -11 -67 -35 q -40 11 -67 11 q 18 15 -17 11 q 79 19 53 18 q 107 97 83 46 q 169 214 131 149 q 257 349 208 279 l 489 679 q 531 745 504 703 q 596 849 558 788 q 520 842 554 846 q 460 833 486 838 q 408 825 421 828 q 389 822 396 822 q 365 849 365 822 q 385 868 365 864 q 545 892 467 883 q 700 900 624 900 q 822 888 775 900 q 852 874 844 881 q 860 856 860 867 q 839 833 860 833 q 819 839 832 833 q 781 849 807 844 q 704 854 756 854 q 670 854 685 854 q 646 853 656 854 q 593 750 644 824 l 524 651 l 346 392 q 254 253 296 319 q 176 128 213 186 q 131 26 156 93 q 218 34 183 32 q 268 36 253 36 q 323 34 299 36 q 365 29 347 32 q 386 8 386 25 q 361 -14 386 -14 q 319 -12 344 -14 q 274 -10 293 -10 q 121 -22 211 -10 q 101 -33 114 -33 q 85 -24 90 -33 q 11 -32 43 -29 q -43 -35 -21 -35 m 678 979 q 667 985 672 979 q 592 1067 628 1028 q 546 1121 557 1107 q 538 1132 542 1126 q 535 1143 535 1138 q 542 1156 535 1150 q 556 1164 549 1163 q 570 1159 563 1164 q 583 1147 578 1154 q 622 1099 600 1126 q 663 1046 643 1071 q 693 1008 683 1021 q 697 994 697 1000 q 678 979 694 979 m 589 976 q 578 981 585 976 q 495 1056 535 1019 q 443 1104 456 1092 q 431 1125 431 1117 q 436 1139 431 1132 q 449 1147 442 1146 l 451 1147 q 465 1143 458 1147 q 478 1133 472 1139 q 521 1090 496 1115 q 569 1041 546 1064 q 601 1007 592 1018 q 607 994 607 1001 q 601 983 607 989 q 589 976 596 976 z "},"Ï":{"ha":586,"x_min":-67,"x_max":860,"o":"m -43 -35 q -67 -11 -67 -35 q -40 11 -67 11 q 18 15 -17 11 q 79 19 53 18 q 107 97 83 46 q 169 214 131 149 q 257 349 208 279 l 489 679 q 531 745 504 703 q 596 849 558 788 q 520 842 554 846 q 460 833 486 838 q 408 825 421 828 q 389 822 396 822 q 365 849 365 822 q 385 868 365 864 q 545 892 467 883 q 700 900 624 900 q 822 888 775 900 q 852 874 844 881 q 860 856 860 867 q 839 833 860 833 q 819 839 832 833 q 781 849 807 844 q 704 854 756 854 q 670 854 685 854 q 646 853 656 854 q 593 750 644 824 l 524 651 l 346 392 q 254 253 296 319 q 176 128 213 186 q 131 26 156 93 q 218 34 183 32 q 268 36 253 36 q 323 34 299 36 q 365 29 347 32 q 386 8 386 25 q 361 -14 386 -14 q 319 -12 344 -14 q 274 -10 293 -10 q 121 -22 211 -10 q 101 -33 114 -33 q 85 -24 90 -33 q 11 -32 43 -29 q -43 -35 -21 -35 m 740 982 q 719 993 731 978 q 707 1024 707 1008 q 718 1047 707 1038 q 732 1058 729 1057 q 745 1060 739 1060 q 757 1061 751 1061 q 781 1042 781 1061 q 778 1026 781 1038 q 767 1002 775 1014 q 740 982 760 990 m 579 982 q 558 993 569 978 q 546 1024 546 1008 q 557 1047 546 1038 q 571 1058 568 1057 q 584 1060 578 1060 q 596 1061 590 1061 q 619 1042 619 1061 q 617 1026 619 1038 q 606 1002 614 1014 q 579 982 599 990 z "},"İ":{"ha":586,"x_min":-67,"x_max":860,"o":"m -43 -35 q -67 -11 -67 -35 q -40 11 -67 11 q 18 15 -17 11 q 79 19 53 18 q 107 97 83 46 q 169 214 131 149 q 257 349 208 279 l 489 679 q 531 745 504 703 q 596 849 558 788 q 520 842 554 846 q 460 833 486 838 q 408 825 421 828 q 389 822 396 822 q 365 849 365 822 q 385 868 365 864 q 545 892 467 883 q 700 900 624 900 q 822 888 775 900 q 852 874 844 881 q 860 856 860 867 q 839 833 860 833 q 819 839 832 833 q 781 849 807 844 q 704 854 756 854 q 670 854 685 854 q 646 853 656 854 q 593 750 644 824 l 524 651 l 346 392 q 254 253 296 319 q 176 128 213 186 q 131 26 156 93 q 218 34 183 32 q 268 36 253 36 q 323 34 299 36 q 365 29 347 32 q 386 8 386 25 q 361 -14 386 -14 q 319 -12 344 -14 q 274 -10 293 -10 q 121 -22 211 -10 q 101 -33 114 -33 q 85 -24 90 -33 q 11 -32 43 -29 q -43 -35 -21 -35 m 653 982 q 631 993 643 978 q 619 1024 619 1008 q 631 1047 619 1038 q 644 1058 642 1057 q 658 1060 651 1060 q 669 1061 664 1061 q 693 1042 693 1061 q 690 1026 693 1038 q 680 1002 688 1014 q 653 982 672 990 z "},"Ị":{"ha":586,"x_min":-67,"x_max":860,"o":"m -43 -35 q -67 -11 -67 -35 q -40 11 -67 11 q 18 15 -17 11 q 79 19 53 18 q 107 97 83 46 q 169 214 131 149 q 257 349 208 279 l 489 679 q 531 745 504 703 q 596 849 558 788 q 520 842 554 846 q 460 833 486 838 q 408 825 421 828 q 389 822 396 822 q 365 849 365 822 q 385 868 365 864 q 545 892 467 883 q 700 900 624 900 q 822 888 775 900 q 852 874 844 881 q 860 856 860 867 q 839 833 860 833 q 819 839 832 833 q 781 849 807 844 q 704 854 756 854 q 670 854 685 854 q 646 853 656 854 q 593 750 644 824 l 524 651 l 346 392 q 254 253 296 319 q 176 128 213 186 q 131 26 156 93 q 218 34 183 32 q 268 36 253 36 q 323 34 299 36 q 365 29 347 32 q 386 8 386 25 q 361 -14 386 -14 q 319 -12 344 -14 q 274 -10 293 -10 q 121 -22 211 -10 q 101 -33 114 -33 q 85 -24 90 -33 q 11 -32 43 -29 q -43 -35 -21 -35 m 51 -200 q 30 -189 42 -204 q 18 -158 18 -174 q 29 -135 18 -144 q 43 -124 40 -125 q 56 -122 50 -122 q 68 -121 63 -121 q 92 -140 92 -121 q 89 -156 92 -144 q 78 -180 86 -168 q 51 -200 71 -192 z "},"Ì":{"ha":586,"x_min":-67,"x_max":860,"o":"m -43 -35 q -67 -11 -67 -35 q -40 11 -67 11 q 18 15 -17 11 q 79 19 53 18 q 107 97 83 46 q 169 214 131 149 q 257 349 208 279 l 489 679 q 531 745 504 703 q 596 849 558 788 q 520 842 554 846 q 460 833 486 838 q 408 825 421 828 q 389 822 396 822 q 365 849 365 822 q 385 868 365 864 q 545 892 467 883 q 700 900 624 900 q 822 888 775 900 q 852 874 844 881 q 860 856 860 867 q 839 833 860 833 q 819 839 832 833 q 781 849 807 844 q 704 854 756 854 q 670 854 685 854 q 646 853 656 854 q 593 750 644 824 l 524 651 l 346 392 q 254 253 296 319 q 176 128 213 186 q 131 26 156 93 q 218 34 183 32 q 268 36 253 36 q 323 34 299 36 q 365 29 347 32 q 386 8 386 25 q 361 -14 386 -14 q 319 -12 344 -14 q 274 -10 293 -10 q 121 -22 211 -10 q 101 -33 114 -33 q 85 -24 90 -33 q 11 -32 43 -29 q -43 -35 -21 -35 m 701 982 q 689 985 694 982 q 617 1026 656 1004 q 549 1065 579 1047 q 510 1088 519 1082 q 499 1097 504 1092 q 493 1108 493 1103 l 493 1111 q 506 1132 493 1125 q 509 1133 507 1132 q 513 1133 511 1133 q 538 1124 524 1133 q 594 1087 560 1110 q 662 1044 629 1064 q 707 1015 694 1024 q 715 1004 713 1011 l 715 1001 q 701 982 715 988 z "},"Ỉ":{"ha":586,"x_min":-67,"x_max":860,"o":"m -43 -35 q -67 -11 -67 -35 q -40 11 -67 11 q 18 15 -17 11 q 79 19 53 18 q 107 97 83 46 q 169 214 131 149 q 257 349 208 279 l 489 679 q 531 745 504 703 q 596 849 558 788 q 520 842 554 846 q 460 833 486 838 q 408 825 421 828 q 389 822 396 822 q 365 849 365 822 q 385 868 365 864 q 545 892 467 883 q 700 900 624 900 q 822 888 775 900 q 852 874 844 881 q 860 856 860 867 q 839 833 860 833 q 819 839 832 833 q 781 849 807 844 q 704 854 756 854 q 670 854 685 854 q 646 853 656 854 q 593 750 644 824 l 524 651 l 346 392 q 254 253 296 319 q 176 128 213 186 q 131 26 156 93 q 218 34 183 32 q 268 36 253 36 q 323 34 299 36 q 365 29 347 32 q 386 8 386 25 q 361 -14 386 -14 q 319 -12 344 -14 q 274 -10 293 -10 q 121 -22 211 -10 q 101 -33 114 -33 q 85 -24 90 -33 q 11 -32 43 -29 q -43 -35 -21 -35 m 679 979 q 663 993 663 979 q 669 1007 663 1001 q 718 1047 694 1025 q 742 1090 742 1068 q 708 1124 742 1124 q 667 1110 690 1124 q 636 1097 644 1097 q 622 1111 622 1097 q 640 1135 622 1122 q 677 1153 653 1143 q 726 1164 701 1164 q 772 1144 756 1164 q 788 1100 788 1125 q 760 1036 788 1063 q 699 986 732 1010 q 679 979 690 979 z "},"Ȋ":{"ha":586,"x_min":-67,"x_max":860,"o":"m 690 1106 q 779 1083 749 1106 q 810 1025 810 1061 q 803 988 810 1004 q 781 972 797 972 q 768 985 768 972 q 769 999 768 992 q 771 1011 771 1006 q 751 1051 771 1039 q 676 1063 731 1063 q 585 1042 628 1063 q 519 985 542 1022 q 508 975 515 978 q 494 972 501 972 q 483 976 489 972 q 479 986 478 981 q 558 1074 499 1043 q 690 1106 618 1106 m -43 -35 q -67 -11 -67 -35 q -40 11 -67 11 q 18 15 -17 11 q 79 19 53 18 q 107 97 83 46 q 169 214 131 149 q 257 349 208 279 l 489 679 q 531 745 504 703 q 596 849 558 788 q 520 842 554 846 q 460 833 486 838 q 408 825 421 828 q 389 822 396 822 q 365 849 365 822 q 385 868 365 864 q 545 892 467 883 q 700 900 624 900 q 822 888 775 900 q 852 874 844 881 q 860 856 860 867 q 839 833 860 833 q 819 839 832 833 q 781 849 807 844 q 704 854 756 854 q 670 854 685 854 q 646 853 656 854 q 593 750 644 824 l 524 651 l 346 392 q 254 253 296 319 q 176 128 213 186 q 131 26 156 93 q 218 34 183 32 q 268 36 253 36 q 323 34 299 36 q 365 29 347 32 q 386 8 386 25 q 361 -14 386 -14 q 319 -12 344 -14 q 274 -10 293 -10 q 121 -22 211 -10 q 101 -33 114 -33 q 85 -24 90 -33 q 11 -32 43 -29 q -43 -35 -21 -35 z "},"Ī":{"ha":586,"x_min":-67,"x_max":860,"o":"m -43 -35 q -67 -11 -67 -35 q -40 11 -67 11 q 18 15 -17 11 q 79 19 53 18 q 107 97 83 46 q 169 214 131 149 q 257 349 208 279 l 489 679 q 531 745 504 703 q 596 849 558 788 q 520 842 554 846 q 460 833 486 838 q 408 825 421 828 q 389 822 396 822 q 365 849 365 822 q 385 868 365 864 q 545 892 467 883 q 700 900 624 900 q 822 888 775 900 q 852 874 844 881 q 860 856 860 867 q 839 833 860 833 q 819 839 832 833 q 781 849 807 844 q 704 854 756 854 q 670 854 685 854 q 646 853 656 854 q 593 750 644 824 l 524 651 l 346 392 q 254 253 296 319 q 176 128 213 186 q 131 26 156 93 q 218 34 183 32 q 268 36 253 36 q 323 34 299 36 q 365 29 347 32 q 386 8 386 25 q 361 -14 386 -14 q 319 -12 344 -14 q 274 -10 293 -10 q 121 -22 211 -10 q 101 -33 114 -33 q 85 -24 90 -33 q 11 -32 43 -29 q -43 -35 -21 -35 m 504 982 q 489 986 496 982 q 482 999 482 990 q 488 1013 482 1006 q 504 1021 494 1019 q 538 1023 514 1022 q 590 1024 561 1024 q 640 1024 618 1024 q 693 1024 664 1024 q 749 1023 722 1024 q 790 1021 776 1022 q 810 1000 810 1018 q 790 982 810 982 q 722 984 764 983 q 650 985 679 985 q 576 984 619 985 q 504 982 533 983 z "},"Į":{"ha":586,"x_min":-67,"x_max":860,"o":"m -43 -35 q -67 -11 -67 -35 q -40 11 -67 11 q 18 15 -17 11 q 79 19 53 18 q 107 97 83 46 q 169 214 131 149 q 257 349 208 279 l 489 679 q 531 745 504 703 q 596 849 558 788 q 520 842 554 846 q 460 833 486 838 q 408 825 421 828 q 389 822 396 822 q 365 849 365 822 q 385 868 365 864 q 545 892 467 883 q 700 900 624 900 q 822 888 775 900 q 852 874 844 881 q 860 856 860 867 q 839 833 860 833 q 819 839 832 833 q 781 849 807 844 q 704 854 756 854 q 670 854 685 854 q 646 853 656 854 q 593 750 644 824 l 524 651 l 346 392 q 254 253 296 319 q 176 128 213 186 q 131 26 156 93 q 218 34 183 32 q 268 36 253 36 q 323 34 299 36 q 365 29 347 32 q 386 8 386 25 q 361 -14 386 -14 q 319 -12 344 -14 q 274 -10 293 -10 q 121 -22 211 -10 q 101 -33 114 -33 q 85 -24 90 -33 q 11 -32 43 -29 q -43 -35 -21 -35 m 110 -228 q 45 -204 71 -228 q 19 -150 19 -181 q 33 -89 19 -118 q 65 -38 47 -60 q 92 -10 82 -17 q 111 -3 100 -3 q 128 -15 128 -3 q 122 -26 128 -21 q 85 -75 106 -44 q 64 -135 64 -106 q 81 -174 64 -160 q 125 -187 99 -187 q 158 -183 142 -187 q 185 -174 174 -179 q 196 -171 193 -171 q 210 -185 210 -171 q 201 -201 210 -194 q 167 -219 192 -210 q 110 -228 142 -228 z "},"Ĩ":{"ha":586,"x_min":-67,"x_max":860,"o":"m -43 -35 q -67 -11 -67 -35 q -40 11 -67 11 q 18 15 -17 11 q 79 19 53 18 q 107 97 83 46 q 169 214 131 149 q 257 349 208 279 l 489 679 q 531 745 504 703 q 596 849 558 788 q 520 842 554 846 q 460 833 486 838 q 408 825 421 828 q 389 822 396 822 q 365 849 365 822 q 385 868 365 864 q 545 892 467 883 q 700 900 624 900 q 822 888 775 900 q 852 874 844 881 q 860 856 860 867 q 839 833 860 833 q 819 839 832 833 q 781 849 807 844 q 704 854 756 854 q 670 854 685 854 q 646 853 656 854 q 593 750 644 824 l 524 651 l 346 392 q 254 253 296 319 q 176 128 213 186 q 131 26 156 93 q 218 34 183 32 q 268 36 253 36 q 323 34 299 36 q 365 29 347 32 q 386 8 386 25 q 361 -14 386 -14 q 319 -12 344 -14 q 274 -10 293 -10 q 121 -22 211 -10 q 101 -33 114 -33 q 85 -24 90 -33 q 11 -32 43 -29 q -43 -35 -21 -35 m 518 976 q 507 980 513 976 q 504 993 501 983 q 518 1024 508 1006 q 549 1056 528 1042 q 603 1069 569 1069 q 656 1060 628 1069 q 710 1040 685 1050 q 754 1029 736 1029 q 789 1044 778 1029 q 807 1069 800 1060 q 821 1076 814 1076 q 835 1054 840 1076 q 807 1009 828 1032 q 747 986 786 986 q 699 997 728 986 q 640 1017 669 1007 q 588 1028 610 1028 q 558 1015 568 1028 q 538 986 547 1001 q 518 976 532 976 z "},"J":{"ha":772,"x_min":17,"x_max":1078,"o":"m 150 -43 q 53 -7 90 -43 q 17 89 17 29 q 35 176 17 132 q 81 260 53 221 q 140 326 110 300 q 182 349 164 349 q 200 331 200 349 q 176 293 200 314 q 99 194 129 253 q 68 86 68 136 q 153 7 68 7 q 253 40 203 7 q 354 128 304 74 q 451 251 404 183 q 539 388 497 319 q 785 882 724 686 q 730 871 767 881 q 638 843 693 861 q 558 817 585 826 q 522 808 532 808 q 496 832 496 808 q 514 856 496 844 q 591 890 543 874 q 700 917 639 906 q 906 938 807 938 q 988 933 946 938 q 1054 924 1029 929 q 1078 900 1078 919 q 1058 879 1078 879 q 1015 885 1053 879 q 915 892 978 892 q 828 888 872 892 q 833 874 833 882 q 828 856 833 869 q 819 832 824 843 q 728 622 783 731 q 601 393 674 513 q 497 233 551 311 q 385 93 443 156 q 269 -6 328 31 q 150 -43 210 -43 z "},"Ĵ":{"ha":772,"x_min":17,"x_max":1078,"o":"m 150 -43 q 53 -7 90 -43 q 17 89 17 29 q 35 176 17 132 q 81 260 53 221 q 140 326 110 300 q 182 349 164 349 q 200 331 200 349 q 176 293 200 314 q 99 194 129 253 q 68 86 68 136 q 153 7 68 7 q 253 40 203 7 q 354 128 304 74 q 451 251 404 183 q 539 388 497 319 q 785 882 724 686 q 730 871 767 881 q 638 843 693 861 q 558 817 585 826 q 522 808 532 808 q 496 832 496 808 q 514 856 496 844 q 591 890 543 874 q 700 917 639 906 q 906 938 807 938 q 988 933 946 938 q 1054 924 1029 929 q 1078 900 1078 919 q 1058 879 1078 879 q 1015 885 1053 879 q 915 892 978 892 q 828 888 872 892 q 833 874 833 882 q 828 856 833 869 q 819 832 824 843 q 728 622 783 731 q 601 393 674 513 q 497 233 551 311 q 385 93 443 156 q 269 -6 328 31 q 150 -43 210 -43 m 676 1013 q 665 1018 671 1013 q 658 1029 658 1024 q 664 1040 658 1036 q 687 1056 667 1043 q 737 1085 707 1068 q 797 1120 767 1103 q 851 1149 828 1138 q 883 1160 875 1160 q 910 1144 892 1160 q 950 1108 929 1129 q 988 1067 971 1086 q 1013 1038 1006 1047 q 1014 1029 1014 1035 q 1007 1017 1014 1022 q 993 1013 1000 1013 q 976 1021 983 1013 q 924 1071 953 1046 q 875 1110 896 1096 q 824 1085 854 1100 q 764 1055 794 1071 q 710 1028 733 1039 q 683 1014 688 1017 q 676 1013 681 1013 z "},"K":{"ha":972,"x_min":33,"x_max":1243,"o":"m 65 -60 q 44 -51 56 -60 q 33 -32 33 -42 q 49 31 33 -12 q 92 129 65 74 q 149 239 118 185 l 303 511 q 492 897 481 828 q 511 919 493 919 q 532 908 526 919 q 538 883 538 896 q 519 804 538 856 q 458 679 500 753 l 344 481 q 233 285 274 357 q 168 171 192 214 q 107 44 133 104 q 78 -44 81 -15 q 65 -60 78 -60 m 711 -24 q 688 -8 688 -24 q 702 17 688 -1 q 731 57 717 35 q 791 174 763 108 q 819 294 819 239 q 790 380 819 347 q 710 428 760 413 q 601 444 661 444 q 444 413 544 444 q 329 381 344 381 q 307 404 307 381 q 314 420 307 407 q 331 447 321 433 q 346 463 340 461 l 379 468 l 501 517 q 658 583 579 549 q 813 653 736 617 q 1017 758 922 704 q 1189 861 1113 811 q 1209 873 1203 871 q 1221 875 1215 875 q 1243 854 1243 875 q 1222 824 1243 842 q 835 610 1132 749 q 698 556 783 590 q 510 479 613 521 q 576 488 543 488 q 722 469 654 488 q 833 409 790 450 q 875 300 875 368 q 851 183 875 246 q 786 57 826 121 l 749 -1 q 711 -24 735 -24 z "},"Ķ":{"ha":972,"x_min":33,"x_max":1243,"o":"m 65 -60 q 44 -51 56 -60 q 33 -32 33 -42 q 49 31 33 -12 q 92 129 65 74 q 149 239 118 185 l 303 511 q 492 897 481 828 q 511 919 493 919 q 532 908 526 919 q 538 883 538 896 q 519 804 538 856 q 458 679 500 753 l 344 481 q 233 285 274 357 q 168 171 192 214 q 107 44 133 104 q 78 -44 81 -15 q 65 -60 78 -60 m 711 -24 q 688 -8 688 -24 q 702 17 688 -1 q 731 57 717 35 q 791 174 763 108 q 819 294 819 239 q 790 380 819 347 q 710 428 760 413 q 601 444 661 444 q 444 413 544 444 q 329 381 344 381 q 307 404 307 381 q 314 420 307 407 q 331 447 321 433 q 346 463 340 461 l 379 468 l 501 517 q 658 583 579 549 q 813 653 736 617 q 1017 758 922 704 q 1189 861 1113 811 q 1209 873 1203 871 q 1221 875 1215 875 q 1243 854 1243 875 q 1222 824 1243 842 q 835 610 1132 749 q 698 556 783 590 q 510 479 613 521 q 576 488 543 488 q 722 469 654 488 q 833 409 790 450 q 875 300 875 368 q 851 183 875 246 q 786 57 826 121 l 749 -1 q 711 -24 735 -24 m 374 -97 q 397 -109 390 -97 q 404 -136 404 -121 q 368 -226 404 -179 q 282 -312 332 -274 q 267 -318 275 -318 q 254 -307 254 -318 q 260 -296 254 -301 q 297 -251 278 -276 q 331 -202 317 -226 q 344 -162 344 -178 q 340 -145 344 -151 q 335 -131 335 -139 q 345 -107 335 -117 q 374 -97 356 -97 z "},"L":{"ha":861,"x_min":-3,"x_max":842,"o":"m 32 -60 q 10 -50 22 -60 q -3 -29 -3 -40 q 25 35 -3 -17 q 114 189 53 86 q 274 456 175 292 l 456 760 q 493 825 471 788 q 547 914 515 863 q 565 926 556 926 q 585 917 575 926 q 594 899 594 908 q 525 776 594 893 q 315 426 456 658 q 201 233 263 339 q 69 4 139 128 q 689 113 472 113 q 798 91 754 113 q 842 49 842 69 q 818 25 842 25 q 799 46 799 25 l 799 50 q 751 61 785 57 q 675 65 718 65 q 556 56 622 65 q 420 34 489 47 q 292 7 351 21 q 181 -20 233 -6 q 85 -46 129 -35 q 47 -56 58 -51 q 32 -60 35 -60 z "},"Ǉ":{"ha":1633,"x_min":-3,"x_max":1939,"o":"m 32 -60 q 10 -50 22 -60 q -3 -29 -3 -40 q 25 35 -3 -17 q 114 189 53 86 q 274 456 175 292 l 456 760 q 493 825 471 788 q 547 914 515 863 q 565 926 556 926 q 585 917 575 926 q 594 899 594 908 q 525 776 594 893 q 315 426 456 658 q 201 233 263 339 q 69 4 139 128 q 689 113 472 113 q 798 91 754 113 q 842 49 842 69 q 818 25 842 25 q 799 46 799 25 l 799 50 q 751 61 785 57 q 675 65 718 65 q 556 56 622 65 q 420 34 489 47 q 292 7 351 21 q 181 -20 233 -6 q 85 -46 129 -35 q 47 -56 58 -51 q 32 -60 35 -60 m 1011 -43 q 915 -7 951 -43 q 878 89 878 29 q 896 176 878 132 q 942 260 914 221 q 1001 326 971 300 q 1043 349 1025 349 q 1061 331 1061 349 q 1038 293 1061 314 q 960 194 990 253 q 929 86 929 136 q 1014 7 929 7 q 1115 40 1064 7 q 1215 128 1165 74 q 1312 251 1265 183 q 1400 388 1358 319 q 1646 882 1585 686 q 1591 871 1628 881 q 1499 843 1554 861 q 1419 817 1446 826 q 1383 808 1393 808 q 1357 832 1357 808 q 1375 856 1357 844 q 1452 890 1404 874 q 1561 917 1500 906 q 1767 938 1668 938 q 1849 933 1807 938 q 1915 924 1890 929 q 1939 900 1939 919 q 1919 879 1939 879 q 1876 885 1914 879 q 1776 892 1839 892 q 1689 888 1733 892 q 1694 874 1694 882 q 1690 856 1694 869 q 1681 832 1685 843 q 1590 622 1644 731 q 1463 393 1535 513 q 1358 233 1413 311 q 1247 93 1304 156 q 1130 -6 1189 31 q 1011 -43 1071 -43 z "},"Ĺ":{"ha":861,"x_min":-3,"x_max":842,"o":"m 32 -60 q 10 -50 22 -60 q -3 -29 -3 -40 q 25 35 -3 -17 q 114 189 53 86 q 274 456 175 292 l 456 760 q 493 825 471 788 q 547 914 515 863 q 565 926 556 926 q 585 917 575 926 q 594 899 594 908 q 525 776 594 893 q 315 426 456 658 q 201 233 263 339 q 69 4 139 128 q 689 113 472 113 q 798 91 754 113 q 842 49 842 69 q 818 25 842 25 q 799 46 799 25 l 799 50 q 751 61 785 57 q 675 65 718 65 q 556 56 622 65 q 420 34 489 47 q 292 7 351 21 q 181 -20 233 -6 q 85 -46 129 -35 q 47 -56 58 -51 q 32 -60 35 -60 m 533 1010 q 519 1029 519 1015 q 528 1043 519 1039 q 573 1072 540 1051 q 641 1115 606 1092 q 697 1151 676 1138 q 729 1160 715 1164 q 742 1139 742 1153 q 725 1115 742 1125 q 685 1092 715 1110 q 618 1053 656 1075 q 546 1013 581 1032 q 533 1010 540 1010 z "},"Ľ":{"ha":861,"x_min":-3,"x_max":888,"o":"m 32 -60 q 10 -50 22 -60 q -3 -29 -3 -40 q 25 35 -3 -17 q 114 189 53 86 q 274 456 175 292 l 456 760 q 493 825 471 788 q 547 914 515 863 q 565 926 556 926 q 585 917 575 926 q 594 899 594 908 q 525 776 594 893 q 315 426 456 658 q 201 233 263 339 q 69 4 139 128 q 689 113 472 113 q 798 91 754 113 q 842 49 842 69 q 818 25 842 25 q 799 46 799 25 l 799 50 q 751 61 785 57 q 675 65 718 65 q 556 56 622 65 q 420 34 489 47 q 292 7 351 21 q 181 -20 233 -6 q 85 -46 129 -35 q 47 -56 58 -51 q 32 -60 35 -60 m 781 676 q 772 686 772 676 q 775 703 772 692 q 788 729 778 714 q 826 805 815 772 q 838 893 838 838 q 861 917 838 917 q 888 893 888 917 q 865 778 888 831 q 794 683 843 725 q 781 676 783 676 z "},"Ļ":{"ha":861,"x_min":-3,"x_max":842,"o":"m 32 -60 q 10 -50 22 -60 q -3 -29 -3 -40 q 25 35 -3 -17 q 114 189 53 86 q 274 456 175 292 l 456 760 q 493 825 471 788 q 547 914 515 863 q 565 926 556 926 q 585 917 575 926 q 594 899 594 908 q 525 776 594 893 q 315 426 456 658 q 201 233 263 339 q 69 4 139 128 q 689 113 472 113 q 798 91 754 113 q 842 49 842 69 q 818 25 842 25 q 799 46 799 25 l 799 50 q 751 61 785 57 q 675 65 718 65 q 556 56 622 65 q 420 34 489 47 q 292 7 351 21 q 181 -20 233 -6 q 85 -46 129 -35 q 47 -56 58 -51 q 32 -60 35 -60 m 419 -64 q 443 -76 436 -64 q 450 -103 450 -87 q 414 -193 450 -146 q 328 -279 378 -240 q 313 -285 321 -285 q 300 -274 300 -285 q 306 -262 300 -268 q 343 -218 324 -243 q 376 -169 363 -193 q 390 -129 390 -144 q 385 -112 390 -118 q 381 -97 381 -106 q 391 -74 381 -83 q 419 -64 401 -64 z "},"Ŀ":{"ha":861,"x_min":-3,"x_max":842,"o":"m 32 -60 q 10 -50 22 -60 q -3 -29 -3 -40 q 25 35 -3 -17 q 114 189 53 86 q 274 456 175 292 l 456 760 q 493 825 471 788 q 547 914 515 863 q 565 926 556 926 q 585 917 575 926 q 594 899 594 908 q 525 776 594 893 q 315 426 456 658 q 201 233 263 339 q 69 4 139 128 q 689 113 472 113 q 798 91 754 113 q 842 49 842 69 q 818 25 842 25 q 799 46 799 25 l 799 50 q 751 61 785 57 q 675 65 718 65 q 556 56 622 65 q 420 34 489 47 q 292 7 351 21 q 181 -20 233 -6 q 85 -46 129 -35 q 47 -56 58 -51 q 32 -60 35 -60 m 415 446 q 378 481 378 446 q 413 518 378 518 q 450 483 450 518 q 415 446 450 446 z "},"ǈ":{"ha":1110,"x_min":-3,"x_max":1296,"o":"m 32 -60 q 10 -50 22 -60 q -3 -29 -3 -40 q 25 35 -3 -17 q 114 189 53 86 q 274 456 175 292 l 456 760 q 493 825 471 788 q 547 914 515 863 q 565 926 556 926 q 585 917 575 926 q 594 899 594 908 q 525 776 594 893 q 315 426 456 658 q 201 233 263 339 q 69 4 139 128 q 689 113 472 113 q 798 91 754 113 q 842 49 842 69 q 818 25 842 25 q 799 46 799 25 l 799 50 q 751 61 785 57 q 675 65 718 65 q 556 56 622 65 q 420 34 489 47 q 292 7 351 21 q 181 -20 233 -6 q 85 -46 129 -35 q 47 -56 58 -51 q 32 -60 35 -60 m 1178 547 q 1154 571 1154 547 q 1164 597 1154 578 q 1186 635 1174 615 q 1206 661 1199 654 q 1242 694 1229 688 q 1267 701 1256 701 q 1296 675 1296 701 q 1284 652 1296 665 q 1257 628 1272 639 q 1229 606 1235 614 l 1199 563 q 1192 552 1197 557 q 1178 547 1188 547 m 688 -462 q 626 -437 650 -462 q 590 -374 601 -411 q 578 -304 578 -337 q 586 -231 578 -264 q 622 -182 597 -182 q 644 -203 644 -182 q 639 -218 644 -208 q 631 -235 633 -228 q 622 -292 622 -257 q 639 -374 622 -335 q 692 -414 656 -414 q 747 -392 719 -414 q 801 -335 775 -369 q 848 -264 826 -301 q 883 -194 869 -226 q 922 -101 903 -151 q 958 -6 942 -51 q 979 68 974 40 q 1002 178 990 124 q 1026 289 1014 233 q 1074 426 1050 388 q 1117 465 1097 465 q 1140 457 1126 465 q 1153 438 1153 449 q 1125 385 1153 432 q 1101 343 1110 358 q 1090 322 1093 328 q 1078 281 1086 313 q 1059 205 1069 249 q 1038 115 1049 161 q 1017 31 1026 69 q 1001 -28 1008 -7 q 949 -169 979 -100 q 883 -296 918 -239 q 688 -462 782 -462 z "},"Ł":{"ha":901,"x_min":-3,"x_max":842,"o":"m 32 -60 q 10 -50 22 -60 q -3 -29 -3 -40 q 35 54 -3 -14 q 160 265 74 122 l 104 254 q 78 272 83 249 q 96 299 74 294 l 192 318 q 231 384 210 350 q 274 456 251 418 l 456 760 q 493 825 471 788 q 547 914 515 863 q 565 926 556 926 q 585 917 575 926 q 594 899 594 908 q 525 776 594 893 q 315 426 456 658 q 258 333 288 382 l 439 371 q 464 354 460 375 q 446 325 469 329 l 228 279 q 152 148 192 217 q 69 4 113 79 q 689 113 472 113 q 798 91 754 113 q 842 49 842 69 q 818 25 842 25 q 799 46 799 25 l 799 50 q 751 61 785 57 q 675 65 718 65 q 556 56 622 65 q 420 34 489 47 q 292 7 351 21 q 181 -20 233 -6 q 85 -46 129 -35 q 47 -56 58 -51 q 32 -60 35 -60 z "},"M":{"ha":1574,"x_min":17,"x_max":1561,"o":"m 44 -74 q 17 -47 17 -74 q 23 -27 17 -40 q 42 10 29 -14 l 121 157 q 233 369 185 272 q 315 542 281 465 q 419 901 419 779 q 431 921 419 910 q 454 932 443 932 q 471 900 471 932 q 406 626 471 810 q 351 492 379 557 q 293 365 324 426 q 417 506 353 438 q 550 638 481 574 q 850 831 756 831 q 910 753 910 831 q 828 453 910 669 q 711 140 722 181 q 1353 697 1026 522 q 1447 744 1397 721 q 1522 767 1496 767 q 1561 719 1561 767 q 1553 663 1561 696 q 1525 589 1544 629 l 1397 318 q 1358 232 1379 279 q 1317 138 1336 185 q 1286 55 1299 92 q 1274 -1 1274 18 q 1292 -24 1274 -24 q 1362 10 1319 -24 q 1453 94 1404 43 q 1472 114 1460 103 q 1493 125 1483 125 q 1515 100 1515 125 q 1513 91 1515 96 q 1500 76 1510 86 q 1464 40 1482 58 q 1431 8 1446 22 q 1355 -47 1394 -22 q 1279 -71 1315 -71 q 1222 -7 1222 -71 q 1250 114 1222 32 q 1335 321 1278 196 l 1481 638 q 1500 683 1496 669 q 1504 701 1504 696 q 1497 710 1504 710 q 1483 706 1494 710 q 1442 689 1471 703 q 1256 585 1357 650 q 1067 443 1154 519 q 940 326 996 382 q 832 211 885 271 q 715 75 779 151 q 690 47 697 54 q 668 39 683 39 q 644 64 644 39 q 656 133 644 90 q 683 221 667 176 l 786 496 q 842 664 824 597 q 860 764 860 731 q 836 792 860 792 q 629 644 790 792 q 525 546 574 593 q 436 454 476 499 q 338 343 382 396 q 252 234 293 290 q 168 110 211 178 q 75 -49 125 42 q 44 -74 61 -74 z "},"N":{"ha":1068,"x_min":10,"x_max":1261,"o":"m 42 -72 q 20 -62 31 -72 q 10 -43 10 -53 q 14 -22 10 -33 q 24 6 18 -10 q 244 485 107 260 q 514 850 417 765 q 549 878 540 872 q 565 885 558 885 q 599 856 599 885 q 597 799 599 839 q 596 701 596 758 q 619 413 596 582 q 692 54 643 244 q 857 290 786 183 q 981 492 928 396 q 1060 637 1019 561 q 1137 782 1101 713 q 1194 906 1172 851 q 1215 989 1215 961 q 1233 1008 1215 1008 q 1261 982 1261 1008 q 1238 884 1261 942 q 1167 736 1215 826 q 1040 506 1118 646 q 930 313 978 392 q 829 160 882 235 q 776 85 807 131 q 706 -21 746 40 q 681 -37 696 -37 q 664 -31 669 -37 q 653 -6 658 -24 q 609 163 629 71 q 574 353 589 256 q 550 542 558 450 q 542 713 542 635 l 542 810 q 285 460 429 701 q 153 208 206 329 q 64 -37 100 86 q 42 -72 53 -72 z "},"Ǌ":{"ha":1840,"x_min":10,"x_max":2146,"o":"m 42 -72 q 20 -62 31 -72 q 10 -43 10 -53 q 14 -22 10 -33 q 24 6 18 -10 q 244 485 107 260 q 514 850 417 765 q 549 878 540 872 q 565 885 558 885 q 599 856 599 885 q 597 799 599 839 q 596 701 596 758 q 619 413 596 582 q 692 54 643 244 q 857 290 786 183 q 981 492 928 396 q 1060 637 1019 561 q 1137 782 1101 713 q 1194 906 1172 851 q 1215 989 1215 961 q 1233 1008 1215 1008 q 1261 982 1261 1008 q 1238 884 1261 942 q 1167 736 1215 826 q 1040 506 1118 646 q 930 313 978 392 q 829 160 882 235 q 776 85 807 131 q 706 -21 746 40 q 681 -37 696 -37 q 664 -31 669 -37 q 653 -6 658 -24 q 609 163 629 71 q 574 353 589 256 q 550 542 558 450 q 542 713 542 635 l 542 810 q 285 460 429 701 q 153 208 206 329 q 64 -37 100 86 q 42 -72 53 -72 m 1218 -43 q 1122 -7 1158 -43 q 1085 89 1085 29 q 1103 176 1085 132 q 1149 260 1121 221 q 1208 326 1178 300 q 1250 349 1232 349 q 1268 331 1268 349 q 1244 293 1268 314 q 1167 194 1197 253 q 1136 86 1136 136 q 1221 7 1136 7 q 1322 40 1271 7 q 1422 128 1372 74 q 1519 251 1472 183 q 1607 388 1565 319 q 1853 882 1792 686 q 1798 871 1835 881 q 1706 843 1761 861 q 1626 817 1653 826 q 1590 808 1600 808 q 1564 832 1564 808 q 1582 856 1564 844 q 1659 890 1611 874 q 1768 917 1707 906 q 1974 938 1875 938 q 2056 933 2014 938 q 2122 924 2097 929 q 2146 900 2146 919 q 2126 879 2146 879 q 2083 885 2121 879 q 1983 892 2046 892 q 1896 888 1940 892 q 1901 874 1901 882 q 1897 856 1901 869 q 1888 832 1892 843 q 1797 622 1851 731 q 1669 393 1742 513 q 1565 233 1619 311 q 1453 93 1511 156 q 1337 -6 1396 31 q 1218 -43 1278 -43 z "},"Ń":{"ha":1068,"x_min":10,"x_max":1261,"o":"m 42 -72 q 20 -62 31 -72 q 10 -43 10 -53 q 14 -22 10 -33 q 24 6 18 -10 q 244 485 107 260 q 514 850 417 765 q 549 878 540 872 q 565 885 558 885 q 599 856 599 885 q 597 799 599 839 q 596 701 596 758 q 619 413 596 582 q 692 54 643 244 q 857 290 786 183 q 981 492 928 396 q 1060 637 1019 561 q 1137 782 1101 713 q 1194 906 1172 851 q 1215 989 1215 961 q 1233 1008 1215 1008 q 1261 982 1261 1008 q 1238 884 1261 942 q 1167 736 1215 826 q 1040 506 1118 646 q 930 313 978 392 q 829 160 882 235 q 776 85 807 131 q 706 -21 746 40 q 681 -37 696 -37 q 664 -31 669 -37 q 653 -6 658 -24 q 609 163 629 71 q 574 353 589 256 q 550 542 558 450 q 542 713 542 635 l 542 810 q 285 460 429 701 q 153 208 206 329 q 64 -37 100 86 q 42 -72 53 -72 m 854 1049 q 840 1068 840 1054 q 849 1082 840 1078 q 894 1110 861 1090 q 962 1153 926 1131 q 1018 1190 997 1176 q 1050 1199 1036 1203 q 1063 1178 1063 1192 q 1046 1154 1063 1164 q 1006 1131 1036 1149 q 939 1092 976 1114 q 867 1051 901 1071 q 854 1049 861 1049 z "},"Ň":{"ha":1068,"x_min":10,"x_max":1261,"o":"m 1119 1196 q 1132 1191 1126 1196 q 1138 1179 1138 1186 q 1132 1168 1138 1172 q 1109 1153 1129 1165 q 1059 1123 1089 1140 q 999 1088 1029 1106 q 944 1060 968 1071 q 913 1049 921 1049 q 885 1064 904 1049 q 846 1101 867 1079 q 808 1142 825 1122 q 783 1171 790 1161 q 782 1179 782 1174 q 789 1191 782 1186 q 803 1196 796 1196 q 819 1188 814 1196 q 872 1138 843 1163 q 921 1099 900 1114 q 972 1124 942 1108 q 1032 1154 1001 1139 q 1085 1181 1063 1169 q 1113 1194 1108 1193 q 1119 1196 1115 1196 m 42 -72 q 20 -62 31 -72 q 10 -43 10 -53 q 14 -22 10 -33 q 24 6 18 -10 q 244 485 107 260 q 514 850 417 765 q 549 878 540 872 q 565 885 558 885 q 599 856 599 885 q 597 799 599 839 q 596 701 596 758 q 619 413 596 582 q 692 54 643 244 q 857 290 786 183 q 981 492 928 396 q 1060 637 1019 561 q 1137 782 1101 713 q 1194 906 1172 851 q 1215 989 1215 961 q 1233 1008 1215 1008 q 1261 982 1261 1008 q 1238 884 1261 942 q 1167 736 1215 826 q 1040 506 1118 646 q 930 313 978 392 q 829 160 882 235 q 776 85 807 131 q 706 -21 746 40 q 681 -37 696 -37 q 664 -31 669 -37 q 653 -6 658 -24 q 609 163 629 71 q 574 353 589 256 q 550 542 558 450 q 542 713 542 635 l 542 810 q 285 460 429 701 q 153 208 206 329 q 64 -37 100 86 q 42 -72 53 -72 z "},"Ņ":{"ha":1068,"x_min":10,"x_max":1261,"o":"m 42 -72 q 20 -62 31 -72 q 10 -43 10 -53 q 14 -22 10 -33 q 24 6 18 -10 q 244 485 107 260 q 514 850 417 765 q 549 878 540 872 q 565 885 558 885 q 599 856 599 885 q 597 799 599 839 q 596 701 596 758 q 619 413 596 582 q 692 54 643 244 q 857 290 786 183 q 981 492 928 396 q 1060 637 1019 561 q 1137 782 1101 713 q 1194 906 1172 851 q 1215 989 1215 961 q 1233 1008 1215 1008 q 1261 982 1261 1008 q 1238 884 1261 942 q 1167 736 1215 826 q 1040 506 1118 646 q 930 313 978 392 q 829 160 882 235 q 776 85 807 131 q 706 -21 746 40 q 681 -37 696 -37 q 664 -31 669 -37 q 653 -6 658 -24 q 609 163 629 71 q 574 353 589 256 q 550 542 558 450 q 542 713 542 635 l 542 810 q 285 460 429 701 q 153 208 206 329 q 64 -37 100 86 q 42 -72 53 -72 m 392 -97 q 415 -109 408 -97 q 422 -136 422 -121 q 386 -226 422 -179 q 300 -312 350 -274 q 285 -318 293 -318 q 272 -307 272 -318 q 278 -296 272 -301 q 315 -251 296 -276 q 349 -202 335 -226 q 363 -162 363 -178 q 358 -145 363 -151 q 353 -131 353 -139 q 363 -107 353 -117 q 392 -97 374 -97 z "},"ǋ":{"ha":1317,"x_min":10,"x_max":1503,"o":"m 42 -72 q 20 -62 31 -72 q 10 -43 10 -53 q 14 -22 10 -33 q 24 6 18 -10 q 244 485 107 260 q 514 850 417 765 q 549 878 540 872 q 565 885 558 885 q 599 856 599 885 q 597 799 599 839 q 596 701 596 758 q 619 413 596 582 q 692 54 643 244 q 857 290 786 183 q 981 492 928 396 q 1060 637 1019 561 q 1137 782 1101 713 q 1194 906 1172 851 q 1215 989 1215 961 q 1233 1008 1215 1008 q 1261 982 1261 1008 q 1238 884 1261 942 q 1167 736 1215 826 q 1040 506 1118 646 q 930 313 978 392 q 829 160 882 235 q 776 85 807 131 q 706 -21 746 40 q 681 -37 696 -37 q 664 -31 669 -37 q 653 -6 658 -24 q 609 163 629 71 q 574 353 589 256 q 550 542 558 450 q 542 713 542 635 l 542 810 q 285 460 429 701 q 153 208 206 329 q 64 -37 100 86 q 42 -72 53 -72 m 1385 547 q 1361 571 1361 547 q 1371 597 1361 578 q 1393 635 1381 615 q 1413 661 1406 654 q 1449 694 1436 688 q 1474 701 1463 701 q 1503 675 1503 701 q 1491 652 1503 665 q 1464 628 1479 639 q 1436 606 1442 614 l 1406 563 q 1399 552 1404 557 q 1385 547 1394 547 m 894 -462 q 833 -437 857 -462 q 797 -374 808 -411 q 785 -304 785 -337 q 793 -231 785 -264 q 829 -182 804 -182 q 851 -203 851 -182 q 846 -218 851 -208 q 838 -235 840 -228 q 829 -292 829 -257 q 846 -374 829 -335 q 899 -414 863 -414 q 954 -392 926 -414 q 1008 -335 982 -369 q 1055 -264 1033 -301 q 1090 -194 1076 -226 q 1129 -101 1110 -151 q 1165 -6 1149 -51 q 1186 68 1181 40 q 1209 178 1197 124 q 1233 289 1221 233 q 1281 426 1257 388 q 1324 465 1304 465 q 1347 457 1333 465 q 1360 438 1360 449 q 1332 385 1360 432 q 1308 343 1317 358 q 1297 322 1300 328 q 1285 281 1293 313 q 1266 205 1276 249 q 1244 115 1256 161 q 1224 31 1233 69 q 1208 -28 1215 -7 q 1156 -169 1186 -100 q 1090 -296 1125 -239 q 894 -462 989 -462 z "},"Ñ":{"ha":1068,"x_min":10,"x_max":1261,"o":"m 42 -72 q 20 -62 31 -72 q 10 -43 10 -53 q 14 -22 10 -33 q 24 6 18 -10 q 244 485 107 260 q 514 850 417 765 q 549 878 540 872 q 565 885 558 885 q 599 856 599 885 q 597 799 599 839 q 596 701 596 758 q 619 413 596 582 q 692 54 643 244 q 857 290 786 183 q 981 492 928 396 q 1060 637 1019 561 q 1137 782 1101 713 q 1194 906 1172 851 q 1215 989 1215 961 q 1233 1008 1215 1008 q 1261 982 1261 1008 q 1238 884 1261 942 q 1167 736 1215 826 q 1040 506 1118 646 q 930 313 978 392 q 829 160 882 235 q 776 85 807 131 q 706 -21 746 40 q 681 -37 696 -37 q 664 -31 669 -37 q 653 -6 658 -24 q 609 163 629 71 q 574 353 589 256 q 550 542 558 450 q 542 713 542 635 l 542 810 q 285 460 429 701 q 153 208 206 329 q 64 -37 100 86 q 42 -72 53 -72 m 776 1043 q 765 1047 771 1043 q 763 1060 760 1050 q 776 1090 767 1072 q 807 1122 786 1108 q 861 1136 828 1136 q 915 1126 886 1136 q 969 1106 943 1117 q 1013 1096 994 1096 q 1047 1111 1036 1096 q 1065 1136 1058 1126 q 1079 1143 1072 1143 q 1093 1121 1099 1143 q 1065 1076 1086 1099 q 1006 1053 1044 1053 q 957 1063 986 1053 q 898 1084 928 1074 q 846 1094 868 1094 q 816 1081 826 1094 q 796 1053 806 1068 q 776 1043 790 1043 z "},"O":{"ha":1140,"x_min":128,"x_max":1169,"o":"m 465 -60 q 302 -26 379 -60 q 176 74 225 7 q 128 243 128 142 q 151 366 128 296 q 211 505 175 436 q 286 622 247 574 q 388 725 329 676 q 514 811 447 774 q 649 870 581 849 q 778 892 717 892 q 923 863 853 892 q 1049 782 993 833 q 1137 663 1104 731 q 1169 521 1169 596 q 1138 378 1169 449 q 1053 244 1106 307 q 938 128 1001 181 q 713 -8 836 44 q 467 -60 590 -60 l 465 -60 m 457 -14 q 690 35 575 -14 q 897 161 804 85 q 1008 272 958 211 q 1089 398 1058 332 q 1119 528 1119 464 q 1091 647 1119 590 q 1015 749 1063 704 q 906 819 967 793 q 779 844 844 844 q 656 824 721 844 q 529 767 592 803 q 412 685 467 732 q 318 589 357 639 q 249 476 282 542 q 195 346 215 411 q 175 232 175 281 q 212 99 175 154 q 313 15 249 44 q 457 -14 376 -14 z "},"Œ":{"ha":1492,"x_min":13,"x_max":1765,"o":"m 350 -60 q 114 21 208 -60 q 13 243 13 106 q 15 276 13 258 q 22 313 17 294 q 433 829 115 676 q 663 892 563 892 q 828 852 749 892 q 967 746 908 813 q 1044 596 1025 679 q 1183 786 1122 711 q 1283 896 1243 861 l 1286 897 q 1420 917 1351 911 q 1560 924 1489 924 q 1749 907 1710 924 q 1765 886 1765 901 q 1744 863 1765 863 l 1739 863 q 1647 874 1697 869 q 1536 878 1596 878 q 1432 872 1489 878 q 1307 856 1375 867 q 1072 557 1238 803 l 1413 557 q 1435 535 1435 557 q 1413 513 1435 513 l 1042 513 q 866 228 940 356 q 747 4 792 101 q 1314 88 1122 88 q 1447 24 1447 88 q 1424 1 1447 1 q 1404 15 1408 1 q 1396 29 1400 29 q 1310 40 1389 40 q 1174 32 1249 40 q 1011 8 1099 24 q 935 -6 1010 8 q 715 -51 861 -21 l 714 -51 q 689 -21 689 -51 l 725 58 q 351 -60 540 -60 l 350 -60 m 342 -14 q 570 31 454 -14 q 775 156 686 76 q 869 322 815 232 q 989 513 924 411 q 951 535 951 513 q 1004 558 951 561 q 946 701 996 636 q 822 806 896 767 q 668 844 749 844 q 454 786 579 844 q 65 296 153 644 q 57 232 57 263 q 143 47 57 117 q 342 -14 221 -14 z "},"Ó":{"ha":1140,"x_min":128,"x_max":1169,"o":"m 465 -60 q 302 -26 379 -60 q 176 74 225 7 q 128 243 128 142 q 151 366 128 296 q 211 505 175 436 q 286 622 247 574 q 388 725 329 676 q 514 811 447 774 q 649 870 581 849 q 778 892 717 892 q 923 863 853 892 q 1049 782 993 833 q 1137 663 1104 731 q 1169 521 1169 596 q 1138 378 1169 449 q 1053 244 1106 307 q 938 128 1001 181 q 713 -8 836 44 q 467 -60 590 -60 l 465 -60 m 457 -14 q 690 35 575 -14 q 897 161 804 85 q 1008 272 958 211 q 1089 398 1058 332 q 1119 528 1119 464 q 1091 647 1119 590 q 1015 749 1063 704 q 906 819 967 793 q 779 844 844 844 q 656 824 721 844 q 529 767 592 803 q 412 685 467 732 q 318 589 357 639 q 249 476 282 542 q 195 346 215 411 q 175 232 175 281 q 212 99 175 154 q 313 15 249 44 q 457 -14 376 -14 m 733 975 q 719 994 719 981 q 728 1008 719 1004 q 773 1037 740 1017 q 841 1080 806 1057 q 897 1117 876 1103 q 929 1125 915 1129 q 942 1104 942 1118 q 925 1081 942 1090 q 885 1058 915 1075 q 818 1019 856 1040 q 746 978 781 997 q 733 975 740 975 z "},"Ŏ":{"ha":1140,"x_min":128,"x_max":1169,"o":"m 465 -60 q 302 -26 379 -60 q 176 74 225 7 q 128 243 128 142 q 151 366 128 296 q 211 505 175 436 q 286 622 247 574 q 388 725 329 676 q 514 811 447 774 q 649 870 581 849 q 778 892 717 892 q 923 863 853 892 q 1049 782 993 833 q 1137 663 1104 731 q 1169 521 1169 596 q 1138 378 1169 449 q 1053 244 1106 307 q 938 128 1001 181 q 713 -8 836 44 q 467 -60 590 -60 l 465 -60 m 457 -14 q 690 35 575 -14 q 897 161 804 85 q 1008 272 958 211 q 1089 398 1058 332 q 1119 528 1119 464 q 1091 647 1119 590 q 1015 749 1063 704 q 906 819 967 793 q 779 844 844 844 q 656 824 721 844 q 529 767 592 803 q 412 685 467 732 q 318 589 357 639 q 249 476 282 542 q 195 346 215 411 q 175 232 175 281 q 212 99 175 154 q 313 15 249 44 q 457 -14 376 -14 m 794 975 q 706 997 736 975 q 675 1056 675 1019 q 681 1092 675 1076 q 704 1108 688 1108 q 717 1096 717 1108 q 715 1083 717 1089 q 714 1069 714 1076 q 734 1031 714 1043 q 808 1018 754 1018 q 900 1038 857 1018 q 965 1096 943 1058 q 977 1106 969 1103 q 990 1108 985 1108 q 1003 1104 997 1108 q 1006 1094 1008 1100 q 926 1006 986 1038 q 794 975 867 975 z "},"Ǒ":{"ha":1140,"x_min":128,"x_max":1169,"o":"m 999 1122 q 1011 1117 1006 1122 q 1017 1106 1017 1113 q 1011 1094 1017 1099 q 988 1079 1008 1092 q 938 1049 968 1067 q 878 1015 908 1032 q 824 986 847 997 q 792 975 800 975 q 765 990 783 975 q 725 1027 746 1006 q 687 1068 704 1049 q 663 1097 669 1088 q 661 1106 661 1100 q 668 1117 661 1113 q 682 1122 675 1122 q 699 1114 693 1122 q 751 1065 722 1089 q 800 1025 779 1040 q 851 1050 821 1035 q 911 1081 881 1065 q 965 1108 942 1096 q 992 1121 988 1119 q 999 1122 994 1122 m 465 -60 q 302 -26 379 -60 q 176 74 225 7 q 128 243 128 142 q 151 366 128 296 q 211 505 175 436 q 286 622 247 574 q 388 725 329 676 q 514 811 447 774 q 649 870 581 849 q 778 892 717 892 q 923 863 853 892 q 1049 782 993 833 q 1137 663 1104 731 q 1169 521 1169 596 q 1138 378 1169 449 q 1053 244 1106 307 q 938 128 1001 181 q 713 -8 836 44 q 467 -60 590 -60 l 465 -60 m 457 -14 q 690 35 575 -14 q 897 161 804 85 q 1008 272 958 211 q 1089 398 1058 332 q 1119 528 1119 464 q 1091 647 1119 590 q 1015 749 1063 704 q 906 819 967 793 q 779 844 844 844 q 656 824 721 844 q 529 767 592 803 q 412 685 467 732 q 318 589 357 639 q 249 476 282 542 q 195 346 215 411 q 175 232 175 281 q 212 99 175 154 q 313 15 249 44 q 457 -14 376 -14 z "},"ǒ":{"ha":1140,"x_min":128,"x_max":1169,"o":"m 999 1122 q 1011 1117 1006 1122 q 1017 1106 1017 1113 q 1011 1094 1017 1099 q 988 1079 1008 1092 q 938 1049 968 1067 q 878 1015 908 1032 q 824 986 847 997 q 792 975 800 975 q 765 990 783 975 q 725 1027 746 1006 q 687 1068 704 1049 q 663 1097 669 1088 q 661 1106 661 1100 q 668 1117 661 1113 q 682 1122 675 1122 q 699 1114 693 1122 q 751 1065 722 1089 q 800 1025 779 1040 q 851 1050 821 1035 q 911 1081 881 1065 q 965 1108 942 1096 q 992 1121 988 1119 q 999 1122 994 1122 m 465 -60 q 302 -26 379 -60 q 176 74 225 7 q 128 243 128 142 q 151 366 128 296 q 211 505 175 436 q 286 622 247 574 q 388 725 329 676 q 514 811 447 774 q 649 870 581 849 q 778 892 717 892 q 923 863 853 892 q 1049 782 993 833 q 1137 663 1104 731 q 1169 521 1169 596 q 1138 378 1169 449 q 1053 244 1106 307 q 938 128 1001 181 q 713 -8 836 44 q 467 -60 590 -60 l 465 -60 m 457 -14 q 690 35 575 -14 q 897 161 804 85 q 1008 272 958 211 q 1089 398 1058 332 q 1119 528 1119 464 q 1091 647 1119 590 q 1015 749 1063 704 q 906 819 967 793 q 779 844 844 844 q 656 824 721 844 q 529 767 592 803 q 412 685 467 732 q 318 589 357 639 q 249 476 282 542 q 195 346 215 411 q 175 232 175 281 q 212 99 175 154 q 313 15 249 44 q 457 -14 376 -14 z "},"Ô":{"ha":1140,"x_min":128,"x_max":1169,"o":"m 465 -60 q 302 -26 379 -60 q 176 74 225 7 q 128 243 128 142 q 151 366 128 296 q 211 505 175 436 q 286 622 247 574 q 388 725 329 676 q 514 811 447 774 q 649 870 581 849 q 778 892 717 892 q 923 863 853 892 q 1049 782 993 833 q 1137 663 1104 731 q 1169 521 1169 596 q 1138 378 1169 449 q 1053 244 1106 307 q 938 128 1001 181 q 713 -8 836 44 q 467 -60 590 -60 l 465 -60 m 457 -14 q 690 35 575 -14 q 897 161 804 85 q 1008 272 958 211 q 1089 398 1058 332 q 1119 528 1119 464 q 1091 647 1119 590 q 1015 749 1063 704 q 906 819 967 793 q 779 844 844 844 q 656 824 721 844 q 529 767 592 803 q 412 685 467 732 q 318 589 357 639 q 249 476 282 542 q 195 346 215 411 q 175 232 175 281 q 212 99 175 154 q 313 15 249 44 q 457 -14 376 -14 m 631 967 q 619 972 625 967 q 613 983 613 978 q 618 994 613 990 q 641 1010 621 997 q 691 1040 661 1022 q 751 1074 721 1057 q 806 1103 782 1092 q 838 1114 829 1114 q 865 1099 846 1114 q 904 1062 883 1083 q 942 1021 925 1040 q 967 992 960 1001 q 968 983 968 989 q 961 972 968 976 q 947 967 954 967 q 931 975 938 967 q 878 1025 907 1000 q 829 1064 850 1050 q 778 1040 808 1054 q 718 1009 749 1025 q 665 982 688 993 q 638 968 642 971 q 631 967 635 967 z "},"Ố":{"ha":1140,"x_min":128,"x_max":1193,"o":"m 465 -60 q 302 -26 379 -60 q 176 74 225 7 q 128 243 128 142 q 151 366 128 296 q 211 505 175 436 q 286 622 247 574 q 388 725 329 676 q 514 811 447 774 q 649 870 581 849 q 778 892 717 892 q 923 863 853 892 q 1049 782 993 833 q 1137 663 1104 731 q 1169 521 1169 596 q 1138 378 1169 449 q 1053 244 1106 307 q 938 128 1001 181 q 713 -8 836 44 q 467 -60 590 -60 l 465 -60 m 457 -14 q 690 35 575 -14 q 897 161 804 85 q 1008 272 958 211 q 1089 398 1058 332 q 1119 528 1119 464 q 1091 647 1119 590 q 1015 749 1063 704 q 906 819 967 793 q 779 844 844 844 q 656 824 721 844 q 529 767 592 803 q 412 685 467 732 q 318 589 357 639 q 249 476 282 542 q 195 346 215 411 q 175 232 175 281 q 212 99 175 154 q 313 15 249 44 q 457 -14 376 -14 m 631 967 q 619 972 625 967 q 613 983 613 978 q 618 994 613 990 q 641 1010 621 997 q 691 1040 661 1022 q 751 1074 721 1057 q 806 1103 782 1092 q 838 1114 829 1114 q 865 1099 846 1114 q 904 1062 883 1083 q 942 1021 925 1040 q 967 992 960 1001 q 968 983 968 989 q 961 972 968 976 q 947 967 954 967 q 931 975 938 967 q 878 1025 907 1000 q 829 1064 850 1050 q 778 1040 808 1054 q 718 1009 749 1025 q 665 982 688 993 q 638 968 642 971 q 631 967 635 967 m 985 1088 q 971 1107 971 1093 q 979 1121 971 1117 q 1024 1149 992 1129 q 1092 1192 1057 1169 q 1149 1229 1128 1215 q 1181 1238 1167 1242 q 1193 1217 1193 1231 q 1176 1193 1193 1203 q 1137 1170 1167 1188 q 1069 1131 1107 1153 q 997 1090 1032 1110 q 985 1088 992 1088 z "},"Ộ":{"ha":1140,"x_min":128,"x_max":1169,"o":"m 465 -60 q 302 -26 379 -60 q 176 74 225 7 q 128 243 128 142 q 151 366 128 296 q 211 505 175 436 q 286 622 247 574 q 388 725 329 676 q 514 811 447 774 q 649 870 581 849 q 778 892 717 892 q 923 863 853 892 q 1049 782 993 833 q 1137 663 1104 731 q 1169 521 1169 596 q 1138 378 1169 449 q 1053 244 1106 307 q 938 128 1001 181 q 713 -8 836 44 q 467 -60 590 -60 l 465 -60 m 457 -14 q 690 35 575 -14 q 897 161 804 85 q 1008 272 958 211 q 1089 398 1058 332 q 1119 528 1119 464 q 1091 647 1119 590 q 1015 749 1063 704 q 906 819 967 793 q 779 844 844 844 q 656 824 721 844 q 529 767 592 803 q 412 685 467 732 q 318 589 357 639 q 249 476 282 542 q 195 346 215 411 q 175 232 175 281 q 212 99 175 154 q 313 15 249 44 q 457 -14 376 -14 m 335 -229 q 313 -218 325 -233 q 301 -187 301 -203 q 313 -164 301 -174 q 326 -153 324 -154 q 340 -151 333 -151 q 351 -150 346 -150 q 375 -169 375 -150 q 372 -185 375 -174 q 362 -209 369 -197 q 335 -229 354 -221 m 631 967 q 619 972 625 967 q 613 983 613 978 q 618 994 613 990 q 641 1010 621 997 q 691 1040 661 1022 q 751 1074 721 1057 q 806 1103 782 1092 q 838 1114 829 1114 q 865 1099 846 1114 q 904 1062 883 1083 q 942 1021 925 1040 q 967 992 960 1001 q 968 983 968 989 q 961 972 968 976 q 947 967 954 967 q 931 975 938 967 q 878 1025 907 1000 q 829 1064 850 1050 q 778 1040 808 1054 q 718 1009 749 1025 q 665 982 688 993 q 638 968 642 971 q 631 967 635 967 z "},"Ồ":{"ha":1140,"x_min":128,"x_max":1169,"o":"m 465 -60 q 302 -26 379 -60 q 176 74 225 7 q 128 243 128 142 q 151 366 128 296 q 211 505 175 436 q 286 622 247 574 q 388 725 329 676 q 514 811 447 774 q 649 870 581 849 q 778 892 717 892 q 923 863 853 892 q 1049 782 993 833 q 1137 663 1104 731 q 1169 521 1169 596 q 1138 378 1169 449 q 1053 244 1106 307 q 938 128 1001 181 q 713 -8 836 44 q 467 -60 590 -60 l 465 -60 m 457 -14 q 690 35 575 -14 q 897 161 804 85 q 1008 272 958 211 q 1089 398 1058 332 q 1119 528 1119 464 q 1091 647 1119 590 q 1015 749 1063 704 q 906 819 967 793 q 779 844 844 844 q 656 824 721 844 q 529 767 592 803 q 412 685 467 732 q 318 589 357 639 q 249 476 282 542 q 195 346 215 411 q 175 232 175 281 q 212 99 175 154 q 313 15 249 44 q 457 -14 376 -14 m 631 967 q 619 972 625 967 q 613 983 613 978 q 618 994 613 990 q 641 1010 621 997 q 691 1040 661 1022 q 751 1074 721 1057 q 806 1103 782 1092 q 838 1114 829 1114 q 865 1099 846 1114 q 904 1062 883 1083 q 942 1021 925 1040 q 967 992 960 1001 q 968 983 968 989 q 961 972 968 976 q 947 967 954 967 q 931 975 938 967 q 878 1025 907 1000 q 829 1064 850 1050 q 778 1040 808 1054 q 718 1009 749 1025 q 665 982 688 993 q 638 968 642 971 q 631 967 635 967 m 992 1101 q 979 1104 985 1101 q 908 1145 946 1124 q 840 1184 869 1167 q 800 1207 810 1201 q 789 1217 794 1211 q 783 1228 783 1222 l 783 1231 q 796 1251 783 1244 q 799 1252 797 1251 q 803 1253 801 1253 q 828 1243 814 1253 q 885 1206 850 1229 q 952 1163 919 1183 q 997 1135 985 1143 q 1006 1124 1003 1131 l 1006 1121 q 992 1101 1006 1107 z "},"Ổ":{"ha":1140,"x_min":128,"x_max":1169,"o":"m 465 -60 q 302 -26 379 -60 q 176 74 225 7 q 128 243 128 142 q 151 366 128 296 q 211 505 175 436 q 286 622 247 574 q 388 725 329 676 q 514 811 447 774 q 649 870 581 849 q 778 892 717 892 q 923 863 853 892 q 1049 782 993 833 q 1137 663 1104 731 q 1169 521 1169 596 q 1138 378 1169 449 q 1053 244 1106 307 q 938 128 1001 181 q 713 -8 836 44 q 467 -60 590 -60 l 465 -60 m 457 -14 q 690 35 575 -14 q 897 161 804 85 q 1008 272 958 211 q 1089 398 1058 332 q 1119 528 1119 464 q 1091 647 1119 590 q 1015 749 1063 704 q 906 819 967 793 q 779 844 844 844 q 656 824 721 844 q 529 767 592 803 q 412 685 467 732 q 318 589 357 639 q 249 476 282 542 q 195 346 215 411 q 175 232 175 281 q 212 99 175 154 q 313 15 249 44 q 457 -14 376 -14 m 631 967 q 619 972 625 967 q 613 983 613 978 q 618 994 613 990 q 641 1010 621 997 q 691 1040 661 1022 q 751 1074 721 1057 q 806 1103 782 1092 q 838 1114 829 1114 q 865 1099 846 1114 q 904 1062 883 1083 q 942 1021 925 1040 q 967 992 960 1001 q 968 983 968 989 q 961 972 968 976 q 947 967 954 967 q 931 975 938 967 q 878 1025 907 1000 q 829 1064 850 1050 q 778 1040 808 1054 q 718 1009 749 1025 q 665 982 688 993 q 638 968 642 971 q 631 967 635 967 m 971 1090 q 954 1104 954 1090 q 961 1118 954 1113 q 1010 1158 986 1136 q 1033 1201 1033 1179 q 1000 1235 1033 1235 q 959 1222 982 1235 q 928 1208 936 1208 q 914 1222 914 1208 q 932 1246 914 1233 q 969 1265 944 1254 q 1018 1275 993 1275 q 1063 1256 1047 1275 q 1079 1211 1079 1236 q 1051 1147 1079 1174 q 990 1097 1024 1121 q 971 1090 982 1090 z "},"Ỗ":{"ha":1140,"x_min":128,"x_max":1169,"o":"m 465 -60 q 302 -26 379 -60 q 176 74 225 7 q 128 243 128 142 q 151 366 128 296 q 211 505 175 436 q 286 622 247 574 q 388 725 329 676 q 514 811 447 774 q 649 870 581 849 q 778 892 717 892 q 923 863 853 892 q 1049 782 993 833 q 1137 663 1104 731 q 1169 521 1169 596 q 1138 378 1169 449 q 1053 244 1106 307 q 938 128 1001 181 q 713 -8 836 44 q 467 -60 590 -60 l 465 -60 m 457 -14 q 690 35 575 -14 q 897 161 804 85 q 1008 272 958 211 q 1089 398 1058 332 q 1119 528 1119 464 q 1091 647 1119 590 q 1015 749 1063 704 q 906 819 967 793 q 779 844 844 844 q 656 824 721 844 q 529 767 592 803 q 412 685 467 732 q 318 589 357 639 q 249 476 282 542 q 195 346 215 411 q 175 232 175 281 q 212 99 175 154 q 313 15 249 44 q 457 -14 376 -14 m 631 967 q 619 972 625 967 q 613 983 613 978 q 618 994 613 990 q 641 1010 621 997 q 691 1040 661 1022 q 751 1074 721 1057 q 806 1103 782 1092 q 838 1114 829 1114 q 865 1099 846 1114 q 904 1062 883 1083 q 942 1021 925 1040 q 967 992 960 1001 q 968 983 968 989 q 961 972 968 976 q 947 967 954 967 q 931 975 938 967 q 878 1025 907 1000 q 829 1064 850 1050 q 778 1040 808 1054 q 718 1009 749 1025 q 665 982 688 993 q 638 968 642 971 q 631 967 635 967 m 740 1143 q 729 1147 735 1143 q 726 1160 724 1150 q 740 1190 731 1172 q 771 1222 750 1208 q 825 1236 792 1236 q 878 1226 850 1236 q 933 1206 907 1217 q 976 1196 958 1196 q 1011 1211 1000 1196 q 1029 1236 1022 1226 q 1043 1243 1036 1243 q 1057 1221 1063 1243 q 1029 1176 1050 1199 q 969 1153 1008 1153 q 921 1163 950 1153 q 862 1184 892 1174 q 810 1194 832 1194 q 780 1181 790 1194 q 760 1153 769 1168 q 740 1143 754 1143 z "},"Ȍ":{"ha":1140,"x_min":128,"x_max":1169,"o":"m 465 -60 q 302 -26 379 -60 q 176 74 225 7 q 128 243 128 142 q 151 366 128 296 q 211 505 175 436 q 286 622 247 574 q 388 725 329 676 q 514 811 447 774 q 649 870 581 849 q 778 892 717 892 q 923 863 853 892 q 1049 782 993 833 q 1137 663 1104 731 q 1169 521 1169 596 q 1138 378 1169 449 q 1053 244 1106 307 q 938 128 1001 181 q 713 -8 836 44 q 467 -60 590 -60 l 465 -60 m 457 -14 q 690 35 575 -14 q 897 161 804 85 q 1008 272 958 211 q 1089 398 1058 332 q 1119 528 1119 464 q 1091 647 1119 590 q 1015 749 1063 704 q 906 819 967 793 q 779 844 844 844 q 656 824 721 844 q 529 767 592 803 q 412 685 467 732 q 318 589 357 639 q 249 476 282 542 q 195 346 215 411 q 175 232 175 281 q 212 99 175 154 q 313 15 249 44 q 457 -14 376 -14 m 815 972 q 804 978 810 972 q 730 1060 765 1021 q 683 1114 694 1100 q 676 1125 679 1119 q 672 1136 672 1131 q 679 1149 672 1143 q 693 1157 686 1156 q 708 1152 700 1157 q 721 1140 715 1147 q 759 1092 738 1119 q 801 1039 781 1064 q 831 1001 821 1014 q 835 988 835 993 q 815 972 832 972 m 726 969 q 715 974 722 969 q 633 1049 672 1013 q 581 1097 593 1085 q 568 1118 568 1110 q 574 1132 568 1125 q 586 1140 579 1139 l 589 1140 q 603 1136 596 1140 q 615 1126 610 1132 q 658 1083 633 1108 q 706 1034 683 1057 q 739 1000 729 1011 q 744 988 744 994 q 739 976 744 982 q 726 969 733 969 z "},"Ö":{"ha":1140,"x_min":128,"x_max":1169,"o":"m 465 -60 q 302 -26 379 -60 q 176 74 225 7 q 128 243 128 142 q 151 366 128 296 q 211 505 175 436 q 286 622 247 574 q 388 725 329 676 q 514 811 447 774 q 649 870 581 849 q 778 892 717 892 q 923 863 853 892 q 1049 782 993 833 q 1137 663 1104 731 q 1169 521 1169 596 q 1138 378 1169 449 q 1053 244 1106 307 q 938 128 1001 181 q 713 -8 836 44 q 467 -60 590 -60 l 465 -60 m 457 -14 q 690 35 575 -14 q 897 161 804 85 q 1008 272 958 211 q 1089 398 1058 332 q 1119 528 1119 464 q 1091 647 1119 590 q 1015 749 1063 704 q 906 819 967 793 q 779 844 844 844 q 656 824 721 844 q 529 767 592 803 q 412 685 467 732 q 318 589 357 639 q 249 476 282 542 q 195 346 215 411 q 175 232 175 281 q 212 99 175 154 q 313 15 249 44 q 457 -14 376 -14 m 878 975 q 856 986 868 971 q 844 1017 844 1001 q 856 1040 844 1031 q 869 1051 867 1050 q 883 1053 876 1053 q 894 1054 889 1054 q 918 1035 918 1054 q 915 1019 918 1031 q 905 995 913 1007 q 878 975 897 983 m 717 975 q 695 986 707 971 q 683 1017 683 1001 q 694 1040 683 1031 q 708 1051 706 1050 q 722 1053 715 1053 q 733 1054 728 1054 q 757 1035 757 1054 q 754 1019 757 1031 q 744 995 751 1007 q 717 975 736 983 z "},"Ȫ":{"ha":1140,"x_min":128,"x_max":1169,"o":"m 465 -60 q 302 -26 379 -60 q 176 74 225 7 q 128 243 128 142 q 151 366 128 296 q 211 505 175 436 q 286 622 247 574 q 388 725 329 676 q 514 811 447 774 q 649 870 581 849 q 778 892 717 892 q 923 863 853 892 q 1049 782 993 833 q 1137 663 1104 731 q 1169 521 1169 596 q 1138 378 1169 449 q 1053 244 1106 307 q 938 128 1001 181 q 713 -8 836 44 q 467 -60 590 -60 l 465 -60 m 457 -14 q 690 35 575 -14 q 897 161 804 85 q 1008 272 958 211 q 1089 398 1058 332 q 1119 528 1119 464 q 1091 647 1119 590 q 1015 749 1063 704 q 906 819 967 793 q 779 844 844 844 q 656 824 721 844 q 529 767 592 803 q 412 685 467 732 q 318 589 357 639 q 249 476 282 542 q 195 346 215 411 q 175 232 175 281 q 212 99 175 154 q 313 15 249 44 q 457 -14 376 -14 m 878 975 q 856 986 868 971 q 844 1017 844 1001 q 856 1040 844 1031 q 869 1051 867 1050 q 883 1053 876 1053 q 894 1054 889 1054 q 918 1035 918 1054 q 915 1019 918 1031 q 905 995 913 1007 q 878 975 897 983 m 717 975 q 695 986 707 971 q 683 1017 683 1001 q 694 1040 683 1031 q 708 1051 706 1050 q 722 1053 715 1053 q 733 1054 728 1054 q 757 1035 757 1054 q 754 1019 757 1031 q 744 995 751 1007 q 717 975 736 983 m 699 1097 q 683 1101 690 1097 q 676 1114 676 1106 q 683 1128 676 1121 q 699 1136 689 1135 q 732 1138 708 1138 q 784 1139 756 1139 q 835 1139 813 1139 q 888 1139 858 1139 q 944 1138 917 1139 q 985 1136 971 1138 q 1004 1115 1004 1133 q 985 1097 1004 1097 q 916 1099 958 1099 q 844 1100 874 1100 q 771 1099 814 1100 q 699 1097 728 1099 z "},"Ȱ":{"ha":1140,"x_min":128,"x_max":1169,"o":"m 465 -60 q 302 -26 379 -60 q 176 74 225 7 q 128 243 128 142 q 151 366 128 296 q 211 505 175 436 q 286 622 247 574 q 388 725 329 676 q 514 811 447 774 q 649 870 581 849 q 778 892 717 892 q 923 863 853 892 q 1049 782 993 833 q 1137 663 1104 731 q 1169 521 1169 596 q 1138 378 1169 449 q 1053 244 1106 307 q 938 128 1001 181 q 713 -8 836 44 q 467 -60 590 -60 l 465 -60 m 457 -14 q 690 35 575 -14 q 897 161 804 85 q 1008 272 958 211 q 1089 398 1058 332 q 1119 528 1119 464 q 1091 647 1119 590 q 1015 749 1063 704 q 906 819 967 793 q 779 844 844 844 q 656 824 721 844 q 529 767 592 803 q 412 685 467 732 q 318 589 357 639 q 249 476 282 542 q 195 346 215 411 q 175 232 175 281 q 212 99 175 154 q 313 15 249 44 q 457 -14 376 -14 m 790 975 q 769 986 781 971 q 757 1017 757 1001 q 768 1040 757 1031 q 782 1051 779 1050 q 795 1053 789 1053 q 807 1054 801 1054 q 831 1035 831 1054 q 828 1019 831 1031 q 817 995 825 1007 q 790 975 810 983 m 688 1096 q 672 1100 679 1096 q 665 1113 665 1104 q 672 1126 665 1119 q 688 1135 678 1133 q 721 1137 697 1136 q 773 1138 744 1138 q 824 1138 801 1138 q 876 1138 847 1138 q 933 1137 906 1138 q 974 1135 960 1136 q 993 1114 993 1132 q 974 1096 993 1096 q 905 1098 947 1097 q 833 1099 863 1099 q 760 1098 803 1099 q 688 1096 717 1097 z "},"Ọ":{"ha":1140,"x_min":128,"x_max":1169,"o":"m 465 -60 q 302 -26 379 -60 q 176 74 225 7 q 128 243 128 142 q 151 366 128 296 q 211 505 175 436 q 286 622 247 574 q 388 725 329 676 q 514 811 447 774 q 649 870 581 849 q 778 892 717 892 q 923 863 853 892 q 1049 782 993 833 q 1137 663 1104 731 q 1169 521 1169 596 q 1138 378 1169 449 q 1053 244 1106 307 q 938 128 1001 181 q 713 -8 836 44 q 467 -60 590 -60 l 465 -60 m 457 -14 q 690 35 575 -14 q 897 161 804 85 q 1008 272 958 211 q 1089 398 1058 332 q 1119 528 1119 464 q 1091 647 1119 590 q 1015 749 1063 704 q 906 819 967 793 q 779 844 844 844 q 656 824 721 844 q 529 767 592 803 q 412 685 467 732 q 318 589 357 639 q 249 476 282 542 q 195 346 215 411 q 175 232 175 281 q 212 99 175 154 q 313 15 249 44 q 457 -14 376 -14 m 335 -229 q 313 -218 325 -233 q 301 -187 301 -203 q 313 -164 301 -174 q 326 -153 324 -154 q 340 -151 333 -151 q 351 -150 346 -150 q 375 -169 375 -150 q 372 -185 375 -174 q 362 -209 369 -197 q 335 -229 354 -221 z "},"Ò":{"ha":1140,"x_min":128,"x_max":1169,"o":"m 465 -60 q 302 -26 379 -60 q 176 74 225 7 q 128 243 128 142 q 151 366 128 296 q 211 505 175 436 q 286 622 247 574 q 388 725 329 676 q 514 811 447 774 q 649 870 581 849 q 778 892 717 892 q 923 863 853 892 q 1049 782 993 833 q 1137 663 1104 731 q 1169 521 1169 596 q 1138 378 1169 449 q 1053 244 1106 307 q 938 128 1001 181 q 713 -8 836 44 q 467 -60 590 -60 l 465 -60 m 457 -14 q 690 35 575 -14 q 897 161 804 85 q 1008 272 958 211 q 1089 398 1058 332 q 1119 528 1119 464 q 1091 647 1119 590 q 1015 749 1063 704 q 906 819 967 793 q 779 844 844 844 q 656 824 721 844 q 529 767 592 803 q 412 685 467 732 q 318 589 357 639 q 249 476 282 542 q 195 346 215 411 q 175 232 175 281 q 212 99 175 154 q 313 15 249 44 q 457 -14 376 -14 m 839 975 q 826 978 832 975 q 755 1019 793 997 q 687 1058 717 1040 q 647 1081 657 1075 q 636 1090 642 1085 q 631 1101 631 1096 l 631 1104 q 643 1125 631 1118 q 647 1126 644 1125 q 650 1126 649 1126 q 675 1117 661 1126 q 732 1080 697 1103 q 799 1037 767 1057 q 844 1008 832 1017 q 853 997 850 1004 l 853 994 q 839 975 853 981 z "},"Ỏ":{"ha":1140,"x_min":128,"x_max":1169,"o":"m 465 -60 q 302 -26 379 -60 q 176 74 225 7 q 128 243 128 142 q 151 366 128 296 q 211 505 175 436 q 286 622 247 574 q 388 725 329 676 q 514 811 447 774 q 649 870 581 849 q 778 892 717 892 q 923 863 853 892 q 1049 782 993 833 q 1137 663 1104 731 q 1169 521 1169 596 q 1138 378 1169 449 q 1053 244 1106 307 q 938 128 1001 181 q 713 -8 836 44 q 467 -60 590 -60 l 465 -60 m 457 -14 q 690 35 575 -14 q 897 161 804 85 q 1008 272 958 211 q 1089 398 1058 332 q 1119 528 1119 464 q 1091 647 1119 590 q 1015 749 1063 704 q 906 819 967 793 q 779 844 844 844 q 656 824 721 844 q 529 767 592 803 q 412 685 467 732 q 318 589 357 639 q 249 476 282 542 q 195 346 215 411 q 175 232 175 281 q 212 99 175 154 q 313 15 249 44 q 457 -14 376 -14 m 817 972 q 800 986 800 972 q 807 1000 800 994 q 856 1040 832 1018 q 879 1083 879 1061 q 846 1117 879 1117 q 805 1103 828 1117 q 774 1090 782 1090 q 760 1104 760 1090 q 778 1128 760 1115 q 815 1147 790 1136 q 864 1157 839 1157 q 909 1138 893 1157 q 925 1093 925 1118 q 897 1029 925 1056 q 836 979 869 1003 q 817 972 828 972 z "},"Ơ":{"ha":1140,"x_min":128,"x_max":1169,"o":"m 465 -60 q 302 -26 379 -60 q 176 74 225 7 q 128 243 128 142 q 151 366 128 296 q 211 505 175 436 q 286 622 247 574 q 388 725 329 676 q 514 811 447 774 q 649 870 581 849 q 778 892 717 892 q 923 863 853 892 q 1049 782 993 833 q 1137 663 1104 731 q 1169 521 1169 596 q 1138 378 1169 449 q 1053 244 1106 307 q 938 128 1001 181 q 713 -8 836 44 q 467 -60 590 -60 l 465 -60 m 457 -14 q 690 35 575 -14 q 897 161 804 85 q 1008 272 958 211 q 1089 398 1058 332 q 1119 528 1119 464 q 1091 647 1119 590 q 1015 749 1063 704 q 906 819 967 793 q 779 844 844 844 q 656 824 721 844 q 529 767 592 803 q 412 685 467 732 q 318 589 357 639 q 249 476 282 542 q 195 346 215 411 q 175 232 175 281 q 212 99 175 154 q 313 15 249 44 q 457 -14 376 -14 m 1004 792 q 969 806 985 792 q 954 829 954 821 q 956 841 954 835 q 958 844 957 847 q 1001 831 976 831 q 1049 846 1029 831 q 1068 893 1068 861 q 1089 938 1068 938 q 1106 925 1100 938 q 1113 893 1113 913 q 1080 816 1113 846 q 1004 792 1047 786 z "},"Ớ":{"ha":1140,"x_min":128,"x_max":1169,"o":"m 465 -60 q 302 -26 379 -60 q 176 74 225 7 q 128 243 128 142 q 151 366 128 296 q 211 505 175 436 q 286 622 247 574 q 388 725 329 676 q 514 811 447 774 q 649 870 581 849 q 778 892 717 892 q 923 863 853 892 q 1049 782 993 833 q 1137 663 1104 731 q 1169 521 1169 596 q 1138 378 1169 449 q 1053 244 1106 307 q 938 128 1001 181 q 713 -8 836 44 q 467 -60 590 -60 l 465 -60 m 457 -14 q 690 35 575 -14 q 897 161 804 85 q 1008 272 958 211 q 1089 398 1058 332 q 1119 528 1119 464 q 1091 647 1119 590 q 1015 749 1063 704 q 906 819 967 793 q 779 844 844 844 q 656 824 721 844 q 529 767 592 803 q 412 685 467 732 q 318 589 357 639 q 249 476 282 542 q 195 346 215 411 q 175 232 175 281 q 212 99 175 154 q 313 15 249 44 q 457 -14 376 -14 m 1004 792 q 969 806 985 792 q 954 829 954 821 q 956 841 954 835 q 958 844 957 847 q 1001 831 976 831 q 1049 846 1029 831 q 1068 893 1068 861 q 1089 938 1068 938 q 1106 925 1100 938 q 1113 893 1113 913 q 1080 816 1113 846 q 1004 792 1047 786 m 733 975 q 719 994 719 981 q 728 1008 719 1004 q 773 1037 740 1017 q 841 1080 806 1057 q 897 1117 876 1103 q 929 1125 915 1129 q 942 1104 942 1118 q 925 1081 942 1090 q 885 1058 915 1075 q 818 1019 856 1040 q 746 978 781 997 q 733 975 740 975 z "},"Ợ":{"ha":1140,"x_min":128,"x_max":1169,"o":"m 465 -60 q 302 -26 379 -60 q 176 74 225 7 q 128 243 128 142 q 151 366 128 296 q 211 505 175 436 q 286 622 247 574 q 388 725 329 676 q 514 811 447 774 q 649 870 581 849 q 778 892 717 892 q 923 863 853 892 q 1049 782 993 833 q 1137 663 1104 731 q 1169 521 1169 596 q 1138 378 1169 449 q 1053 244 1106 307 q 938 128 1001 181 q 713 -8 836 44 q 467 -60 590 -60 l 465 -60 m 457 -14 q 690 35 575 -14 q 897 161 804 85 q 1008 272 958 211 q 1089 398 1058 332 q 1119 528 1119 464 q 1091 647 1119 590 q 1015 749 1063 704 q 906 819 967 793 q 779 844 844 844 q 656 824 721 844 q 529 767 592 803 q 412 685 467 732 q 318 589 357 639 q 249 476 282 542 q 195 346 215 411 q 175 232 175 281 q 212 99 175 154 q 313 15 249 44 q 457 -14 376 -14 m 1004 792 q 969 806 985 792 q 954 829 954 821 q 956 841 954 835 q 958 844 957 847 q 1001 831 976 831 q 1049 846 1029 831 q 1068 893 1068 861 q 1089 938 1068 938 q 1106 925 1100 938 q 1113 893 1113 913 q 1080 816 1113 846 q 1004 792 1047 786 m 335 -229 q 313 -218 325 -233 q 301 -187 301 -203 q 313 -164 301 -174 q 326 -153 324 -154 q 340 -151 333 -151 q 351 -150 346 -150 q 375 -169 375 -150 q 372 -185 375 -174 q 362 -209 369 -197 q 335 -229 354 -221 z "},"Ờ":{"ha":1140,"x_min":128,"x_max":1169,"o":"m 465 -60 q 302 -26 379 -60 q 176 74 225 7 q 128 243 128 142 q 151 366 128 296 q 211 505 175 436 q 286 622 247 574 q 388 725 329 676 q 514 811 447 774 q 649 870 581 849 q 778 892 717 892 q 923 863 853 892 q 1049 782 993 833 q 1137 663 1104 731 q 1169 521 1169 596 q 1138 378 1169 449 q 1053 244 1106 307 q 938 128 1001 181 q 713 -8 836 44 q 467 -60 590 -60 l 465 -60 m 457 -14 q 690 35 575 -14 q 897 161 804 85 q 1008 272 958 211 q 1089 398 1058 332 q 1119 528 1119 464 q 1091 647 1119 590 q 1015 749 1063 704 q 906 819 967 793 q 779 844 844 844 q 656 824 721 844 q 529 767 592 803 q 412 685 467 732 q 318 589 357 639 q 249 476 282 542 q 195 346 215 411 q 175 232 175 281 q 212 99 175 154 q 313 15 249 44 q 457 -14 376 -14 m 1004 792 q 969 806 985 792 q 954 829 954 821 q 956 841 954 835 q 958 844 957 847 q 1001 831 976 831 q 1049 846 1029 831 q 1068 893 1068 861 q 1089 938 1068 938 q 1106 925 1100 938 q 1113 893 1113 913 q 1080 816 1113 846 q 1004 792 1047 786 m 839 975 q 826 978 832 975 q 755 1019 793 997 q 687 1058 717 1040 q 647 1081 657 1075 q 636 1090 642 1085 q 631 1101 631 1096 l 631 1104 q 643 1125 631 1118 q 647 1126 644 1125 q 650 1126 649 1126 q 675 1117 661 1126 q 732 1080 697 1103 q 799 1037 767 1057 q 844 1008 832 1017 q 853 997 850 1004 l 853 994 q 839 975 853 981 z "},"Ở":{"ha":1140,"x_min":128,"x_max":1169,"o":"m 465 -60 q 302 -26 379 -60 q 176 74 225 7 q 128 243 128 142 q 151 366 128 296 q 211 505 175 436 q 286 622 247 574 q 388 725 329 676 q 514 811 447 774 q 649 870 581 849 q 778 892 717 892 q 923 863 853 892 q 1049 782 993 833 q 1137 663 1104 731 q 1169 521 1169 596 q 1138 378 1169 449 q 1053 244 1106 307 q 938 128 1001 181 q 713 -8 836 44 q 467 -60 590 -60 l 465 -60 m 457 -14 q 690 35 575 -14 q 897 161 804 85 q 1008 272 958 211 q 1089 398 1058 332 q 1119 528 1119 464 q 1091 647 1119 590 q 1015 749 1063 704 q 906 819 967 793 q 779 844 844 844 q 656 824 721 844 q 529 767 592 803 q 412 685 467 732 q 318 589 357 639 q 249 476 282 542 q 195 346 215 411 q 175 232 175 281 q 212 99 175 154 q 313 15 249 44 q 457 -14 376 -14 m 1004 792 q 969 806 985 792 q 954 829 954 821 q 956 841 954 835 q 958 844 957 847 q 1001 831 976 831 q 1049 846 1029 831 q 1068 893 1068 861 q 1089 938 1068 938 q 1106 925 1100 938 q 1113 893 1113 913 q 1080 816 1113 846 q 1004 792 1047 786 m 817 972 q 800 986 800 972 q 807 1000 800 994 q 856 1040 832 1018 q 879 1083 879 1061 q 846 1117 879 1117 q 805 1103 828 1117 q 774 1090 782 1090 q 760 1104 760 1090 q 778 1128 760 1115 q 815 1147 790 1136 q 864 1157 839 1157 q 909 1138 893 1157 q 925 1093 925 1118 q 897 1029 925 1056 q 836 979 869 1003 q 817 972 828 972 z "},"Ỡ":{"ha":1140,"x_min":128,"x_max":1169,"o":"m 465 -60 q 302 -26 379 -60 q 176 74 225 7 q 128 243 128 142 q 151 366 128 296 q 211 505 175 436 q 286 622 247 574 q 388 725 329 676 q 514 811 447 774 q 649 870 581 849 q 778 892 717 892 q 923 863 853 892 q 1049 782 993 833 q 1137 663 1104 731 q 1169 521 1169 596 q 1138 378 1169 449 q 1053 244 1106 307 q 938 128 1001 181 q 713 -8 836 44 q 467 -60 590 -60 l 465 -60 m 457 -14 q 690 35 575 -14 q 897 161 804 85 q 1008 272 958 211 q 1089 398 1058 332 q 1119 528 1119 464 q 1091 647 1119 590 q 1015 749 1063 704 q 906 819 967 793 q 779 844 844 844 q 656 824 721 844 q 529 767 592 803 q 412 685 467 732 q 318 589 357 639 q 249 476 282 542 q 195 346 215 411 q 175 232 175 281 q 212 99 175 154 q 313 15 249 44 q 457 -14 376 -14 m 1004 792 q 969 806 985 792 q 954 829 954 821 q 956 841 954 835 q 958 844 957 847 q 1001 831 976 831 q 1049 846 1029 831 q 1068 893 1068 861 q 1089 938 1068 938 q 1106 925 1100 938 q 1113 893 1113 913 q 1080 816 1113 846 q 1004 792 1047 786 m 656 969 q 644 973 650 969 q 642 986 639 976 q 656 1017 646 999 q 686 1049 665 1035 q 740 1063 707 1063 q 794 1053 765 1063 q 848 1033 822 1043 q 892 1022 874 1022 q 926 1038 915 1022 q 944 1063 938 1053 q 958 1069 951 1069 q 972 1047 978 1069 q 944 1002 965 1025 q 885 979 924 979 q 836 990 865 979 q 777 1010 807 1000 q 725 1021 747 1021 q 695 1008 706 1021 q 675 979 685 994 q 656 969 669 969 z "},"Ő":{"ha":1140,"x_min":128,"x_max":1169,"o":"m 465 -60 q 302 -26 379 -60 q 176 74 225 7 q 128 243 128 142 q 151 366 128 296 q 211 505 175 436 q 286 622 247 574 q 388 725 329 676 q 514 811 447 774 q 649 870 581 849 q 778 892 717 892 q 923 863 853 892 q 1049 782 993 833 q 1137 663 1104 731 q 1169 521 1169 596 q 1138 378 1169 449 q 1053 244 1106 307 q 938 128 1001 181 q 713 -8 836 44 q 467 -60 590 -60 l 465 -60 m 457 -14 q 690 35 575 -14 q 897 161 804 85 q 1008 272 958 211 q 1089 398 1058 332 q 1119 528 1119 464 q 1091 647 1119 590 q 1015 749 1063 704 q 906 819 967 793 q 779 844 844 844 q 656 824 721 844 q 529 767 592 803 q 412 685 467 732 q 318 589 357 639 q 249 476 282 542 q 195 346 215 411 q 175 232 175 281 q 212 99 175 154 q 313 15 249 44 q 457 -14 376 -14 m 836 975 q 818 985 824 975 q 818 999 817 990 q 835 1044 824 1014 q 859 1107 846 1074 q 881 1165 872 1140 q 901 1189 888 1185 q 903 1190 903 1189 q 906 1190 904 1190 q 925 1179 919 1190 q 928 1169 928 1176 q 924 1153 928 1161 q 897 1087 918 1136 q 851 985 875 1038 q 843 976 847 979 q 836 975 842 975 m 743 975 q 725 985 731 975 q 725 999 724 990 q 742 1044 731 1014 q 766 1107 753 1074 q 788 1165 779 1140 q 808 1189 794 1185 q 810 1190 810 1189 q 813 1190 811 1190 q 832 1179 826 1190 q 835 1169 835 1176 q 831 1153 835 1161 q 803 1087 825 1136 q 758 985 782 1038 q 750 976 754 979 q 743 975 749 975 z "},"Ȏ":{"ha":1140,"x_min":128,"x_max":1169,"o":"m 828 1099 q 917 1076 886 1099 q 947 1018 947 1054 q 941 981 947 997 q 918 965 935 965 q 906 978 906 965 q 907 992 906 985 q 908 1004 908 999 q 888 1044 908 1032 q 814 1056 868 1056 q 722 1035 765 1056 q 657 978 679 1015 q 646 968 653 971 q 632 965 639 965 q 621 969 626 965 q 617 979 615 974 q 696 1067 636 1036 q 828 1099 756 1099 m 465 -60 q 302 -26 379 -60 q 176 74 225 7 q 128 243 128 142 q 151 366 128 296 q 211 505 175 436 q 286 622 247 574 q 388 725 329 676 q 514 811 447 774 q 649 870 581 849 q 778 892 717 892 q 923 863 853 892 q 1049 782 993 833 q 1137 663 1104 731 q 1169 521 1169 596 q 1138 378 1169 449 q 1053 244 1106 307 q 938 128 1001 181 q 713 -8 836 44 q 467 -60 590 -60 l 465 -60 m 457 -14 q 690 35 575 -14 q 897 161 804 85 q 1008 272 958 211 q 1089 398 1058 332 q 1119 528 1119 464 q 1091 647 1119 590 q 1015 749 1063 704 q 906 819 967 793 q 779 844 844 844 q 656 824 721 844 q 529 767 592 803 q 412 685 467 732 q 318 589 357 639 q 249 476 282 542 q 195 346 215 411 q 175 232 175 281 q 212 99 175 154 q 313 15 249 44 q 457 -14 376 -14 z "},"Ō":{"ha":1140,"x_min":128,"x_max":1169,"o":"m 465 -60 q 302 -26 379 -60 q 176 74 225 7 q 128 243 128 142 q 151 366 128 296 q 211 505 175 436 q 286 622 247 574 q 388 725 329 676 q 514 811 447 774 q 649 870 581 849 q 778 892 717 892 q 923 863 853 892 q 1049 782 993 833 q 1137 663 1104 731 q 1169 521 1169 596 q 1138 378 1169 449 q 1053 244 1106 307 q 938 128 1001 181 q 713 -8 836 44 q 467 -60 590 -60 l 465 -60 m 457 -14 q 690 35 575 -14 q 897 161 804 85 q 1008 272 958 211 q 1089 398 1058 332 q 1119 528 1119 464 q 1091 647 1119 590 q 1015 749 1063 704 q 906 819 967 793 q 779 844 844 844 q 656 824 721 844 q 529 767 592 803 q 412 685 467 732 q 318 589 357 639 q 249 476 282 542 q 195 346 215 411 q 175 232 175 281 q 212 99 175 154 q 313 15 249 44 q 457 -14 376 -14 m 642 975 q 626 979 633 975 q 619 992 619 983 q 626 1006 619 999 q 642 1014 632 1013 q 675 1016 651 1015 q 727 1017 699 1017 q 778 1017 756 1017 q 831 1017 801 1017 q 887 1016 860 1017 q 928 1014 914 1015 q 947 993 947 1011 q 928 975 947 975 q 859 977 901 976 q 788 978 817 978 q 714 977 757 978 q 642 975 671 976 z "},"Ω":{"ha":833,"x_min":-67,"x_max":964,"o":"m -57 21 q -67 28 -67 21 q -54 49 -67 38 q -25 60 -42 60 l 169 60 l 171 63 q 133 144 149 96 q 118 253 118 192 q 132 368 118 306 q 176 499 146 431 q 287 681 221 599 q 431 825 353 764 q 592 919 510 886 q 750 953 674 953 q 911 888 858 953 q 964 722 964 822 q 951 617 964 672 q 913 503 939 561 q 803 313 865 400 q 675 161 742 225 q 549 63 608 97 l 547 60 l 744 60 q 756 51 756 60 q 743 32 756 43 q 713 21 731 21 l 467 21 q 449 31 449 21 q 456 45 449 38 q 468 54 463 53 q 553 110 503 71 q 659 208 603 150 q 768 339 715 265 q 858 497 821 413 q 898 611 883 553 q 913 724 913 669 q 874 858 913 803 q 744 914 835 914 q 596 879 672 914 q 449 785 519 844 q 319 651 378 726 q 225 493 261 575 q 182 368 194 428 q 169 257 169 308 q 192 128 169 183 q 249 46 214 74 l 249 43 q 222 21 249 21 l -57 21 z "},"Ǫ":{"ha":1140,"x_min":128,"x_max":1169,"o":"m 465 -60 q 302 -26 379 -60 q 176 74 225 7 q 128 243 128 142 q 151 366 128 296 q 211 505 175 436 q 286 622 247 574 q 388 725 329 676 q 514 811 447 774 q 649 870 581 849 q 778 892 717 892 q 923 863 853 892 q 1049 782 993 833 q 1137 663 1104 731 q 1169 521 1169 596 q 1138 378 1169 449 q 1053 244 1106 307 q 938 128 1001 181 q 713 -8 836 44 q 467 -60 590 -60 l 465 -60 m 457 -14 q 690 35 575 -14 q 897 161 804 85 q 1008 272 958 211 q 1089 398 1058 332 q 1119 528 1119 464 q 1091 647 1119 590 q 1015 749 1063 704 q 906 819 967 793 q 779 844 844 844 q 656 824 721 844 q 529 767 592 803 q 412 685 467 732 q 318 589 357 639 q 249 476 282 542 q 195 346 215 411 q 175 232 175 281 q 212 99 175 154 q 313 15 249 44 q 457 -14 376 -14 m 397 -261 q 333 -237 358 -261 q 307 -183 307 -214 q 321 -122 307 -151 q 352 -72 335 -93 q 379 -43 369 -50 q 399 -36 388 -36 q 415 -49 415 -36 q 410 -60 415 -54 q 372 -108 393 -78 q 351 -168 351 -139 q 369 -207 351 -193 q 413 -221 386 -221 q 445 -217 429 -221 q 472 -207 461 -212 q 483 -204 481 -204 q 497 -218 497 -204 q 489 -235 497 -228 q 454 -252 479 -243 q 397 -261 429 -261 z "},"Ø":{"ha":1110,"x_min":100,"x_max":1169,"o":"m 465 -60 q 302 -26 379 -60 q 176 74 225 7 q 128 243 128 142 q 151 366 128 296 q 211 505 175 436 q 286 622 247 574 q 388 725 329 676 q 514 811 447 774 q 649 870 581 849 q 778 892 717 892 q 923 863 853 892 q 1049 782 993 833 q 1137 663 1104 731 q 1169 521 1169 596 q 1138 378 1169 449 q 1053 244 1106 307 q 938 128 1001 181 q 713 -8 836 44 q 467 -60 590 -60 l 465 -60 m 457 -14 q 690 35 575 -14 q 897 161 804 85 q 1008 272 958 211 q 1089 398 1058 332 q 1119 528 1119 464 q 1091 647 1119 590 q 1015 749 1063 704 q 906 819 967 793 q 779 844 844 844 q 656 824 721 844 q 529 767 592 803 q 412 685 467 732 q 318 589 357 639 q 249 476 282 542 q 195 346 215 411 q 175 232 175 281 q 212 99 175 154 q 313 15 249 44 q 457 -14 376 -14 m 122 -78 q 100 -56 100 -78 q 106 -40 100 -47 q 144 -1 113 -33 q 232 88 176 32 l 865 721 l 1040 899 q 1057 906 1047 906 q 1081 883 1081 906 q 1074 869 1081 876 q 994 788 1056 850 q 826 619 932 725 l 138 -71 l 139 -71 q 122 -78 132 -78 z "},"Ǿ":{"ha":1110,"x_min":100,"x_max":1169,"o":"m 465 -60 q 302 -26 379 -60 q 176 74 225 7 q 128 243 128 142 q 151 366 128 296 q 211 505 175 436 q 286 622 247 574 q 388 725 329 676 q 514 811 447 774 q 649 870 581 849 q 778 892 717 892 q 923 863 853 892 q 1049 782 993 833 q 1137 663 1104 731 q 1169 521 1169 596 q 1138 378 1169 449 q 1053 244 1106 307 q 938 128 1001 181 q 713 -8 836 44 q 467 -60 590 -60 l 465 -60 m 457 -14 q 690 35 575 -14 q 897 161 804 85 q 1008 272 958 211 q 1089 398 1058 332 q 1119 528 1119 464 q 1091 647 1119 590 q 1015 749 1063 704 q 906 819 967 793 q 779 844 844 844 q 656 824 721 844 q 529 767 592 803 q 412 685 467 732 q 318 589 357 639 q 249 476 282 542 q 195 346 215 411 q 175 232 175 281 q 212 99 175 154 q 313 15 249 44 q 457 -14 376 -14 m 122 -78 q 100 -56 100 -78 q 106 -40 100 -47 q 144 -1 113 -33 q 232 88 176 32 l 865 721 l 1040 899 q 1057 906 1047 906 q 1081 883 1081 906 q 1074 869 1081 876 q 994 788 1056 850 q 826 619 932 725 l 138 -71 l 139 -71 q 122 -78 132 -78 m 733 975 q 719 994 719 981 q 728 1008 719 1004 q 773 1037 740 1017 q 841 1080 806 1057 q 897 1117 876 1103 q 929 1125 915 1129 q 942 1104 942 1118 q 925 1081 942 1090 q 885 1058 915 1075 q 818 1019 856 1040 q 746 978 781 997 q 733 975 740 975 z "},"Õ":{"ha":1140,"x_min":128,"x_max":1169,"o":"m 465 -60 q 302 -26 379 -60 q 176 74 225 7 q 128 243 128 142 q 151 366 128 296 q 211 505 175 436 q 286 622 247 574 q 388 725 329 676 q 514 811 447 774 q 649 870 581 849 q 778 892 717 892 q 923 863 853 892 q 1049 782 993 833 q 1137 663 1104 731 q 1169 521 1169 596 q 1138 378 1169 449 q 1053 244 1106 307 q 938 128 1001 181 q 713 -8 836 44 q 467 -60 590 -60 l 465 -60 m 457 -14 q 690 35 575 -14 q 897 161 804 85 q 1008 272 958 211 q 1089 398 1058 332 q 1119 528 1119 464 q 1091 647 1119 590 q 1015 749 1063 704 q 906 819 967 793 q 779 844 844 844 q 656 824 721 844 q 529 767 592 803 q 412 685 467 732 q 318 589 357 639 q 249 476 282 542 q 195 346 215 411 q 175 232 175 281 q 212 99 175 154 q 313 15 249 44 q 457 -14 376 -14 m 656 969 q 644 973 650 969 q 642 986 639 976 q 656 1017 646 999 q 686 1049 665 1035 q 740 1063 707 1063 q 794 1053 765 1063 q 848 1033 822 1043 q 892 1022 874 1022 q 926 1038 915 1022 q 944 1063 938 1053 q 958 1069 951 1069 q 972 1047 978 1069 q 944 1002 965 1025 q 885 979 924 979 q 836 990 865 979 q 777 1010 807 1000 q 725 1021 747 1021 q 695 1008 706 1021 q 675 979 685 994 q 656 969 669 969 z "},"Ȭ":{"ha":1140,"x_min":128,"x_max":1169,"o":"m 465 -60 q 302 -26 379 -60 q 176 74 225 7 q 128 243 128 142 q 151 366 128 296 q 211 505 175 436 q 286 622 247 574 q 388 725 329 676 q 514 811 447 774 q 649 870 581 849 q 778 892 717 892 q 923 863 853 892 q 1049 782 993 833 q 1137 663 1104 731 q 1169 521 1169 596 q 1138 378 1169 449 q 1053 244 1106 307 q 938 128 1001 181 q 713 -8 836 44 q 467 -60 590 -60 l 465 -60 m 457 -14 q 690 35 575 -14 q 897 161 804 85 q 1008 272 958 211 q 1089 398 1058 332 q 1119 528 1119 464 q 1091 647 1119 590 q 1015 749 1063 704 q 906 819 967 793 q 779 844 844 844 q 656 824 721 844 q 529 767 592 803 q 412 685 467 732 q 318 589 357 639 q 249 476 282 542 q 195 346 215 411 q 175 232 175 281 q 212 99 175 154 q 313 15 249 44 q 457 -14 376 -14 m 656 969 q 644 973 650 969 q 642 986 639 976 q 656 1017 646 999 q 686 1049 665 1035 q 740 1063 707 1063 q 794 1053 765 1063 q 848 1033 822 1043 q 892 1022 874 1022 q 926 1038 915 1022 q 944 1063 938 1053 q 958 1069 951 1069 q 972 1047 978 1069 q 944 1002 965 1025 q 885 979 924 979 q 836 990 865 979 q 777 1010 807 1000 q 725 1021 747 1021 q 695 1008 706 1021 q 675 979 685 994 q 656 969 669 969 m 704 1115 q 689 1119 696 1115 q 682 1132 682 1124 q 688 1146 682 1139 q 704 1154 694 1153 q 738 1156 714 1156 q 790 1157 761 1157 q 840 1157 818 1157 q 893 1157 864 1157 q 949 1156 922 1157 q 990 1154 976 1156 q 1010 1133 1010 1151 q 990 1115 1010 1115 q 922 1117 964 1117 q 850 1118 879 1118 q 776 1117 819 1118 q 704 1115 733 1117 z "},"P":{"ha":886,"x_min":53,"x_max":1081,"o":"m 79 -19 q 53 7 53 -19 q 58 23 53 14 q 68 44 63 32 q 108 126 89 86 q 151 216 128 167 q 203 331 174 265 q 275 488 233 396 q 363 669 322 589 q 439 814 403 750 q 380 794 408 804 q 336 776 351 783 q 315 766 319 768 q 304 764 310 764 q 285 785 285 764 q 300 807 285 796 q 472 869 346 835 q 501 914 488 894 q 519 925 508 922 q 536 928 529 928 q 549 917 549 928 q 539 888 549 906 q 822 929 713 929 q 1081 776 1081 929 q 1038 638 1081 697 q 922 533 994 578 q 760 456 849 489 q 383 378 543 378 q 363 404 363 378 q 385 421 363 421 q 747 496 542 421 q 893 569 829 526 q 994 663 957 611 q 1032 771 1032 715 q 824 885 1032 885 q 682 872 761 885 q 506 832 603 858 q 419 674 464 760 q 328 488 374 589 l 167 135 q 139 76 156 111 q 101 0 122 40 q 79 -19 92 -19 z "},"Q":{"ha":1053,"x_min":128,"x_max":1082,"o":"m 751 -228 q 540 -51 638 -228 q 410 -68 468 -68 q 128 233 128 -68 q 171 447 128 346 q 293 643 214 547 q 513 823 388 758 q 782 888 638 888 q 1007 814 932 888 q 1082 586 1082 740 q 1041 385 1082 475 q 921 199 1000 296 q 586 -43 774 18 l 618 -94 q 681 -160 646 -137 q 749 -183 717 -183 q 790 -174 769 -183 q 821 -165 811 -165 q 842 -190 842 -165 q 812 -217 842 -207 q 751 -228 782 -228 m 410 -19 q 472 -17 446 -19 q 519 -11 497 -15 q 428 72 478 72 q 394 63 404 72 q 368 53 383 53 q 346 74 346 53 q 373 103 346 92 q 428 115 400 115 q 514 79 475 115 q 538 49 525 68 q 567 1 551 29 q 889 233 747 56 q 1001 406 964 326 q 1038 583 1038 485 q 976 783 1038 725 q 793 842 915 842 q 536 781 654 842 q 328 608 418 719 q 215 427 253 517 q 178 235 178 338 q 231 43 178 106 q 410 -19 283 -19 z "},"R":{"ha":854,"x_min":-3,"x_max":992,"o":"m 25 -40 q -3 -17 -3 -40 q 71 153 -3 3 q 163 332 132 276 q 149 354 149 338 q 163 374 149 367 q 189 386 176 381 q 286 548 242 476 q 365 672 331 619 q 481 839 433 776 q 556 922 528 901 q 664 928 576 928 q 904 881 817 928 q 992 760 992 835 q 806 536 992 636 q 507 428 683 469 q 617 397 568 419 q 697 335 667 374 q 726 242 726 297 q 710 159 726 204 q 669 72 694 114 q 617 -3 644 29 q 588 -17 606 -17 q 564 -1 564 -17 q 572 13 564 4 q 590 36 581 22 q 621 89 603 54 q 653 164 639 124 q 668 239 668 204 q 635 329 668 294 q 551 380 603 364 q 443 396 500 396 q 229 354 344 396 q 162 228 194 290 q 101 103 129 165 q 78 48 92 81 q 44 -28 64 15 q 25 -40 39 -40 m 258 407 q 337 426 306 421 q 407 435 368 431 q 447 447 414 436 q 539 475 479 457 q 665 521 608 497 q 767 568 722 544 q 933 760 933 658 q 906 817 933 793 q 837 855 879 840 q 746 876 794 869 q 656 883 697 883 q 615 881 633 883 q 582 876 597 879 q 440 692 510 792 q 317 503 369 593 q 281 441 292 460 q 258 407 269 422 z "},"Ŕ":{"ha":854,"x_min":-3,"x_max":992,"o":"m 25 -40 q -3 -17 -3 -40 q 71 153 -3 3 q 163 332 132 276 q 149 354 149 338 q 163 374 149 367 q 189 386 176 381 q 286 548 242 476 q 365 672 331 619 q 481 839 433 776 q 556 922 528 901 q 664 928 576 928 q 904 881 817 928 q 992 760 992 835 q 806 536 992 636 q 507 428 683 469 q 617 397 568 419 q 697 335 667 374 q 726 242 726 297 q 710 159 726 204 q 669 72 694 114 q 617 -3 644 29 q 588 -17 606 -17 q 564 -1 564 -17 q 572 13 564 4 q 590 36 581 22 q 621 89 603 54 q 653 164 639 124 q 668 239 668 204 q 635 329 668 294 q 551 380 603 364 q 443 396 500 396 q 229 354 344 396 q 162 228 194 290 q 101 103 129 165 q 78 48 92 81 q 44 -28 64 15 q 25 -40 39 -40 m 258 407 q 337 426 306 421 q 407 435 368 431 q 447 447 414 436 q 539 475 479 457 q 665 521 608 497 q 767 568 722 544 q 933 760 933 658 q 906 817 933 793 q 837 855 879 840 q 746 876 794 869 q 656 883 697 883 q 615 881 633 883 q 582 876 597 879 q 440 692 510 792 q 317 503 369 593 q 281 441 292 460 q 258 407 269 422 m 761 1000 q 747 1019 747 1006 q 756 1033 747 1029 q 801 1062 768 1042 q 869 1105 833 1082 q 925 1142 904 1128 q 957 1150 943 1154 q 969 1129 969 1143 q 953 1106 969 1115 q 913 1083 943 1100 q 846 1044 883 1065 q 774 1003 808 1022 q 761 1000 768 1000 z "},"Ř":{"ha":854,"x_min":-3,"x_max":1044,"o":"m 1026 1147 q 1039 1142 1033 1147 q 1044 1131 1044 1138 q 1039 1119 1044 1124 q 1016 1104 1036 1117 q 966 1074 996 1092 q 906 1040 936 1057 q 851 1011 875 1022 q 819 1000 828 1000 q 792 1015 811 1000 q 753 1052 774 1031 q 715 1093 732 1074 q 690 1122 697 1113 q 689 1131 689 1125 q 696 1142 689 1138 q 710 1147 703 1147 q 726 1139 721 1147 q 778 1090 750 1114 q 828 1050 807 1065 q 878 1075 849 1060 q 939 1106 908 1090 q 992 1133 969 1121 q 1019 1146 1015 1144 q 1026 1147 1022 1147 m 25 -40 q -3 -17 -3 -40 q 71 153 -3 3 q 163 332 132 276 q 149 354 149 338 q 163 374 149 367 q 189 386 176 381 q 286 548 242 476 q 365 672 331 619 q 481 839 433 776 q 556 922 528 901 q 664 928 576 928 q 904 881 817 928 q 992 760 992 835 q 806 536 992 636 q 507 428 683 469 q 617 397 568 419 q 697 335 667 374 q 726 242 726 297 q 710 159 726 204 q 669 72 694 114 q 617 -3 644 29 q 588 -17 606 -17 q 564 -1 564 -17 q 572 13 564 4 q 590 36 581 22 q 621 89 603 54 q 653 164 639 124 q 668 239 668 204 q 635 329 668 294 q 551 380 603 364 q 443 396 500 396 q 229 354 344 396 q 162 228 194 290 q 101 103 129 165 q 78 48 92 81 q 44 -28 64 15 q 25 -40 39 -40 m 258 407 q 337 426 306 421 q 407 435 368 431 q 447 447 414 436 q 539 475 479 457 q 665 521 608 497 q 767 568 722 544 q 933 760 933 658 q 906 817 933 793 q 837 855 879 840 q 746 876 794 869 q 656 883 697 883 q 615 881 633 883 q 582 876 597 879 q 440 692 510 792 q 317 503 369 593 q 281 441 292 460 q 258 407 269 422 z "},"Ŗ":{"ha":854,"x_min":-3,"x_max":992,"o":"m 25 -40 q -3 -17 -3 -40 q 71 153 -3 3 q 163 332 132 276 q 149 354 149 338 q 163 374 149 367 q 189 386 176 381 q 286 548 242 476 q 365 672 331 619 q 481 839 433 776 q 556 922 528 901 q 664 928 576 928 q 904 881 817 928 q 992 760 992 835 q 806 536 992 636 q 507 428 683 469 q 617 397 568 419 q 697 335 667 374 q 726 242 726 297 q 710 159 726 204 q 669 72 694 114 q 617 -3 644 29 q 588 -17 606 -17 q 564 -1 564 -17 q 572 13 564 4 q 590 36 581 22 q 621 89 603 54 q 653 164 639 124 q 668 239 668 204 q 635 329 668 294 q 551 380 603 364 q 443 396 500 396 q 229 354 344 396 q 162 228 194 290 q 101 103 129 165 q 78 48 92 81 q 44 -28 64 15 q 25 -40 39 -40 m 258 407 q 337 426 306 421 q 407 435 368 431 q 447 447 414 436 q 539 475 479 457 q 665 521 608 497 q 767 568 722 544 q 933 760 933 658 q 906 817 933 793 q 837 855 879 840 q 746 876 794 869 q 656 883 697 883 q 615 881 633 883 q 582 876 597 879 q 440 692 510 792 q 317 503 369 593 q 281 441 292 460 q 258 407 269 422 m 310 -97 q 333 -109 326 -97 q 340 -136 340 -121 q 304 -226 340 -179 q 218 -312 268 -274 q 203 -318 211 -318 q 190 -307 190 -318 q 196 -296 190 -301 q 233 -251 214 -276 q 267 -202 253 -226 q 281 -162 281 -178 q 276 -145 281 -151 q 271 -131 271 -139 q 281 -107 271 -117 q 310 -97 292 -97 z "},"Ȑ":{"ha":854,"x_min":-3,"x_max":992,"o":"m 25 -40 q -3 -17 -3 -40 q 71 153 -3 3 q 163 332 132 276 q 149 354 149 338 q 163 374 149 367 q 189 386 176 381 q 286 548 242 476 q 365 672 331 619 q 481 839 433 776 q 556 922 528 901 q 664 928 576 928 q 904 881 817 928 q 992 760 992 835 q 806 536 992 636 q 507 428 683 469 q 617 397 568 419 q 697 335 667 374 q 726 242 726 297 q 710 159 726 204 q 669 72 694 114 q 617 -3 644 29 q 588 -17 606 -17 q 564 -1 564 -17 q 572 13 564 4 q 590 36 581 22 q 621 89 603 54 q 653 164 639 124 q 668 239 668 204 q 635 329 668 294 q 551 380 603 364 q 443 396 500 396 q 229 354 344 396 q 162 228 194 290 q 101 103 129 165 q 78 48 92 81 q 44 -28 64 15 q 25 -40 39 -40 m 258 407 q 337 426 306 421 q 407 435 368 431 q 447 447 414 436 q 539 475 479 457 q 665 521 608 497 q 767 568 722 544 q 933 760 933 658 q 906 817 933 793 q 837 855 879 840 q 746 876 794 869 q 656 883 697 883 q 615 881 633 883 q 582 876 597 879 q 440 692 510 792 q 317 503 369 593 q 281 441 292 460 q 258 407 269 422 m 843 997 q 832 1003 838 997 q 758 1085 793 1046 q 711 1139 722 1125 q 703 1150 707 1144 q 700 1161 700 1156 q 707 1174 700 1168 q 721 1182 714 1181 q 735 1177 728 1182 q 749 1165 743 1172 q 787 1117 765 1144 q 828 1064 808 1089 q 858 1026 849 1039 q 863 1013 863 1018 q 843 997 860 997 m 754 994 q 743 999 750 994 q 660 1074 700 1038 q 608 1122 621 1110 q 596 1143 596 1135 q 601 1157 596 1150 q 614 1165 607 1164 l 617 1165 q 631 1161 624 1165 q 643 1151 638 1157 q 686 1108 661 1133 q 734 1059 711 1082 q 767 1025 757 1036 q 772 1013 772 1019 q 767 1001 772 1007 q 754 994 761 994 z "},"Ȓ":{"ha":854,"x_min":-3,"x_max":992,"o":"m 856 1124 q 944 1101 914 1124 q 975 1043 975 1079 q 969 1006 975 1022 q 946 990 963 990 q 933 1003 933 990 q 935 1017 933 1010 q 936 1029 936 1024 q 916 1069 936 1057 q 842 1081 896 1081 q 750 1060 793 1081 q 685 1003 707 1040 q 674 993 681 996 q 660 990 667 990 q 649 994 654 990 q 644 1004 643 999 q 724 1092 664 1061 q 856 1124 783 1124 m 25 -40 q -3 -17 -3 -40 q 71 153 -3 3 q 163 332 132 276 q 149 354 149 338 q 163 374 149 367 q 189 386 176 381 q 286 548 242 476 q 365 672 331 619 q 481 839 433 776 q 556 922 528 901 q 664 928 576 928 q 904 881 817 928 q 992 760 992 835 q 806 536 992 636 q 507 428 683 469 q 617 397 568 419 q 697 335 667 374 q 726 242 726 297 q 710 159 726 204 q 669 72 694 114 q 617 -3 644 29 q 588 -17 606 -17 q 564 -1 564 -17 q 572 13 564 4 q 590 36 581 22 q 621 89 603 54 q 653 164 639 124 q 668 239 668 204 q 635 329 668 294 q 551 380 603 364 q 443 396 500 396 q 229 354 344 396 q 162 228 194 290 q 101 103 129 165 q 78 48 92 81 q 44 -28 64 15 q 25 -40 39 -40 m 258 407 q 337 426 306 421 q 407 435 368 431 q 447 447 414 436 q 539 475 479 457 q 665 521 608 497 q 767 568 722 544 q 933 760 933 658 q 906 817 933 793 q 837 855 879 840 q 746 876 794 869 q 656 883 697 883 q 615 881 633 883 q 582 876 597 879 q 440 692 510 792 q 317 503 369 593 q 281 441 292 460 q 258 407 269 422 z "},"S":{"ha":849,"x_min":10,"x_max":953,"o":"m 353 -60 q 185 -31 264 -60 q 58 53 107 -1 q 10 181 10 107 q 18 231 10 204 q 43 267 29 267 q 64 243 64 267 q 58 217 64 233 q 53 185 53 200 q 94 78 53 124 q 202 10 136 33 q 340 -14 268 -14 q 607 61 497 -14 q 701 155 664 100 q 739 272 739 210 q 710 367 739 329 q 632 431 682 404 q 517 481 582 458 q 331 639 331 546 q 368 735 331 689 q 460 816 406 781 q 564 869 514 851 q 701 908 638 897 q 818 918 764 918 q 922 884 892 918 q 953 800 953 850 q 934 725 953 761 q 883 663 915 689 q 825 632 847 632 q 801 654 801 632 q 814 672 801 667 q 907 801 907 719 q 887 855 907 838 q 818 872 867 872 q 719 863 774 872 q 607 833 664 853 q 506 785 557 815 q 420 718 454 754 q 386 646 386 682 q 533 524 386 569 q 788 276 788 443 q 765 178 788 226 q 705 89 742 129 q 626 19 668 49 q 497 -41 567 -22 q 353 -60 426 -60 z "},"Ś":{"ha":849,"x_min":10,"x_max":953,"o":"m 353 -60 q 185 -31 264 -60 q 58 53 107 -1 q 10 181 10 107 q 18 231 10 204 q 43 267 29 267 q 64 243 64 267 q 58 217 64 233 q 53 185 53 200 q 94 78 53 124 q 202 10 136 33 q 340 -14 268 -14 q 607 61 497 -14 q 701 155 664 100 q 739 272 739 210 q 710 367 739 329 q 632 431 682 404 q 517 481 582 458 q 331 639 331 546 q 368 735 331 689 q 460 816 406 781 q 564 869 514 851 q 701 908 638 897 q 818 918 764 918 q 922 884 892 918 q 953 800 953 850 q 934 725 953 761 q 883 663 915 689 q 825 632 847 632 q 801 654 801 632 q 814 672 801 667 q 907 801 907 719 q 887 855 907 838 q 818 872 867 872 q 719 863 774 872 q 607 833 664 853 q 506 785 557 815 q 420 718 454 754 q 386 646 386 682 q 533 524 386 569 q 788 276 788 443 q 765 178 788 226 q 705 89 742 129 q 626 19 668 49 q 497 -41 567 -22 q 353 -60 426 -60 m 732 999 q 718 1018 718 1004 q 726 1032 718 1028 q 772 1060 739 1040 q 840 1103 804 1081 q 896 1140 875 1126 q 928 1149 914 1153 q 940 1128 940 1142 q 924 1104 940 1114 q 884 1081 914 1099 q 817 1042 854 1064 q 744 1001 779 1021 q 732 999 739 999 z "},"Š":{"ha":849,"x_min":10,"x_max":1015,"o":"m 997 1146 q 1010 1141 1004 1146 q 1015 1129 1015 1136 q 1010 1118 1015 1122 q 987 1103 1007 1115 q 937 1073 967 1090 q 876 1038 907 1056 q 822 1010 846 1021 q 790 999 799 999 q 763 1014 782 999 q 724 1051 744 1029 q 685 1092 703 1072 q 661 1121 668 1111 q 660 1129 660 1124 q 667 1141 660 1136 q 681 1146 674 1146 q 697 1138 692 1146 q 749 1088 721 1113 q 799 1049 778 1064 q 849 1074 819 1058 q 910 1104 879 1089 q 963 1131 940 1119 q 990 1144 986 1143 q 997 1146 993 1146 m 353 -60 q 185 -31 264 -60 q 58 53 107 -1 q 10 181 10 107 q 18 231 10 204 q 43 267 29 267 q 64 243 64 267 q 58 217 64 233 q 53 185 53 200 q 94 78 53 124 q 202 10 136 33 q 340 -14 268 -14 q 607 61 497 -14 q 701 155 664 100 q 739 272 739 210 q 710 367 739 329 q 632 431 682 404 q 517 481 582 458 q 331 639 331 546 q 368 735 331 689 q 460 816 406 781 q 564 869 514 851 q 701 908 638 897 q 818 918 764 918 q 922 884 892 918 q 953 800 953 850 q 934 725 953 761 q 883 663 915 689 q 825 632 847 632 q 801 654 801 632 q 814 672 801 667 q 907 801 907 719 q 887 855 907 838 q 818 872 867 872 q 719 863 774 872 q 607 833 664 853 q 506 785 557 815 q 420 718 454 754 q 386 646 386 682 q 533 524 386 569 q 788 276 788 443 q 765 178 788 226 q 705 89 742 129 q 626 19 668 49 q 497 -41 567 -22 q 353 -60 426 -60 z "},"Ş":{"ha":849,"x_min":10,"x_max":953,"o":"m 353 -60 q 185 -31 264 -60 q 58 53 107 -1 q 10 181 10 107 q 18 231 10 204 q 43 267 29 267 q 64 243 64 267 q 58 217 64 233 q 53 185 53 200 q 94 78 53 124 q 202 10 136 33 q 340 -14 268 -14 q 607 61 497 -14 q 701 155 664 100 q 739 272 739 210 q 710 367 739 329 q 632 431 682 404 q 517 481 582 458 q 331 639 331 546 q 368 735 331 689 q 460 816 406 781 q 564 869 514 851 q 701 908 638 897 q 818 918 764 918 q 922 884 892 918 q 953 800 953 850 q 934 725 953 761 q 883 663 915 689 q 825 632 847 632 q 801 654 801 632 q 814 672 801 667 q 907 801 907 719 q 887 855 907 838 q 818 872 867 872 q 719 863 774 872 q 607 833 664 853 q 506 785 557 815 q 420 718 454 754 q 386 646 386 682 q 533 524 386 569 q 788 276 788 443 q 765 178 788 226 q 705 89 742 129 q 626 19 668 49 q 497 -41 567 -22 q 353 -60 426 -60 m 268 -292 q 240 -288 257 -292 q 208 -278 222 -285 q 189 -262 193 -269 q 185 -247 185 -254 q 193 -235 185 -237 q 208 -236 201 -232 q 236 -247 218 -242 q 268 -253 254 -253 q 313 -244 293 -253 q 333 -207 333 -236 q 321 -172 333 -186 q 296 -142 308 -158 q 283 -103 283 -126 q 306 -54 283 -75 q 358 -33 329 -33 q 369 -38 365 -33 q 374 -49 374 -43 q 368 -58 374 -57 q 340 -73 351 -67 q 329 -99 329 -79 q 342 -133 329 -118 q 367 -165 354 -147 q 379 -214 379 -182 q 348 -269 379 -246 q 268 -292 317 -292 z "},"Ə":{"ha":1135,"x_min":0,"x_max":1079,"o":"m 301 -71 q 156 -42 225 -71 q 43 40 86 -12 q 0 157 0 92 q 36 299 0 239 q 135 399 72 358 q 277 463 197 439 q 446 498 357 488 q 622 508 535 508 q 849 493 743 508 q 1014 456 954 478 q 1028 569 1028 513 q 977 748 1028 676 q 840 855 926 819 q 647 890 754 890 q 522 877 590 890 q 384 842 453 864 q 256 792 315 819 q 154 735 196 764 q 124 711 135 721 q 107 701 114 701 q 100 710 100 701 q 126 764 100 733 q 152 787 136 775 q 192 813 168 799 q 336 877 256 850 q 502 919 417 904 q 663 933 588 933 q 883 890 790 933 q 1028 763 976 846 q 1079 560 1079 679 q 1035 353 1079 450 q 913 179 990 257 q 737 45 836 101 q 526 -41 638 -11 q 301 -71 414 -71 m 51 154 q 90 60 51 100 q 189 -3 128 19 q 321 -25 250 -25 q 536 8 429 -25 q 737 100 643 40 q 900 240 831 160 q 1003 418 969 321 q 801 454 904 442 q 600 467 699 467 q 390 449 489 467 q 215 394 292 432 q 95 297 139 357 q 51 154 51 238 z "},"Ŝ":{"ha":849,"x_min":10,"x_max":967,"o":"m 353 -60 q 185 -31 264 -60 q 58 53 107 -1 q 10 181 10 107 q 18 231 10 204 q 43 267 29 267 q 64 243 64 267 q 58 217 64 233 q 53 185 53 200 q 94 78 53 124 q 202 10 136 33 q 340 -14 268 -14 q 607 61 497 -14 q 701 155 664 100 q 739 272 739 210 q 710 367 739 329 q 632 431 682 404 q 517 481 582 458 q 331 639 331 546 q 368 735 331 689 q 460 816 406 781 q 564 869 514 851 q 701 908 638 897 q 818 918 764 918 q 922 884 892 918 q 953 800 953 850 q 934 725 953 761 q 883 663 915 689 q 825 632 847 632 q 801 654 801 632 q 814 672 801 667 q 907 801 907 719 q 887 855 907 838 q 818 872 867 872 q 719 863 774 872 q 607 833 664 853 q 506 785 557 815 q 420 718 454 754 q 386 646 386 682 q 533 524 386 569 q 788 276 788 443 q 765 178 788 226 q 705 89 742 129 q 626 19 668 49 q 497 -41 567 -22 q 353 -60 426 -60 m 629 990 q 617 996 624 990 q 611 1007 611 1001 q 617 1018 611 1014 q 640 1033 619 1021 q 690 1063 660 1046 q 750 1098 719 1081 q 804 1126 781 1115 q 836 1138 828 1138 q 863 1122 844 1138 q 903 1085 882 1107 q 941 1044 924 1064 q 965 1015 958 1025 q 967 1007 967 1013 q 960 995 967 1000 q 946 990 953 990 q 929 999 936 990 q 877 1049 906 1024 q 828 1088 849 1074 q 777 1063 807 1078 q 717 1033 747 1049 q 663 1006 686 1017 q 636 992 640 994 q 629 990 633 990 z "},"Ș":{"ha":849,"x_min":10,"x_max":953,"o":"m 353 -60 q 185 -31 264 -60 q 58 53 107 -1 q 10 181 10 107 q 18 231 10 204 q 43 267 29 267 q 64 243 64 267 q 58 217 64 233 q 53 185 53 200 q 94 78 53 124 q 202 10 136 33 q 340 -14 268 -14 q 607 61 497 -14 q 701 155 664 100 q 739 272 739 210 q 710 367 739 329 q 632 431 682 404 q 517 481 582 458 q 331 639 331 546 q 368 735 331 689 q 460 816 406 781 q 564 869 514 851 q 701 908 638 897 q 818 918 764 918 q 922 884 892 918 q 953 800 953 850 q 934 725 953 761 q 883 663 915 689 q 825 632 847 632 q 801 654 801 632 q 814 672 801 667 q 907 801 907 719 q 887 855 907 838 q 818 872 867 872 q 719 863 774 872 q 607 833 664 853 q 506 785 557 815 q 420 718 454 754 q 386 646 386 682 q 533 524 386 569 q 788 276 788 443 q 765 178 788 226 q 705 89 742 129 q 626 19 668 49 q 497 -41 567 -22 q 353 -60 426 -60 m 306 -167 q 329 -178 322 -167 q 336 -206 336 -190 q 300 -296 336 -249 q 214 -382 264 -343 q 199 -387 207 -387 q 186 -376 186 -387 q 192 -365 186 -371 q 229 -321 210 -346 q 263 -272 249 -296 q 276 -232 276 -247 q 272 -215 276 -221 q 267 -200 267 -208 q 277 -176 267 -186 q 306 -167 288 -167 z "},"T":{"ha":736,"x_min":149,"x_max":1153,"o":"m 264 -83 q 240 -56 240 -83 q 289 101 240 -11 q 435 389 338 213 l 699 864 l 672 864 q 250 785 349 864 q 194 693 210 753 q 176 672 193 672 q 149 697 149 672 q 225 822 149 767 q 657 908 340 908 q 842 904 749 908 l 986 894 q 1067 890 1031 892 q 1131 888 1103 888 q 1153 865 1153 888 q 1131 843 1153 843 q 986 851 1082 843 q 878 860 917 858 q 807 861 839 861 q 764 862 778 861 q 744 863 750 863 q 660 697 728 819 l 519 447 q 344 111 401 236 q 286 -50 286 -14 l 286 -57 q 264 -83 286 -83 z "},"Ŧ":{"ha":736,"x_min":149,"x_max":1153,"o":"m 264 -83 q 240 -56 240 -83 q 289 101 240 -11 q 435 389 338 213 l 699 864 l 672 864 q 250 785 349 864 q 194 693 210 753 q 176 672 193 672 q 149 697 149 672 q 225 822 149 767 q 657 908 340 908 q 842 904 749 908 l 986 894 q 1067 890 1031 892 q 1131 888 1103 888 q 1153 865 1153 888 q 1131 843 1153 843 q 986 851 1082 843 q 878 860 917 858 q 807 861 839 861 q 764 862 778 861 q 744 863 750 863 q 660 697 728 819 l 519 447 q 344 111 401 236 q 286 -50 286 -14 l 286 -57 q 264 -83 286 -83 m 467 569 q 451 574 458 569 q 444 586 444 578 q 451 600 444 593 q 467 608 457 607 q 511 611 482 611 q 575 611 540 611 q 655 611 619 611 q 711 608 690 611 q 731 588 731 606 q 711 569 731 569 q 655 572 685 571 q 585 572 625 572 q 525 572 554 572 q 467 569 496 571 z "}}}
